<svg xmlns="http://www.w3.org/2000/svg" width="120" height="40" preserveAspectRatio="xMidYMid meet" version="1.0" viewBox="0 0 90 30" zoomAndPan="magnify"><defs><clipPath id="a"><path d="M46 7h42.547v9H46Zm0 0" clip-rule="nonzero"/></clipPath><clipPath id="b"><path d="M1.453 9h87.094v20.031H1.453Zm0 0" clip-rule="nonzero"/></clipPath><clipPath id="c"><path d="M1.453 6h87.094v8H1.453Zm0 0" clip-rule="nonzero"/></clipPath><clipPath id="d"><path d="M1.453 0H47v12H1.453Zm0 0" clip-rule="nonzero"/></clipPath><clipPath id="e"><path d="M12.84 22.871h6.531v2.176H12.84Zm0 0" clip-rule="nonzero"/></clipPath><clipPath id="f"><path d="M12.84 22.871h6.531V25H12.84Zm0 0" clip-rule="nonzero"/></clipPath><clipPath id="g"><path d="M60 16h10v8H60Zm0 0" clip-rule="nonzero"/></clipPath><clipPath id="h"><path d="m62.027 15.89 8.575 5.454-1.563 2.449-8.57-5.453Zm0 0" clip-rule="nonzero"/></clipPath><clipPath id="i"><path d="M61 16h10v7H61Zm0 0" clip-rule="nonzero"/></clipPath><clipPath id="j"><path d="m62.027 15.89 8.575 5.454-1.563 2.449-8.57-5.453Zm0 0" clip-rule="nonzero"/></clipPath><clipPath id="k"><path d="m62.027 15.89 8.575 5.454-1.563 2.449-8.57-5.453Zm0 0" clip-rule="nonzero"/></clipPath><clipPath id="l"><path d="M61 15h9v8h-9Zm0 0" clip-rule="nonzero"/></clipPath><clipPath id="m"><path d="m62.027 15.89 8.575 5.454-1.563 2.449-8.57-5.453Zm0 0" clip-rule="nonzero"/></clipPath><clipPath id="n"><path d="m62.027 15.89 8.575 5.454-1.563 2.449-8.57-5.453Zm0 0" clip-rule="nonzero"/></clipPath><clipPath id="o"><path d="M40 16h7v6h-7Zm0 0" clip-rule="nonzero"/></clipPath><clipPath id="p"><path d="m41.703 15.89 5.488 3.547-1.183 1.829-5.485-3.547Zm0 0" clip-rule="nonzero"/></clipPath><clipPath id="q"><path d="m41.703 15.89 5.488 3.547-1.183 1.829-5.485-3.547Zm0 0" clip-rule="nonzero"/></clipPath><clipPath id="r"><path d="M41 16h6v5h-6Zm0 0" clip-rule="nonzero"/></clipPath><clipPath id="s"><path d="m41.703 15.89 5.488 3.547-1.183 1.829-5.485-3.547Zm0 0" clip-rule="nonzero"/></clipPath><clipPath id="t"><path d="m41.703 15.89 5.488 3.547-1.183 1.829-5.485-3.547Zm0 0" clip-rule="nonzero"/></clipPath><clipPath id="u"><path d="M40 15h7v6h-7Zm0 0" clip-rule="nonzero"/></clipPath><clipPath id="v"><path d="m41.703 15.89 5.488 3.547-1.183 1.829-5.485-3.547Zm0 0" clip-rule="nonzero"/></clipPath><clipPath id="w"><path d="m41.703 15.89 5.488 3.547-1.183 1.829-5.485-3.547Zm0 0" clip-rule="nonzero"/></clipPath></defs><g clip-path="url(#a)"><path d="m46.004 13.016.89.164a226.225 226.225 0 0 0 4.102.703c.18.031.36.058.54.086.237.039.472.074.71.11.23.034.465.07.695.1.5.075 1.004.145 1.508.212.266.035.531.07.797.101a92.651 92.651 0 0 0 2.797.309c11.7 1.097 23.621-.297 34.777-4.028V7.016c-.375.097-.75.199-1.125.289-7.836 2.773-17.129 4.707-27.25 5.515a134.175 134.175 0 0 1-18.441.195Zm0 0" fill="#fdd5d4" fill-opacity="1" fill-rule="nonzero"/></g><g clip-path="url(#b)"><path d="M-2.969 11.969v17.07h95.79V10.773c-11.157 3.73-23.079 5.125-34.778 4.028a90.503 90.503 0 0 1-2.797-.309c-.266-.031-.531-.066-.797-.101a93.341 93.341 0 0 1-1.508-.211c-.23-.032-.464-.067-.695-.102-.238-.035-.473-.07-.71-.11-.18-.027-.36-.054-.54-.085a76.47 76.47 0 0 1-1.312-.215c-.93-.156-1.86-.32-2.79-.488l-.89-.164c-.008 0-.012-.004-.016-.004a79.62 79.62 0 0 1-1.332-.246c-.883-.164-1.761-.332-2.644-.496-.309-.06-.61-.114-.914-.172a.624.624 0 0 0-.082-.016c-.235-.047-.477-.09-.711-.133-.223-.043-.446-.086-.668-.125a34.18 34.18 0 0 1-.672-.125c-.215-.039-.43-.074-.64-.113-.454-.082-.903-.164-1.356-.242-.211-.04-.426-.074-.64-.114-.446-.078-.892-.152-1.34-.226l-.477-.082c-.055-.008-.114-.016-.168-.027a.729.729 0 0 1-.098-.016c-.418-.066-.84-.129-1.258-.195a19.527 19.527 0 0 1-.511-.079c-.04-.003-.075-.011-.114-.015l-.722-.106c-.243-.03-.48-.066-.723-.097a25.15 25.15 0 0 0-.535-.075 91.948 91.948 0 0 0-6.61-.629A93.302 93.302 0 0 0-2.969 11.97Zm0 0" fill="#fff" fill-opacity="1" fill-rule="nonzero"/></g><g clip-path="url(#c)"><path d="M18.82 6.844c9.254-1.09 18.586-.867 27.887-.157 2.305.676 4.625 1.29 6.973 1.766 6.539 1.32 13.23 1.895 19.89 1.555a77.53 77.53 0 0 0 3.805-.293c4.82-.504 9.645-1.23 14.32-2.41-4.468 1.582-9.406 2.89-14.703 3.87a121.936 121.936 0 0 1-12.547 1.645 134.175 134.175 0 0 1-18.441.195c-.008 0-.012-.003-.016-.003a79.62 79.62 0 0 1-1.332-.246c-.883-.164-1.761-.332-2.644-.496-.309-.06-.61-.114-.914-.172a.624.624 0 0 0-.082-.016c-.235-.047-.477-.09-.711-.133-.223-.043-.446-.086-.668-.125a34.18 34.18 0 0 1-.672-.125c-.215-.039-.43-.074-.64-.113a163.84 163.84 0 0 0-3.337-.582l-.476-.082c-.055-.008-.114-.016-.168-.027a.729.729 0 0 1-.098-.016c-.418-.066-.84-.137-1.258-.195a19.527 19.527 0 0 1-.511-.079v-.003l-.114-.012-.722-.106c-.418-.058-.84-.117-1.258-.171A93.233 93.233 0 0 0-.38 11.406c6.152-2.329 12.672-3.794 19.2-4.563Zm0 0" fill="#ffeded" fill-opacity="1" fill-rule="nonzero"/></g><g clip-path="url(#d)"><path d="M2.813 1.031A108.24 108.24 0 0 1 4.39.855C12.789 0 21.344.301 29.64 1.902c3.867.746 7.648 1.891 11.43 3.063.019.008.042.012.062.02a352.03 352.03 0 0 0 5.574 1.702c-9.305-.71-18.633-.933-27.887.157-6.527.77-13.047 2.234-19.199 4.562-.488.098-.973.2-1.46.309a42.2 42.2 0 0 0-1.13.254V1.929a85.024 85.024 0 0 1 5.781-.898Zm0 0" fill="#ffeded" fill-opacity="1" fill-rule="nonzero"/></g><g fill-opacity="1" fill-rule="evenodd" clip-path="url(#e)"><path d="M12.887 24.816c.023.063.039.125.062.192.012.027.04.039.067.031.027-.012.043-.043.03-.07-.023-.063-.038-.13-.062-.196a.052.052 0 0 0-.07-.027c-.027.008-.039.043-.027.07Zm1.84.032c.046-.02.09-.04.136-.063.024-.012.035-.043.024-.07-.012-.027-.043-.04-.067-.027a2.12 2.12 0 0 1-.136.062.054.054 0 0 0-.024.07c.012.028.043.04.067.028Zm4.433 0c.047-.02.09-.04.137-.063a.055.055 0 0 0 .023-.07c-.011-.027-.043-.04-.066-.027a2.12 2.12 0 0 1-.137.062.055.055 0 0 0-.023.07c.011.028.043.04.066.028Zm-3.531-.059c.023-.039.047-.082.074-.121a.056.056 0 0 0-.015-.074c-.024-.016-.06-.012-.075.015-.027.043-.054.086-.078.133-.012.024-.004.059.024.07.023.016.058.004.07-.023Zm2.223 0c.023-.039.046-.082.074-.121a.056.056 0 0 0-.016-.074.052.052 0 0 0-.074.015c-.027.043-.05.086-.074.133-.016.024-.004.059.02.07a.049.049 0 0 0 .07-.023Zm-1.317-.273c-.027-.043-.055-.09-.086-.137a.05.05 0 0 0-.07-.016.055.055 0 0 0-.016.075c.028.046.055.093.086.136.016.028.047.035.07.016.028-.016.032-.047.016-.074Zm-2.062-.309c.043.023.082.05.125.074.027.016.058.004.074-.023.012-.024.004-.059-.024-.07-.043-.024-.082-.051-.12-.075a.057.057 0 0 0-.075.024.056.056 0 0 0 .02.07Zm3.714-.027c.063-.012.13-.02.192-.032.027-.007.047-.035.043-.062-.008-.031-.035-.05-.063-.043-.062.012-.129.02-.191.031-.027.008-.047.035-.043.063.008.031.035.05.063.043Zm-1.238-.172c.051-.008.102-.016.153-.031a.059.059 0 0 0 .035-.07.055.055 0 0 0-.067-.036.689.689 0 0 1-.136.031c-.028.004-.047.032-.043.063.004.027.03.05.058.043Zm-1.746-.043c.043-.031.086-.059.125-.086.027-.02.031-.05.016-.078-.016-.024-.051-.028-.074-.012-.043.027-.086.059-.13.09a.055.055 0 0 0-.011.074c.02.024.05.031.074.012Zm-1.09-.352c0 .059 0 .121-.004.184 0 .027.024.055.051.055.031 0 .055-.024.055-.051.004-.063.004-.125.004-.188a.053.053 0 0 0-.055-.054c-.027 0-.05.023-.05.054Zm-.625-.015c.035.03.075.062.11.093.023.016.054.016.074-.007a.056.056 0 0 0-.008-.079 2.893 2.893 0 0 0-.113-.093.055.055 0 0 0-.074.011c-.016.024-.012.059.011.075Zm-.629-.168c.028.027.051.058.079.09a.06.06 0 0 0 .078 0 .06.06 0 0 0 0-.079c-.028-.027-.051-.054-.079-.086a.054.054 0 0 0-.074-.003c-.02.023-.023.054-.004.078Zm4.434 0c.027.027.05.058.082.09.02.02.05.02.074 0a.06.06 0 0 0 0-.079c-.027-.027-.05-.054-.078-.086a.054.054 0 0 0-.074-.003c-.02.023-.024.054-.004.078Zm1.594.07c.062.008.125.02.187.027a.052.052 0 0 0 .059-.047.052.052 0 0 0-.047-.058c-.059-.008-.121-.02-.184-.027-.03-.004-.054.015-.058.046a.052.052 0 0 0 .043.059Zm-2.614-.434a1.2 1.2 0 0 1-.078.122c-.02.027-.011.058.012.078a.056.056 0 0 0 .074-.016c.028-.04.055-.082.082-.125a.056.056 0 0 0-.015-.074.056.056 0 0 0-.075.015Zm-2.207 0a3.254 3.254 0 0 1-.082.122.061.061 0 0 0 .012.078.056.056 0 0 0 .074-.016c.028-.04.055-.082.082-.125a.056.056 0 0 0-.015-.074.05.05 0 0 0-.07.015Zm.5-.02c.04.028.075.06.114.09.023.02.054.016.074-.007a.05.05 0 0 0-.008-.074c-.039-.032-.074-.063-.113-.094-.024-.02-.059-.016-.074.012-.02.023-.012.054.007.074Zm1.106-.03.047.086a.057.057 0 0 0 .074.023.061.061 0 0 0 .02-.074l-.047-.086a.054.054 0 0 0-.07-.024.057.057 0 0 0-.024.075Zm2.223 0 .046.086a.057.057 0 0 0 .075.023c.023-.016.035-.05.02-.074l-.048-.086c-.011-.027-.047-.035-.07-.024a.057.057 0 0 0-.023.075Zm0 0" fill="#fdd5d4"/><path d="M15.094 24.816c.027.063.043.125.066.192.008.027.04.039.067.031.027-.012.043-.043.03-.07-.023-.063-.038-.13-.066-.196-.007-.027-.039-.039-.066-.027-.027.008-.04.043-.031.07Zm2.226 0c.024.063.04.125.063.192a.054.054 0 0 0 .066.031c.028-.012.043-.043.031-.07-.023-.063-.039-.13-.062-.196-.012-.027-.043-.039-.07-.027-.028.008-.04.043-.028.07Zm-1.218.008c.043.04.09.074.136.11.024.015.059.011.075-.016a.055.055 0 0 0-.012-.074c-.047-.032-.09-.067-.133-.102-.023-.02-.059-.015-.074.008-.02.023-.016.059.008.074Zm-2.684-.035c.023-.039.047-.082.074-.121a.056.056 0 0 0-.015-.074c-.024-.016-.059-.012-.075.015-.027.043-.05.086-.074.133-.015.024-.004.059.02.07a.049.049 0 0 0 .07-.023Zm.906-.273a4.214 4.214 0 0 1-.082-.137.056.056 0 0 0-.074-.016.055.055 0 0 0-.016.075c.028.046.055.093.086.136.016.028.047.035.07.016.028-.016.036-.047.016-.074Zm4.438 0a1.372 1.372 0 0 1-.086-.137.056.056 0 0 0-.074-.016.055.055 0 0 0-.016.075c.027.046.055.093.086.136.015.028.047.035.074.016a.055.055 0 0 0 .016-.074Zm-3.563-.09c.04-.02.082-.04.125-.059.024-.012.035-.043.024-.07a.052.052 0 0 0-.07-.027c-.04.02-.079.039-.122.054-.027.012-.039.043-.027.07.012.028.043.044.07.032Zm1.485-.219c.043.023.082.05.125.074a.049.049 0 0 0 .07-.023c.016-.024.004-.059-.02-.07-.043-.024-.082-.051-.125-.075a.054.054 0 0 0-.07.024c-.016.023-.004.054.02.07Zm-2.93-.027c.062-.012.129-.02.191-.032a.057.057 0 0 0 .043-.062c-.008-.031-.035-.05-.062-.043-.063.012-.13.02-.192.031a.06.06 0 0 0-.043.063c.008.031.036.05.063.043Zm5.418-.172c.05-.008.101-.016.152-.031a.059.059 0 0 0 .035-.07c-.007-.028-.039-.044-.066-.036a.682.682 0 0 1-.137.031c-.027.004-.047.032-.043.063.004.027.032.05.059.043Zm-6.18-.043c.043-.031.086-.059.13-.086.023-.02.026-.05.01-.078-.015-.024-.046-.028-.073-.012a1.45 1.45 0 0 0-.125.09c-.024.02-.032.05-.012.074a.047.047 0 0 0 .07.012Zm4.438 0a1.38 1.38 0 0 1 .125-.086c.023-.02.027-.05.011-.078-.015-.024-.046-.028-.074-.012a1.45 1.45 0 0 0-.125.09c-.023.02-.031.05-.012.074a.052.052 0 0 0 .075.012Zm-1.106-.352c0 .059 0 .121-.004.184 0 .027.024.055.051.055.031 0 .055-.024.055-.051.004-.063.004-.125.004-.188a.053.053 0 0 0-.055-.054c-.027 0-.05.023-.05.054Zm2.223 0c0 .059 0 .121-.004.184 0 .027.023.055.05.055.032 0 .055-.024.055-.051.004-.063.004-.125.004-.188a.053.053 0 0 0-.054-.054c-.028 0-.051.023-.051.054Zm-2.848-.015.11.093c.023.016.054.016.074-.007a.056.056 0 0 0-.008-.079l-.113-.093c-.024-.016-.059-.012-.075.011-.015.024-.011.059.012.075Zm2.223 0c.039.03.074.062.11.093.023.016.054.016.073-.007a.056.056 0 0 0-.007-.079 2.893 2.893 0 0 0-.114-.093.055.055 0 0 0-.074.011c-.015.024-.012.059.012.075Zm-3.469-.098c.063.008.125.02.188.027a.052.052 0 0 0 .058-.047.052.052 0 0 0-.047-.058c-.058-.008-.12-.02-.183-.027-.031-.004-.055.015-.059.046a.052.052 0 0 0 .043.059ZM19 23.047c.04.027.078.058.113.09.024.02.055.015.075-.008a.052.052 0 0 0-.008-.074l-.114-.094a.048.048 0 0 0-.074.012c-.02.023-.012.054.008.074Zm-2.223 0c.04.027.075.058.114.09.02.02.054.015.074-.008.015-.024.015-.055-.008-.074-.039-.032-.074-.063-.113-.094-.024-.02-.059-.016-.074.012-.02.023-.016.054.007.074Zm-3.316-.031c.016.027.031.058.047.086a.057.057 0 0 0 .074.023.061.061 0 0 0 .02-.074l-.047-.086c-.012-.027-.047-.035-.07-.024a.057.057 0 0 0-.024.075Zm1.703-.036c.063.028.125.055.184.086.027.012.058 0 .07-.027.012-.027.004-.059-.023-.07a3.134 3.134 0 0 0-.188-.086.053.053 0 0 0-.07.027.053.053 0 0 0 .027.07Zm0 0" fill="#f4a2b8"/></g><g clip-path="url(#f)"><path d="M13.89 24.824c.047.04.094.074.141.11.024.015.055.011.07-.016.02-.023.012-.055-.011-.074a3.003 3.003 0 0 1-.133-.102c-.023-.02-.059-.015-.074.008-.02.023-.016.059.008.074Zm4.434 0c.047.04.094.074.14.11.024.015.056.011.071-.016.02-.023.012-.055-.012-.074a3.003 3.003 0 0 1-.132-.102c-.024-.02-.059-.015-.075.008-.02.023-.015.059.008.074Zm-1.387.024c.047-.02.09-.04.133-.063a.052.052 0 0 0 .028-.07.052.052 0 0 0-.07-.027 1.382 1.382 0 0 1-.133.062.052.052 0 0 0-.028.07c.016.028.043.04.07.028Zm-3.949-.422c.043-.02.082-.04.125-.059.024-.012.035-.043.024-.07-.012-.027-.043-.04-.067-.027-.043.02-.082.039-.125.054-.023.012-.039.043-.027.07.012.028.043.044.07.032Zm4.434 0c.043-.02.082-.04.125-.059.027-.012.035-.043.023-.07-.011-.027-.043-.04-.066-.027-.043.02-.082.039-.121.054-.028.012-.043.043-.031.07.011.028.043.044.07.032Zm1.484-.219c.043.023.082.05.125.074.028.016.059.004.074-.023.012-.024.004-.059-.023-.07-.043-.024-.082-.051-.121-.075a.057.057 0 0 0-.074.024.056.056 0 0 0 .02.07Zm-2.941-.027c.062-.012.129-.02.191-.032.028-.007.047-.035.04-.062-.005-.031-.032-.05-.06-.043-.066.012-.128.02-.19.031-.028.008-.048.035-.044.063a.05.05 0 0 0 .063.043Zm-1.227-.172c.051-.008.102-.016.153-.031a.059.059 0 0 0 .035-.07.055.055 0 0 0-.067-.036.689.689 0 0 1-.136.031c-.028.004-.047.032-.043.063.004.027.03.05.058.043Zm.332-.578c.028.027.051.058.078.09.024.02.055.02.075 0 .023-.024.023-.055 0-.079a10.647 10.647 0 0 0-.075-.086.054.054 0 0 0-.074-.003c-.02.023-.023.054-.004.078Zm1.594.07c.063.008.125.02.184.027a.054.054 0 0 0 .062-.047.052.052 0 0 0-.047-.058c-.062-.008-.125-.02-.183-.027-.032-.004-.059.015-.063.046a.052.052 0 0 0 .047.059Zm1.836-.434c-.027.043-.055.082-.082.122-.016.027-.012.058.012.078a.056.056 0 0 0 .074-.016c.027-.04.055-.082.082-.125.016-.023.012-.059-.016-.074a.05.05 0 0 0-.07.015Zm-5.543-.086c.059.028.121.055.184.086.023.012.054 0 .066-.027a.049.049 0 0 0-.023-.07 3.134 3.134 0 0 0-.188-.086.053.053 0 0 0-.07.027c-.012.027.004.059.031.07Zm4.434 0c.058.028.12.055.183.086.024.012.055 0 .07-.027a.053.053 0 0 0-.027-.07c-.062-.032-.125-.059-.187-.086a.053.053 0 0 0-.07.027c-.012.027.003.059.03.07Zm0 0" fill="#f4a2b8" fill-opacity="1" fill-rule="evenodd"/></g><g clip-path="url(#g)"><g clip-path="url(#h)"><g clip-path="url(#29e2322808)"><path d="M60.695 18.11c-.011.093-.039.18-.054.269-.008.039.023.082.066.094.043.011.086-.012.09-.051.016-.094.043-.184.055-.274a.092.092 0 0 0-.07-.093c-.044-.008-.083.015-.087.054Zm2.399 1.578c.07.015.144.03.218.042a.063.063 0 0 0 .083-.054.085.085 0 0 0-.07-.09c-.075-.016-.145-.027-.22-.043-.042-.008-.082.016-.085.059-.004.039.027.078.074.085Zm5.82 3.707c.074.015.145.03.219.043.043.007.082-.016.086-.06.004-.038-.028-.077-.07-.085a5.302 5.302 0 0 0-.22-.043c-.046-.008-.081.016-.085.059-.004.039.027.078.07.086Zm-4.598-3.016c.059-.031.121-.055.184-.078.04-.016.05-.059.031-.098a.085.085 0 0 0-.105-.043c-.067.024-.133.055-.196.082-.039.02-.046.067-.023.102.023.039.07.054.11.035Zm2.918 1.86a1.82 1.82 0 0 1 .184-.079c.039-.015.055-.058.035-.098-.02-.039-.07-.058-.105-.042-.07.023-.133.05-.2.082-.035.02-.046.062-.023.101.023.035.074.05.11.035Zm-1.53-1.41c-.009-.075-.009-.15-.016-.227 0-.04-.04-.075-.083-.079-.043-.003-.078.028-.074.07l.012.227a.088.088 0 0 0 .086.078c.043.004.078-.027.074-.07Zm-2.49-2.071c.04.062.075.125.114.187.024.035.07.051.11.035.035-.02.046-.062.023-.101-.04-.059-.074-.121-.11-.184-.023-.039-.074-.054-.109-.039-.039.02-.05.063-.027.102Zm4.9 3.074c.09.04.179.082.273.121.043.02.086.004.101-.035.012-.04-.011-.082-.054-.098-.09-.039-.18-.082-.27-.125-.043-.015-.086 0-.102.035-.015.04.008.082.051.102Zm-1.505-1.23c.075.035.149.066.223.09.043.015.086-.008.094-.047.011-.04-.016-.082-.059-.094a1.839 1.839 0 0 1-.203-.082c-.043-.016-.086-.004-.102.035-.015.035.004.082.047.098Zm-2.261-1.504c.074 0 .152 0 .226.004.047 0 .078-.032.074-.075-.003-.039-.043-.074-.085-.078-.079 0-.157-.004-.235-.004a.069.069 0 0 0-.07.075.096.096 0 0 0 .09.078Zm-1.18-1.313c-.043.07-.086.137-.133.203-.023.035-.012.082.028.106.035.027.085.02.105-.012.05-.066.094-.137.137-.207.023-.035.008-.082-.028-.105-.039-.024-.09-.016-.109.015Zm-.813-.535.083.191c.015.04.058.067.101.055.04-.008.059-.05.043-.09a2.21 2.21 0 0 0-.082-.203c-.016-.039-.063-.058-.105-.047-.04.012-.055.051-.04.094Zm-.703-.719c.016.059.024.114.043.168.012.04.055.07.094.063.043-.008.07-.043.059-.086a1.92 1.92 0 0 1-.04-.16.095.095 0 0 0-.093-.067.069.069 0 0 0-.063.082Zm5.825 3.707c.011.055.023.114.039.168.011.04.054.067.097.063.043-.008.067-.043.055-.086-.016-.051-.023-.106-.04-.16-.007-.04-.05-.07-.093-.067-.043.004-.07.043-.058.082Zm2.039 1.414c.078.059.152.121.226.184.035.031.082.031.11 0 .027-.031.02-.078-.016-.106l-.223-.187c-.035-.027-.086-.027-.113.004-.023.027-.02.074.016.105Zm-3.118-2.672-.195.07c-.039.012-.055.055-.035.095a.09.09 0 0 0 .105.046l.2-.07c.039-.016.05-.058.03-.098a.085.085 0 0 0-.105-.043Zm-2.902-1.847-.195.07c-.04.012-.055.055-.035.094.02.039.066.058.105.047l.2-.07c.038-.016.05-.06.03-.098a.085.085 0 0 0-.105-.043Zm.676.398a4.3 4.3 0 0 1 .078.192c.016.043.063.066.102.054.043-.007.062-.05.046-.09a10.932 10.932 0 0 1-.082-.203.092.092 0 0 0-.105-.047c-.04.012-.059.051-.04.094Zm1.473.887c-.004.047-.004.094-.004.14 0 .04.039.075.082.083a.07.07 0 0 0 .078-.067v-.137c0-.039-.035-.078-.078-.082a.064.064 0 0 0-.078.063Zm2.918 1.86v.136c0 .043.035.078.078.086.043.004.078-.027.078-.066 0-.047.004-.09.004-.137a.087.087 0 0 0-.078-.082c-.047-.008-.082.02-.082.062Zm0 0" fill="#fdd5d4" fill-opacity="1" fill-rule="evenodd"/></g></g></g><g clip-path="url(#i)"><g clip-path="url(#j)"><g clip-path="url(#k)"><path d="M63.598 19.957c-.012.094-.04.18-.055.27a.091.091 0 0 0 .066.093c.043.012.086-.011.09-.05.016-.094.043-.184.055-.274.004-.043-.027-.082-.07-.094-.043-.007-.082.016-.086.055Zm2.918 1.86c-.012.093-.036.18-.051.269-.008.039.023.082.066.094.043.011.082-.012.09-.051.016-.094.04-.184.055-.277.004-.04-.028-.079-.07-.09-.043-.008-.083.015-.09.054Zm-1.606-1.005c.031.079.07.157.106.235.02.039.066.062.105.047.04-.012.055-.055.04-.094-.04-.074-.071-.152-.106-.227-.016-.043-.063-.066-.102-.054a.07.07 0 0 0-.043.093Zm-3.496-2.28c.059-.032.117-.055.184-.079.035-.015.05-.058.03-.098a.085.085 0 0 0-.105-.043c-.066.024-.132.055-.195.083-.039.02-.047.062-.023.101.023.04.07.055.11.035Zm1.387.448a4.127 4.127 0 0 1-.016-.226c0-.04-.039-.074-.082-.078-.043-.004-.078.027-.074.07l.012.227a.088.088 0 0 0 .086.078c.043.004.074-.028.074-.07Zm5.82 3.707-.012-.226c-.004-.04-.039-.078-.082-.078-.047-.004-.078.027-.078.07.008.074.012.152.016.227a.085.085 0 0 0 .086.078.062.062 0 0 0 .07-.07Zm-4.61-3.082c.067.016.137.028.204.043.043.008.082-.02.086-.058.004-.043-.031-.082-.074-.09-.067-.012-.133-.023-.2-.04-.043-.01-.082.017-.086.056a.088.088 0 0 0 .07.09Zm2.106 1c.04.063.074.125.113.188.024.035.07.05.11.035.035-.02.047-.062.023-.101a2.844 2.844 0 0 1-.11-.184c-.023-.04-.073-.055-.108-.04-.04.02-.051.063-.028.102Zm-3.828-2.48c.094.04.184.086.273.121.043.02.09.004.102-.035.012-.04-.012-.082-.05-.098-.094-.039-.184-.082-.274-.125-.04-.015-.086 0-.102.035-.011.04.008.082.051.102Zm7.238 4.336c.075.035.149.066.227.09.043.012.082-.008.094-.047a.085.085 0 0 0-.063-.094 2.21 2.21 0 0 1-.203-.082c-.039-.02-.086-.004-.102.031a.087.087 0 0 0 .047.102Zm-8.082-5.211c.075-.004.153 0 .227.004.043 0 .078-.031.074-.074-.004-.04-.043-.075-.086-.078-.078 0-.156-.004-.234-.004a.069.069 0 0 0-.07.074.096.096 0 0 0 .09.078Zm5.825 3.703c.074 0 .148.004.226.008.043 0 .074-.031.07-.074-.004-.043-.043-.075-.086-.078-.078 0-.156-.004-.234-.004a.066.066 0 0 0-.066.074c.004.043.043.074.09.074Zm-1.2-1.32c-.043.07-.086.137-.132.203-.024.035-.012.082.027.105.035.028.086.02.105-.011.051-.067.094-.137.14-.207.02-.035.005-.082-.03-.106-.04-.023-.09-.015-.11.016Zm2.922 1.86c-.043.07-.09.136-.137.202a.081.081 0 0 0 .028.106c.039.027.086.02.11-.012.046-.07.093-.14.136-.21.023-.032.008-.079-.031-.102-.04-.024-.086-.02-.106.015Zm-3.734-2.395.082.191a.084.084 0 0 0 .101.055.062.062 0 0 0 .043-.09 2.21 2.21 0 0 0-.082-.203c-.015-.04-.062-.059-.105-.047-.04.012-.055.05-.04.094Zm2.922 1.855c.027.067.054.129.078.195.015.04.062.067.101.055.043-.012.063-.05.047-.09l-.082-.203c-.02-.039-.066-.062-.105-.047-.04.012-.059.051-.04.09Zm-4.485-3.008c.075.063.149.121.223.184.035.031.086.031.113 0 .024-.027.02-.078-.015-.106l-.227-.187c-.035-.027-.086-.027-.11.004-.027.027-.019.074.016.105Zm6.297 3.29c.031.066.055.132.082.195.016.039.063.066.102.054.043-.007.062-.05.047-.09-.028-.066-.055-.136-.086-.203a.085.085 0 0 0-.102-.046c-.043.011-.058.05-.043.09Zm-2.918-1.856c.028.062.055.129.078.191a.088.088 0 0 0 .106.055c.039-.008.058-.05.043-.09l-.082-.2a.09.09 0 0 0-.106-.05c-.039.012-.058.05-.039.094Zm-4.336-2.809v.137c0 .043.035.078.082.086.043.004.078-.027.078-.066v-.137a.087.087 0 0 0-.078-.082.07.07 0 0 0-.082.062ZM65 17.957c.063.082.125.164.184.246.023.035.074.05.109.031.035-.02.043-.066.02-.101a21.12 21.12 0 0 0-.188-.254c-.027-.035-.074-.047-.11-.024-.035.02-.042.067-.015.102Zm0 0" fill="#f4a2b8" fill-opacity="1" fill-rule="evenodd"/></g></g></g><g clip-path="url(#l)"><g clip-path="url(#m)"><g clip-path="url(#n)"><path d="M62.008 18.965c.031.078.066.156.105.234.02.04.067.059.106.047.039-.012.054-.055.039-.094a2.94 2.94 0 0 1-.106-.226c-.015-.043-.062-.067-.101-.055-.043.012-.059.055-.043.094Zm5.82 3.707a6.3 6.3 0 0 0 .11.234.09.09 0 0 0 .105.047c.039-.012.055-.055.035-.094a5.766 5.766 0 0 1-.101-.226.088.088 0 0 0-.106-.055.07.07 0 0 0-.043.094Zm-1.832-1.137c.07.016.145.031.219.043.043.012.082-.015.082-.055a.085.085 0 0 0-.07-.09l-.22-.042c-.042-.008-.081.015-.085.058-.004.04.027.078.074.086Zm-4.887-3.777c.067.015.133.027.203.043.043.008.083-.02.086-.059a.092.092 0 0 0-.074-.09 3.585 3.585 0 0 1-.199-.039c-.043-.011-.082.016-.086.055a.088.088 0 0 0 .07.09Zm5.825 3.707c.066.015.132.027.199.043.047.008.082-.02.086-.059a.085.085 0 0 0-.07-.09c-.067-.011-.133-.027-.2-.039-.043-.011-.082.016-.086.055-.008.04.024.082.07.09Zm2.105 1c.035.062.07.125.11.183.023.04.074.055.109.036.039-.016.047-.059.023-.098a4.536 4.536 0 0 0-.11-.184.09.09 0 0 0-.109-.039c-.035.02-.046.063-.023.102Zm-3.848-2.492c.094.039.184.086.278.12.039.02.086.005.097-.034a.08.08 0 0 0-.05-.098c-.094-.04-.18-.082-.274-.121-.039-.02-.086-.004-.097.031-.016.04.007.082.046.102Zm-1.484-1.22c.074.036.145.067.223.09.043.016.086-.007.093-.046.012-.04-.015-.082-.058-.094a1.839 1.839 0 0 1-.203-.082c-.043-.016-.086-.004-.102.035-.015.035.004.082.047.098Zm.848-.374c.015.058.027.113.043.168.011.039.054.07.097.062.04-.007.067-.043.055-.086a1.92 1.92 0 0 1-.04-.16.093.093 0 0 0-.093-.066.069.069 0 0 0-.062.082Zm2.043 1.414c.074.062.148.121.222.184.035.03.086.03.114 0 .023-.028.02-.079-.016-.106l-.227-.187c-.035-.028-.082-.028-.109.003-.027.028-.02.075.016.106Zm2.718 1.047c-.062.023-.125.047-.191.07-.04.012-.055.055-.04.094.02.039.067.058.106.047.07-.024.137-.047.2-.074.039-.012.054-.055.035-.094-.024-.04-.07-.059-.11-.043Zm-7.218-4.73c.062.081.125.163.183.245.024.036.074.051.11.032.035-.02.043-.067.015-.102a6.001 6.001 0 0 0-.183-.254c-.028-.035-.078-.047-.11-.023-.035.02-.043.066-.015.101Zm5.824 3.706c.062.082.121.164.18.247.027.035.078.05.113.03a.065.065 0 0 0 .015-.1 6 6 0 0 0-.183-.255c-.027-.035-.078-.047-.113-.027-.036.023-.04.07-.012.105Zm0 0" fill="#f4a2b8" fill-opacity="1" fill-rule="evenodd"/></g></g></g><g clip-path="url(#o)"><g clip-path="url(#p)"><g clip-path="url(#q)"><path d="M40.691 17.55c-.015.063-.035.13-.05.196-.008.027.007.055.039.063a.055.055 0 0 0 .062-.043c.016-.067.04-.13.051-.2.008-.027-.012-.054-.043-.058-.027-.008-.055.012-.059.043Zm1.528 1.028c.047.004.097.012.144.02.032.004.059-.016.063-.047a.052.052 0 0 0-.043-.059 2.534 2.534 0 0 0-.149-.02.052.052 0 0 0-.058.044c-.004.03.015.058.043.062Zm3.722 2.402.145.024a.052.052 0 0 0 .059-.047c.007-.027-.012-.055-.043-.059a11.404 11.404 0 0 0-.145-.023.052.052 0 0 0-.059.047.047.047 0 0 0 .043.058Zm-2.933-1.96c.039-.024.082-.047.125-.067.027-.012.039-.043.027-.07-.012-.028-.043-.04-.066-.028a.904.904 0 0 0-.137.07.057.057 0 0 0-.023.075.06.06 0 0 0 .074.02Zm1.863 1.203c.043-.024.086-.043.129-.063a.052.052 0 0 0 .027-.07c-.011-.027-.043-.04-.07-.027a.986.986 0 0 0-.137.07c-.023.012-.035.047-.02.07.016.027.048.035.071.02Zm-.957-.942c.004-.054.004-.11.004-.164a.052.052 0 0 0-.05-.05c-.032 0-.056.023-.056.05 0 .055-.003.11-.003.164 0 .032.023.055.054.055.028 0 .051-.027.051-.055Zm-1.562-1.379c.023.043.043.086.066.13.012.023.047.034.07.019a.054.054 0 0 0 .024-.07c-.024-.044-.043-.086-.067-.13-.011-.027-.043-.035-.07-.023a.057.057 0 0 0-.023.074Zm3.132 1.993c.059.023.118.05.18.074a.05.05 0 0 0 .066-.032c.012-.027 0-.058-.027-.066a2.966 2.966 0 0 1-.176-.078.059.059 0 0 0-.07.031.053.053 0 0 0 .027.07Zm-.945-.817c.047.02.094.04.145.055.027.008.058-.012.066-.04a.054.054 0 0 0-.035-.066.765.765 0 0 1-.133-.047.053.053 0 0 0-.07.028.053.053 0 0 0 .027.07Zm-1.441-.984c.05-.004.101-.004.152-.004.031-.004.055-.027.05-.059a.052.052 0 0 0-.05-.05c-.055.003-.105.003-.16.007a.054.054 0 0 0-.047.059c0 .027.023.05.055.047Zm-.723-.887c-.035.05-.066.102-.102.152-.02.024-.011.055.012.075.024.015.055.007.074-.016.036-.05.07-.102.102-.156.016-.024.012-.059-.016-.075-.023-.015-.054-.007-.07.02Zm-.52-.352c.016.043.032.09.043.137.008.028.04.043.067.035a.059.059 0 0 0 .035-.07c-.016-.047-.027-.094-.047-.14-.008-.028-.039-.04-.066-.032-.028.012-.043.043-.032.07Zm-.433-.484c.004.04.008.078.016.117a.055.055 0 0 0 .062.043.055.055 0 0 0 .043-.062c-.008-.04-.012-.078-.016-.114-.007-.03-.03-.05-.062-.046a.057.057 0 0 0-.043.062Zm3.723 2.406c.003.04.007.078.015.118a.055.055 0 0 0 .063.043.06.06 0 0 0 .043-.067c-.008-.035-.012-.074-.02-.113a.052.052 0 0 0-.059-.043c-.03.008-.05.035-.042.062Zm1.296.926c.047.04.094.082.141.121.023.02.055.02.074-.004.02-.023.02-.058-.004-.074-.047-.043-.093-.086-.14-.125a.054.054 0 0 0-.075.004c-.019.023-.019.059.004.078Zm-1.957-1.781c-.043.02-.09.039-.132.058-.028.012-.043.043-.032.07.012.028.043.04.07.028.044-.02.09-.039.137-.062a.052.052 0 0 0 .028-.07.049.049 0 0 0-.07-.024Zm-1.855-1.2-.133.06c-.027.011-.043.042-.031.07.012.027.043.039.07.027.043-.02.09-.04.137-.063a.052.052 0 0 0 .027-.07.049.049 0 0 0-.07-.023Zm.434.255c.015.046.03.09.042.136.008.028.04.043.067.035.027-.011.043-.039.035-.066-.016-.05-.027-.098-.043-.145a.057.057 0 0 0-.07-.03.054.054 0 0 0-.032.07Zm.945.574-.012.097a.06.06 0 0 0 .05.059c.032 0 .056-.023.056-.05.003-.036.007-.067.011-.098a.056.056 0 0 0-.05-.059c-.028 0-.055.02-.055.05Zm1.863 1.207a.822.822 0 0 1-.008.097c0 .032.02.055.051.055.027.004.055-.02.055-.05.004-.032.008-.063.008-.094.003-.032-.016-.055-.047-.059-.028-.004-.055.02-.059.05Zm0 0" fill="#fdd5d4" fill-opacity="1" fill-rule="evenodd"/></g></g></g><g clip-path="url(#r)"><g clip-path="url(#s)"><g clip-path="url(#t)"><path d="M42.543 18.75c-.012.063-.031.129-.047.195-.008.028.008.055.04.063a.055.055 0 0 0 .062-.043c.015-.067.039-.13.05-.2.004-.027-.011-.054-.043-.058-.027-.008-.054.012-.062.043Zm1.867 1.203c-.012.067-.035.133-.05.195-.005.032.011.059.042.067a.055.055 0 0 0 .063-.043c.015-.067.035-.133.05-.2a.055.055 0 0 0-.042-.062c-.028-.004-.055.016-.063.043Zm-1.027-.648.058.164c.012.027.043.039.07.027a.052.052 0 0 0 .028-.07 2.652 2.652 0 0 1-.055-.156.056.056 0 0 0-.066-.036.06.06 0 0 0-.035.07Zm-2.23-1.485a1.12 1.12 0 0 1 .124-.066.052.052 0 0 0 .028-.07c-.012-.028-.043-.04-.067-.028a.904.904 0 0 0-.136.07.057.057 0 0 0-.024.075.06.06 0 0 0 .074.02Zm.91.262v-.164a.052.052 0 0 0-.051-.05c-.028 0-.055.023-.055.05 0 .055 0 .11-.004.164 0 .031.024.055.055.055.027 0 .05-.028.054-.055Zm3.718 2.406c0-.054.004-.11.004-.164 0-.027-.023-.054-.05-.054a.056.056 0 0 0-.055.054c0 .055-.004.11-.004.164 0 .028.023.051.054.051a.051.051 0 0 0 .051-.05Zm-2.937-2.011c.043.007.09.015.133.02.03.003.058-.017.062-.044a.054.054 0 0 0-.047-.062c-.043-.004-.086-.012-.129-.02-.031-.004-.058.016-.062.043-.004.031.011.059.043.063Zm1.363.625.066.128c.012.024.047.036.07.02a.057.057 0 0 0 .024-.074c-.023-.04-.043-.082-.066-.125-.012-.028-.043-.035-.07-.024a.057.057 0 0 0-.024.075Zm-2.445-1.614c.062.024.12.051.18.078a.059.059 0 0 0 .07-.03.055.055 0 0 0-.032-.071l-.175-.074a.053.053 0 0 0-.07.027.053.053 0 0 0 .027.07Zm4.644 2.797c.047.02.094.04.145.05a.053.053 0 0 0 .066-.034c.008-.028-.008-.059-.035-.067a.765.765 0 0 1-.133-.047.053.053 0 0 0-.07.028.053.053 0 0 0 .027.07Zm-5.164-3.39c.051-.004.102-.004.153-.004a.06.06 0 0 0 .054-.059c-.004-.027-.027-.05-.054-.05-.055.003-.106.003-.157.007-.031.004-.054.027-.05.059 0 .027.023.05.054.047Zm3.723 2.406c.05-.004.101-.004.152-.008.028 0 .051-.023.051-.055 0-.027-.023-.05-.055-.05-.05 0-.101.003-.156.007-.027 0-.05.028-.05.055.003.031.027.055.058.05Zm-.738-.895c-.032.051-.067.102-.098.153-.02.023-.012.054.012.074.023.015.054.008.074-.016.035-.05.07-.101.101-.156.016-.023.012-.059-.015-.074-.024-.016-.055-.008-.074.02Zm1.867 1.203a2.143 2.143 0 0 1-.102.157c-.015.023-.012.054.016.074a.05.05 0 0 0 .07-.016c.04-.05.07-.105.106-.156a.056.056 0 0 0-.016-.074.056.056 0 0 0-.074.015Zm-2.383-1.554c.016.043.031.09.043.136.008.028.039.043.066.036a.059.059 0 0 0 .035-.07c-.015-.048-.027-.095-.046-.141-.008-.028-.04-.04-.067-.032-.027.012-.043.043-.031.07Zm1.867 1.207c.016.043.027.09.043.136a.05.05 0 0 0 .066.032c.028-.008.043-.04.036-.067l-.047-.14a.05.05 0 0 0-.067-.032c-.027.012-.043.043-.03.07Zm-2.86-1.965c.048.039.094.082.141.121.024.02.055.02.075-.004.02-.023.02-.055-.004-.074-.047-.043-.094-.082-.14-.125a.051.051 0 0 0-.075.008.05.05 0 0 0 .004.074Zm4.067 2.086c.016.043.028.09.043.137.008.027.04.043.067.035a.059.059 0 0 0 .035-.07l-.047-.141c-.008-.028-.04-.04-.067-.032-.027.012-.043.043-.03.07Zm-1.867-1.207c.016.047.031.09.043.137.008.027.039.042.066.035.028-.012.043-.04.035-.067-.015-.05-.027-.097-.046-.144-.008-.028-.04-.04-.067-.032-.027.012-.043.043-.031.07Zm-2.766-1.824-.011.097a.06.06 0 0 0 .05.059.06.06 0 0 0 .059-.051c0-.035.004-.066.008-.098a.056.056 0 0 0-.051-.058c-.027 0-.055.02-.055.05Zm1.446.894c.039.055.074.113.109.172a.055.055 0 0 0 .074.016.056.056 0 0 0 .016-.075 2.567 2.567 0 0 0-.11-.172c-.015-.027-.05-.03-.074-.015a.056.056 0 0 0-.015.074Zm0 0" fill="#f4a2b8" fill-opacity="1" fill-rule="evenodd"/></g></g></g><g clip-path="url(#u)"><g clip-path="url(#v)"><g clip-path="url(#w)"><path d="m41.527 18.105.059.165c.012.027.043.039.07.027a.052.052 0 0 0 .028-.07 1.956 1.956 0 0 1-.055-.157c-.012-.027-.04-.043-.066-.035a.06.06 0 0 0-.036.07Zm3.723 2.403c.016.058.04.113.059.168.011.027.039.039.066.027.027-.012.043-.043.031-.07a1.67 1.67 0 0 1-.054-.16c-.012-.028-.04-.04-.07-.032-.028.012-.044.04-.032.067Zm-1.176-.73c.047.003.098.011.145.019.031.004.054-.016.062-.047a.052.052 0 0 0-.047-.059c-.047-.007-.093-.015-.144-.02-.028-.007-.055.017-.059.044-.004.031.016.058.043.062Zm-3.086-2.5c.043.007.09.015.133.019.031.004.059-.016.063-.043a.055.055 0 0 0-.047-.063 1.468 1.468 0 0 1-.13-.02c-.027-.003-.058.017-.062.044-.004.031.016.058.043.062Zm3.723 2.406c.043.007.09.011.133.02.027.003.054-.017.062-.048a.052.052 0 0 0-.047-.058c-.043-.008-.086-.012-.129-.02-.03-.004-.058.016-.062.043a.05.05 0 0 0 .043.063Zm1.363.625c.024.043.043.086.067.128a.05.05 0 0 0 .07.02.057.057 0 0 0 .023-.074c-.023-.04-.043-.082-.066-.125-.012-.028-.043-.035-.07-.024a.057.057 0 0 0-.024.075Zm-2.457-1.622c.063.024.121.051.18.075.027.011.058 0 .07-.028a.058.058 0 0 0-.031-.07c-.059-.023-.117-.05-.176-.074a.053.053 0 0 0-.07.027.053.053 0 0 0 .027.07Zm-.933-.808c.046.02.093.039.144.055a.055.055 0 0 0 .067-.04c.007-.027-.008-.058-.036-.066a.765.765 0 0 1-.132-.047.053.053 0 0 0-.07.028.053.053 0 0 0 .027.07Zm.593-.309c.004.04.008.078.016.117a.055.055 0 0 0 .062.043.055.055 0 0 0 .043-.062c-.007-.04-.011-.078-.015-.113-.008-.032-.035-.051-.063-.047-.027.008-.047.035-.043.062Zm1.297.926.14.121c.024.02.056.02.075-.004.02-.023.02-.054-.004-.074-.047-.043-.094-.082-.14-.125-.024-.02-.055-.016-.075.008a.05.05 0 0 0 .004.074Zm1.778.629c-.047.023-.09.043-.137.059a.052.052 0 0 0-.028.07.05.05 0 0 0 .067.031c.047-.02.094-.039.14-.062.024-.012.04-.043.028-.07a.052.052 0 0 0-.07-.028Zm-4.61-3.078c.04.058.074.113.11.172.015.023.05.031.074.015a.056.056 0 0 0 .015-.074 2.566 2.566 0 0 0-.109-.172c-.016-.027-.05-.031-.074-.015a.056.056 0 0 0-.016.074Zm3.723 2.406c.039.055.074.113.11.168a.052.052 0 0 0 .073.02c.024-.02.032-.051.016-.075-.035-.058-.074-.117-.11-.175a.055.055 0 0 0-.074-.012.056.056 0 0 0-.015.074Zm0 0" fill="#f4a2b8" fill-opacity="1" fill-rule="evenodd"/></g></g></g></svg>