<svg xmlns="http://www.w3.org/2000/svg" xmlns:xlink="http://www.w3.org/1999/xlink" width="120" zoomAndPan="magnify" viewBox="0 0 90 30.000001" height="40" preserveAspectRatio="xMidYMid meet" version="1.0"><defs><clipPath id="0c6282f2f3"><path d="M 46 7 L 88.546875 7 L 88.546875 16 L 46 16 Z M 46 7 " clip-rule="nonzero"/></clipPath><clipPath id="c8a8ab8008"><path d="M 1.453125 9 L 88.546875 9 L 88.546875 29.03125 L 1.453125 29.03125 Z M 1.453125 9 " clip-rule="nonzero"/></clipPath><clipPath id="8d9f33a6da"><path d="M 1.453125 6 L 88.546875 6 L 88.546875 14 L 1.453125 14 Z M 1.453125 6 " clip-rule="nonzero"/></clipPath><clipPath id="2bbba7d372"><path d="M 1.453125 0 L 47 0 L 47 12 L 1.453125 12 Z M 1.453125 0 " clip-rule="nonzero"/></clipPath><clipPath id="d174d132f3"><path d="M 12.839844 22.871094 L 19.371094 22.871094 L 19.371094 25.046875 L 12.839844 25.046875 Z M 12.839844 22.871094 " clip-rule="nonzero"/></clipPath><clipPath id="e9e558058e"><path d="M 12.839844 22.871094 L 19.371094 22.871094 L 19.371094 25 L 12.839844 25 Z M 12.839844 22.871094 " clip-rule="nonzero"/></clipPath><clipPath id="205ac3bbfa"><path d="M 60 16 L 70 16 L 70 24 L 60 24 Z M 60 16 " clip-rule="nonzero"/></clipPath><clipPath id="2433f4a4d3"><path d="M 62.027344 15.890625 L 70.601562 21.34375 L 69.039062 23.792969 L 60.46875 18.339844 Z M 62.027344 15.890625 " clip-rule="nonzero"/></clipPath><clipPath id="29e2322808"><path d="M 62.027344 15.890625 L 70.601562 21.34375 L 69.039062 23.792969 L 60.46875 18.339844 Z M 62.027344 15.890625 " clip-rule="nonzero"/></clipPath><clipPath id="cd8c7a787a"><path d="M 61 16 L 71 16 L 71 23 L 61 23 Z M 61 16 " clip-rule="nonzero"/></clipPath><clipPath id="f45dbcbbf0"><path d="M 62.027344 15.890625 L 70.601562 21.34375 L 69.039062 23.792969 L 60.46875 18.339844 Z M 62.027344 15.890625 " clip-rule="nonzero"/></clipPath><clipPath id="ee697b6188"><path d="M 62.027344 15.890625 L 70.601562 21.34375 L 69.039062 23.792969 L 60.46875 18.339844 Z M 62.027344 15.890625 " clip-rule="nonzero"/></clipPath><clipPath id="b7268ead4f"><path d="M 61 15 L 70 15 L 70 23 L 61 23 Z M 61 15 " clip-rule="nonzero"/></clipPath><clipPath id="70bb713111"><path d="M 62.027344 15.890625 L 70.601562 21.34375 L 69.039062 23.792969 L 60.46875 18.339844 Z M 62.027344 15.890625 " clip-rule="nonzero"/></clipPath><clipPath id="3af4c705f9"><path d="M 62.027344 15.890625 L 70.601562 21.34375 L 69.039062 23.792969 L 60.46875 18.339844 Z M 62.027344 15.890625 " clip-rule="nonzero"/></clipPath><clipPath id="b5b21faa3b"><path d="M 40 16 L 47 16 L 47 22 L 40 22 Z M 40 16 " clip-rule="nonzero"/></clipPath><clipPath id="9347d8f25c"><path d="M 41.703125 15.890625 L 47.191406 19.4375 L 46.007812 21.265625 L 40.523438 17.71875 Z M 41.703125 15.890625 " clip-rule="nonzero"/></clipPath><clipPath id="ef7dd4d7b7"><path d="M 41.703125 15.890625 L 47.191406 19.4375 L 46.007812 21.265625 L 40.523438 17.71875 Z M 41.703125 15.890625 " clip-rule="nonzero"/></clipPath><clipPath id="c480e80b0d"><path d="M 41 16 L 47 16 L 47 21 L 41 21 Z M 41 16 " clip-rule="nonzero"/></clipPath><clipPath id="0ba69bfd5f"><path d="M 41.703125 15.890625 L 47.191406 19.4375 L 46.007812 21.265625 L 40.523438 17.71875 Z M 41.703125 15.890625 " clip-rule="nonzero"/></clipPath><clipPath id="9a8549c903"><path d="M 41.703125 15.890625 L 47.191406 19.4375 L 46.007812 21.265625 L 40.523438 17.71875 Z M 41.703125 15.890625 " clip-rule="nonzero"/></clipPath><clipPath id="9be1ef84a5"><path d="M 40 15 L 47 15 L 47 21 L 40 21 Z M 40 15 " clip-rule="nonzero"/></clipPath><clipPath id="9438a94c3c"><path d="M 41.703125 15.890625 L 47.191406 19.4375 L 46.007812 21.265625 L 40.523438 17.71875 Z M 41.703125 15.890625 " clip-rule="nonzero"/></clipPath><clipPath id="f150b8443f"><path d="M 41.703125 15.890625 L 47.191406 19.4375 L 46.007812 21.265625 L 40.523438 17.71875 Z M 41.703125 15.890625 " clip-rule="nonzero"/></clipPath></defs><g clip-path="url(#0c6282f2f3)"><path fill="#fdd5d4" d="M 46.003906 13.015625 C 46.300781 13.070312 46.597656 13.125 46.894531 13.179688 C 47.824219 13.347656 48.753906 13.511719 49.683594 13.667969 C 50.121094 13.742188 50.558594 13.816406 50.996094 13.882812 C 51.175781 13.914062 51.355469 13.941406 51.535156 13.96875 C 51.773438 14.007812 52.007812 14.042969 52.246094 14.078125 C 52.476562 14.113281 52.710938 14.148438 52.941406 14.179688 C 53.441406 14.253906 53.945312 14.324219 54.449219 14.390625 C 54.714844 14.425781 54.980469 14.460938 55.246094 14.492188 C 55.480469 14.523438 55.714844 14.550781 55.949219 14.578125 C 56.644531 14.660156 57.34375 14.734375 58.042969 14.800781 C 69.742188 15.898438 81.664062 14.503906 92.820312 10.773438 L 92.820312 7.015625 C 92.445312 7.113281 92.070312 7.214844 91.695312 7.304688 C 83.859375 10.078125 74.566406 12.011719 64.445312 12.820312 C 60.984375 13.097656 57.425781 13.242188 53.792969 13.242188 C 51.15625 13.242188 48.554688 13.164062 46.003906 13.015625 Z M 46.003906 13.015625 " fill-opacity="1" fill-rule="nonzero"/></g><g clip-path="url(#c8a8ab8008)"><path fill="#ffffff" d="M -2.96875 11.96875 L -2.96875 29.039062 L 92.820312 29.039062 L 92.820312 10.773438 C 81.664062 14.503906 69.742188 15.898438 58.042969 14.800781 C 57.34375 14.734375 56.644531 14.660156 55.949219 14.578125 C 55.714844 14.550781 55.480469 14.523438 55.246094 14.492188 C 54.980469 14.460938 54.714844 14.425781 54.449219 14.390625 C 53.945312 14.324219 53.441406 14.253906 52.941406 14.179688 C 52.710938 14.148438 52.476562 14.113281 52.246094 14.078125 C 52.007812 14.042969 51.773438 14.007812 51.535156 13.96875 C 51.355469 13.941406 51.175781 13.914062 50.996094 13.882812 C 50.558594 13.816406 50.121094 13.742188 49.683594 13.667969 C 48.753906 13.511719 47.824219 13.347656 46.894531 13.179688 C 46.597656 13.125 46.300781 13.070312 46.003906 13.015625 C 45.996094 13.015625 45.992188 13.011719 45.988281 13.011719 C 45.542969 12.933594 45.101562 12.851562 44.65625 12.765625 C 43.773438 12.601562 42.894531 12.433594 42.011719 12.269531 C 41.703125 12.210938 41.402344 12.15625 41.097656 12.097656 C 41.070312 12.089844 41.042969 12.085938 41.015625 12.082031 C 40.78125 12.035156 40.539062 11.992188 40.304688 11.949219 C 40.082031 11.90625 39.859375 11.863281 39.636719 11.824219 C 39.410156 11.785156 39.1875 11.742188 38.964844 11.699219 C 38.75 11.660156 38.535156 11.625 38.324219 11.585938 C 37.871094 11.503906 37.421875 11.421875 36.96875 11.34375 C 36.757812 11.304688 36.542969 11.269531 36.328125 11.230469 C 35.882812 11.152344 35.4375 11.078125 34.988281 11.003906 C 34.828125 10.976562 34.667969 10.949219 34.511719 10.921875 C 34.457031 10.914062 34.398438 10.90625 34.34375 10.894531 C 34.308594 10.890625 34.277344 10.886719 34.246094 10.878906 C 33.828125 10.8125 33.40625 10.75 32.988281 10.683594 C 32.816406 10.660156 32.644531 10.632812 32.476562 10.605469 C 32.4375 10.601562 32.402344 10.59375 32.363281 10.589844 C 32.121094 10.554688 31.882812 10.519531 31.640625 10.484375 C 31.398438 10.453125 31.160156 10.417969 30.917969 10.386719 C 30.738281 10.359375 30.5625 10.335938 30.382812 10.3125 C 29.726562 10.226562 29.070312 10.148438 28.410156 10.074219 C 26.867188 9.90625 25.324219 9.773438 23.773438 9.683594 C 14.8125 9.148438 5.777344 9.925781 -2.96875 11.96875 Z M -2.96875 11.96875 " fill-opacity="1" fill-rule="nonzero"/></g><g clip-path="url(#8d9f33a6da)"><path fill="#ffeded" d="M 18.820312 6.84375 C 28.074219 5.753906 37.40625 5.976562 46.707031 6.6875 C 49.011719 7.363281 51.332031 7.976562 53.679688 8.453125 C 60.21875 9.773438 66.910156 10.347656 73.570312 10.007812 C 74.839844 9.941406 76.109375 9.84375 77.375 9.714844 C 82.195312 9.210938 87.019531 8.484375 91.695312 7.304688 C 87.226562 8.886719 82.289062 10.195312 76.992188 11.175781 C 72.996094 11.917969 68.800781 12.472656 64.445312 12.820312 C 60.984375 13.097656 57.425781 13.242188 53.792969 13.242188 C 51.15625 13.242188 48.554688 13.164062 46.003906 13.015625 C 45.996094 13.015625 45.992188 13.011719 45.988281 13.011719 C 45.542969 12.933594 45.101562 12.851562 44.65625 12.765625 C 43.773438 12.601562 42.894531 12.433594 42.011719 12.269531 C 41.703125 12.210938 41.402344 12.15625 41.097656 12.097656 C 41.070312 12.089844 41.042969 12.085938 41.015625 12.082031 C 40.78125 12.035156 40.539062 11.992188 40.304688 11.949219 C 40.082031 11.90625 39.859375 11.863281 39.636719 11.824219 C 39.410156 11.785156 39.1875 11.742188 38.964844 11.699219 C 38.75 11.660156 38.535156 11.625 38.324219 11.585938 C 37.214844 11.382812 36.101562 11.183594 34.988281 11.003906 C 34.828125 10.976562 34.667969 10.949219 34.511719 10.921875 C 34.457031 10.914062 34.398438 10.90625 34.34375 10.894531 C 34.308594 10.890625 34.277344 10.886719 34.246094 10.878906 C 33.828125 10.8125 33.40625 10.742188 32.988281 10.683594 C 32.816406 10.660156 32.644531 10.632812 32.476562 10.605469 L 32.476562 10.601562 C 32.4375 10.597656 32.402344 10.59375 32.363281 10.589844 C 32.125 10.554688 31.882812 10.519531 31.640625 10.484375 C 31.222656 10.425781 30.800781 10.367188 30.382812 10.3125 C 29.726562 10.226562 29.070312 10.148438 28.410156 10.074219 C 18.820312 9.019531 9.074219 9.476562 -0.378906 11.40625 C 5.773438 9.078125 12.292969 7.613281 18.820312 6.84375 Z M 18.820312 6.84375 " fill-opacity="1" fill-rule="nonzero"/></g><g clip-path="url(#2bbba7d372)"><path fill="#ffeded" d="M 2.8125 1.03125 C 3.335938 0.96875 3.867188 0.910156 4.390625 0.855469 C 12.789062 0 21.34375 0.300781 29.640625 1.902344 C 33.507812 2.648438 37.289062 3.792969 41.070312 4.964844 C 41.089844 4.972656 41.113281 4.976562 41.132812 4.984375 C 42.988281 5.5625 44.84375 6.140625 46.707031 6.6875 C 37.402344 5.976562 28.074219 5.753906 18.820312 6.84375 C 12.292969 7.613281 5.773438 9.078125 -0.378906 11.40625 C -0.867188 11.503906 -1.351562 11.605469 -1.839844 11.714844 C -2.214844 11.792969 -2.589844 11.878906 -2.96875 11.96875 L -2.96875 1.929688 C -1.050781 1.5625 0.875 1.265625 2.8125 1.03125 Z M 2.8125 1.03125 " fill-opacity="1" fill-rule="nonzero"/></g><g clip-path="url(#d174d132f3)"><path fill="#fdd5d4" d="M 12.886719 24.816406 C 12.910156 24.878906 12.925781 24.941406 12.949219 25.007812 C 12.960938 25.035156 12.988281 25.046875 13.015625 25.039062 C 13.042969 25.027344 13.058594 24.996094 13.046875 24.96875 C 13.023438 24.90625 13.007812 24.839844 12.984375 24.773438 C 12.972656 24.746094 12.941406 24.734375 12.914062 24.746094 C 12.886719 24.753906 12.875 24.789062 12.886719 24.816406 Z M 14.726562 24.847656 C 14.773438 24.828125 14.816406 24.808594 14.863281 24.785156 C 14.886719 24.773438 14.898438 24.742188 14.886719 24.714844 C 14.875 24.6875 14.84375 24.675781 14.820312 24.6875 C 14.773438 24.710938 14.730469 24.730469 14.683594 24.75 C 14.660156 24.761719 14.648438 24.792969 14.660156 24.820312 C 14.671875 24.847656 14.703125 24.859375 14.726562 24.847656 Z M 19.160156 24.847656 C 19.207031 24.828125 19.25 24.808594 19.296875 24.785156 C 19.320312 24.773438 19.332031 24.742188 19.320312 24.714844 C 19.308594 24.6875 19.277344 24.675781 19.253906 24.6875 C 19.207031 24.710938 19.164062 24.730469 19.117188 24.75 C 19.09375 24.761719 19.082031 24.792969 19.09375 24.820312 C 19.105469 24.847656 19.136719 24.859375 19.160156 24.847656 Z M 15.628906 24.789062 C 15.652344 24.75 15.675781 24.707031 15.703125 24.667969 C 15.71875 24.644531 15.710938 24.609375 15.6875 24.59375 C 15.664062 24.578125 15.628906 24.582031 15.613281 24.609375 C 15.585938 24.652344 15.558594 24.695312 15.535156 24.742188 C 15.523438 24.765625 15.53125 24.800781 15.558594 24.8125 C 15.582031 24.828125 15.617188 24.816406 15.628906 24.789062 Z M 17.851562 24.789062 C 17.875 24.75 17.898438 24.707031 17.925781 24.667969 C 17.941406 24.644531 17.933594 24.609375 17.910156 24.59375 C 17.886719 24.578125 17.851562 24.582031 17.835938 24.609375 C 17.808594 24.652344 17.785156 24.695312 17.761719 24.742188 C 17.746094 24.765625 17.757812 24.800781 17.78125 24.8125 C 17.808594 24.828125 17.839844 24.816406 17.851562 24.789062 Z M 16.535156 24.515625 C 16.507812 24.472656 16.480469 24.425781 16.449219 24.378906 C 16.433594 24.355469 16.402344 24.347656 16.378906 24.363281 C 16.355469 24.378906 16.347656 24.410156 16.363281 24.4375 C 16.390625 24.484375 16.417969 24.53125 16.449219 24.574219 C 16.464844 24.601562 16.496094 24.609375 16.519531 24.589844 C 16.546875 24.574219 16.550781 24.542969 16.535156 24.515625 Z M 14.472656 24.207031 C 14.515625 24.230469 14.554688 24.257812 14.597656 24.28125 C 14.625 24.296875 14.65625 24.285156 14.671875 24.257812 C 14.683594 24.234375 14.675781 24.199219 14.648438 24.1875 C 14.605469 24.164062 14.566406 24.136719 14.527344 24.113281 C 14.5 24.101562 14.46875 24.109375 14.453125 24.136719 C 14.441406 24.160156 14.449219 24.191406 14.472656 24.207031 Z M 18.1875 24.179688 C 18.25 24.167969 18.316406 24.160156 18.378906 24.148438 C 18.40625 24.140625 18.425781 24.113281 18.421875 24.085938 C 18.414062 24.054688 18.386719 24.035156 18.359375 24.042969 C 18.296875 24.054688 18.230469 24.0625 18.167969 24.074219 C 18.140625 24.082031 18.121094 24.109375 18.125 24.136719 C 18.132812 24.167969 18.160156 24.1875 18.1875 24.179688 Z M 16.949219 24.007812 C 17 24 17.050781 23.992188 17.101562 23.976562 C 17.128906 23.964844 17.144531 23.9375 17.136719 23.90625 C 17.128906 23.878906 17.097656 23.863281 17.070312 23.871094 C 17.027344 23.886719 16.980469 23.894531 16.933594 23.902344 C 16.90625 23.90625 16.886719 23.933594 16.890625 23.964844 C 16.894531 23.992188 16.921875 24.015625 16.949219 24.007812 Z M 15.203125 23.964844 C 15.246094 23.933594 15.289062 23.90625 15.328125 23.878906 C 15.355469 23.859375 15.359375 23.828125 15.34375 23.800781 C 15.328125 23.777344 15.292969 23.773438 15.269531 23.789062 C 15.226562 23.816406 15.183594 23.847656 15.140625 23.878906 C 15.117188 23.898438 15.113281 23.929688 15.128906 23.953125 C 15.148438 23.976562 15.179688 23.984375 15.203125 23.964844 Z M 14.113281 23.613281 C 14.113281 23.671875 14.113281 23.734375 14.109375 23.796875 C 14.109375 23.824219 14.132812 23.851562 14.160156 23.851562 C 14.191406 23.851562 14.214844 23.828125 14.214844 23.800781 C 14.21875 23.738281 14.21875 23.675781 14.21875 23.613281 C 14.21875 23.582031 14.195312 23.558594 14.164062 23.558594 C 14.136719 23.558594 14.113281 23.582031 14.113281 23.613281 Z M 13.488281 23.597656 C 13.523438 23.628906 13.5625 23.660156 13.597656 23.691406 C 13.621094 23.707031 13.652344 23.707031 13.671875 23.683594 C 13.691406 23.660156 13.6875 23.625 13.664062 23.605469 C 13.628906 23.574219 13.589844 23.542969 13.550781 23.511719 C 13.527344 23.496094 13.496094 23.5 13.476562 23.523438 C 13.460938 23.546875 13.464844 23.582031 13.488281 23.597656 Z M 12.859375 23.429688 C 12.886719 23.457031 12.910156 23.488281 12.9375 23.519531 C 12.960938 23.539062 12.992188 23.539062 13.015625 23.519531 C 13.035156 23.496094 13.035156 23.464844 13.015625 23.441406 C 12.988281 23.414062 12.964844 23.386719 12.9375 23.355469 C 12.917969 23.335938 12.886719 23.332031 12.863281 23.351562 C 12.84375 23.375 12.839844 23.40625 12.859375 23.429688 Z M 17.292969 23.429688 C 17.320312 23.457031 17.34375 23.488281 17.375 23.519531 C 17.394531 23.539062 17.425781 23.539062 17.449219 23.519531 C 17.46875 23.496094 17.46875 23.464844 17.449219 23.441406 C 17.421875 23.414062 17.398438 23.386719 17.371094 23.355469 C 17.351562 23.335938 17.320312 23.332031 17.296875 23.351562 C 17.277344 23.375 17.273438 23.40625 17.292969 23.429688 Z M 18.886719 23.5 C 18.949219 23.507812 19.011719 23.519531 19.074219 23.527344 C 19.101562 23.53125 19.128906 23.511719 19.132812 23.480469 C 19.136719 23.453125 19.117188 23.425781 19.085938 23.421875 C 19.027344 23.414062 18.964844 23.402344 18.902344 23.394531 C 18.871094 23.390625 18.847656 23.410156 18.84375 23.441406 C 18.839844 23.46875 18.859375 23.496094 18.886719 23.5 Z M 16.273438 23.066406 C 16.25 23.109375 16.222656 23.148438 16.195312 23.1875 C 16.175781 23.214844 16.183594 23.246094 16.207031 23.265625 C 16.230469 23.28125 16.265625 23.273438 16.28125 23.25 C 16.308594 23.210938 16.335938 23.167969 16.363281 23.125 C 16.378906 23.101562 16.371094 23.066406 16.347656 23.050781 C 16.324219 23.035156 16.289062 23.042969 16.273438 23.066406 Z M 14.066406 23.066406 C 14.039062 23.109375 14.011719 23.148438 13.984375 23.1875 C 13.96875 23.214844 13.972656 23.246094 13.996094 23.265625 C 14.019531 23.28125 14.054688 23.273438 14.070312 23.25 C 14.097656 23.210938 14.125 23.167969 14.152344 23.125 C 14.167969 23.101562 14.160156 23.066406 14.136719 23.050781 C 14.113281 23.035156 14.082031 23.042969 14.066406 23.066406 Z M 14.566406 23.046875 C 14.605469 23.074219 14.640625 23.105469 14.679688 23.136719 C 14.703125 23.15625 14.734375 23.152344 14.753906 23.128906 C 14.773438 23.105469 14.769531 23.074219 14.746094 23.054688 C 14.707031 23.023438 14.671875 22.992188 14.632812 22.960938 C 14.609375 22.941406 14.574219 22.945312 14.558594 22.972656 C 14.539062 22.996094 14.546875 23.027344 14.566406 23.046875 Z M 15.671875 23.015625 C 15.6875 23.042969 15.703125 23.074219 15.71875 23.101562 C 15.734375 23.128906 15.765625 23.136719 15.792969 23.125 C 15.816406 23.109375 15.824219 23.074219 15.8125 23.050781 C 15.796875 23.023438 15.78125 22.992188 15.765625 22.964844 C 15.75 22.9375 15.71875 22.929688 15.695312 22.941406 C 15.667969 22.957031 15.660156 22.988281 15.671875 23.015625 Z M 17.894531 23.015625 C 17.910156 23.042969 17.925781 23.074219 17.941406 23.101562 C 17.957031 23.128906 17.988281 23.136719 18.015625 23.125 C 18.039062 23.109375 18.050781 23.074219 18.035156 23.050781 C 18.019531 23.023438 18.003906 22.992188 17.988281 22.964844 C 17.976562 22.9375 17.941406 22.929688 17.917969 22.941406 C 17.890625 22.957031 17.882812 22.988281 17.894531 23.015625 Z M 17.894531 23.015625 " fill-opacity="1" fill-rule="evenodd"/><path fill="#f4a2b8" d="M 15.09375 24.816406 C 15.121094 24.878906 15.136719 24.941406 15.160156 25.007812 C 15.167969 25.035156 15.199219 25.046875 15.226562 25.039062 C 15.253906 25.027344 15.269531 24.996094 15.257812 24.96875 C 15.234375 24.90625 15.21875 24.839844 15.191406 24.773438 C 15.183594 24.746094 15.152344 24.734375 15.125 24.746094 C 15.097656 24.753906 15.085938 24.789062 15.09375 24.816406 Z M 17.320312 24.816406 C 17.34375 24.878906 17.359375 24.941406 17.382812 25.007812 C 17.394531 25.035156 17.421875 25.046875 17.449219 25.039062 C 17.476562 25.027344 17.492188 24.996094 17.480469 24.96875 C 17.457031 24.90625 17.441406 24.839844 17.417969 24.773438 C 17.40625 24.746094 17.375 24.734375 17.347656 24.746094 C 17.320312 24.753906 17.308594 24.789062 17.320312 24.816406 Z M 16.101562 24.824219 C 16.144531 24.863281 16.191406 24.898438 16.238281 24.933594 C 16.261719 24.949219 16.296875 24.945312 16.3125 24.917969 C 16.328125 24.894531 16.324219 24.863281 16.300781 24.84375 C 16.253906 24.8125 16.210938 24.777344 16.167969 24.742188 C 16.144531 24.722656 16.109375 24.726562 16.09375 24.75 C 16.074219 24.773438 16.078125 24.808594 16.101562 24.824219 Z M 13.417969 24.789062 C 13.441406 24.75 13.464844 24.707031 13.492188 24.667969 C 13.507812 24.644531 13.5 24.609375 13.476562 24.59375 C 13.453125 24.578125 13.417969 24.582031 13.402344 24.609375 C 13.375 24.652344 13.351562 24.695312 13.328125 24.742188 C 13.3125 24.765625 13.324219 24.800781 13.347656 24.8125 C 13.375 24.828125 13.40625 24.816406 13.417969 24.789062 Z M 14.324219 24.515625 C 14.296875 24.472656 14.269531 24.425781 14.242188 24.378906 C 14.226562 24.355469 14.191406 24.347656 14.167969 24.363281 C 14.144531 24.378906 14.136719 24.410156 14.152344 24.4375 C 14.179688 24.484375 14.207031 24.53125 14.238281 24.574219 C 14.253906 24.601562 14.285156 24.609375 14.308594 24.589844 C 14.335938 24.574219 14.34375 24.542969 14.324219 24.515625 Z M 18.761719 24.515625 C 18.730469 24.472656 18.703125 24.425781 18.675781 24.378906 C 18.660156 24.355469 18.625 24.347656 18.601562 24.363281 C 18.578125 24.378906 18.570312 24.410156 18.585938 24.4375 C 18.613281 24.484375 18.640625 24.53125 18.671875 24.574219 C 18.6875 24.601562 18.71875 24.609375 18.746094 24.589844 C 18.769531 24.574219 18.777344 24.542969 18.761719 24.515625 Z M 15.199219 24.425781 C 15.238281 24.40625 15.28125 24.386719 15.324219 24.367188 C 15.347656 24.355469 15.359375 24.324219 15.347656 24.296875 C 15.335938 24.269531 15.304688 24.257812 15.277344 24.269531 C 15.238281 24.289062 15.199219 24.308594 15.15625 24.324219 C 15.128906 24.335938 15.117188 24.367188 15.128906 24.394531 C 15.140625 24.421875 15.171875 24.4375 15.199219 24.425781 Z M 16.683594 24.207031 C 16.726562 24.230469 16.765625 24.257812 16.808594 24.28125 C 16.835938 24.296875 16.867188 24.285156 16.878906 24.257812 C 16.894531 24.234375 16.882812 24.199219 16.859375 24.1875 C 16.816406 24.164062 16.777344 24.136719 16.734375 24.113281 C 16.710938 24.101562 16.679688 24.109375 16.664062 24.136719 C 16.648438 24.160156 16.660156 24.191406 16.683594 24.207031 Z M 13.753906 24.179688 C 13.816406 24.167969 13.882812 24.160156 13.945312 24.148438 C 13.972656 24.140625 13.992188 24.113281 13.988281 24.085938 C 13.980469 24.054688 13.953125 24.035156 13.925781 24.042969 C 13.863281 24.054688 13.796875 24.0625 13.734375 24.074219 C 13.707031 24.082031 13.6875 24.109375 13.691406 24.136719 C 13.699219 24.167969 13.726562 24.1875 13.753906 24.179688 Z M 19.171875 24.007812 C 19.222656 24 19.273438 23.992188 19.324219 23.976562 C 19.351562 23.964844 19.367188 23.9375 19.359375 23.90625 C 19.351562 23.878906 19.320312 23.863281 19.292969 23.871094 C 19.25 23.886719 19.203125 23.894531 19.15625 23.902344 C 19.128906 23.90625 19.109375 23.933594 19.113281 23.964844 C 19.117188 23.992188 19.144531 24.015625 19.171875 24.007812 Z M 12.992188 23.964844 C 13.035156 23.933594 13.078125 23.90625 13.121094 23.878906 C 13.144531 23.859375 13.148438 23.828125 13.132812 23.800781 C 13.117188 23.777344 13.085938 23.773438 13.058594 23.789062 C 13.015625 23.816406 12.972656 23.847656 12.933594 23.878906 C 12.910156 23.898438 12.902344 23.929688 12.921875 23.953125 C 12.9375 23.976562 12.96875 23.984375 12.992188 23.964844 Z M 17.429688 23.964844 C 17.46875 23.933594 17.511719 23.90625 17.554688 23.878906 C 17.578125 23.859375 17.582031 23.828125 17.566406 23.800781 C 17.550781 23.777344 17.519531 23.773438 17.492188 23.789062 C 17.449219 23.816406 17.40625 23.847656 17.367188 23.878906 C 17.34375 23.898438 17.335938 23.929688 17.355469 23.953125 C 17.371094 23.976562 17.40625 23.984375 17.429688 23.964844 Z M 16.324219 23.613281 C 16.324219 23.671875 16.324219 23.734375 16.320312 23.796875 C 16.320312 23.824219 16.34375 23.851562 16.371094 23.851562 C 16.402344 23.851562 16.425781 23.828125 16.425781 23.800781 C 16.429688 23.738281 16.429688 23.675781 16.429688 23.613281 C 16.429688 23.582031 16.40625 23.558594 16.375 23.558594 C 16.347656 23.558594 16.324219 23.582031 16.324219 23.613281 Z M 18.546875 23.613281 C 18.546875 23.671875 18.546875 23.734375 18.542969 23.796875 C 18.542969 23.824219 18.566406 23.851562 18.59375 23.851562 C 18.625 23.851562 18.648438 23.828125 18.648438 23.800781 C 18.652344 23.738281 18.652344 23.675781 18.652344 23.613281 C 18.652344 23.582031 18.628906 23.558594 18.597656 23.558594 C 18.570312 23.558594 18.546875 23.582031 18.546875 23.613281 Z M 15.699219 23.597656 C 15.734375 23.628906 15.773438 23.660156 15.808594 23.691406 C 15.832031 23.707031 15.863281 23.707031 15.882812 23.683594 C 15.902344 23.660156 15.898438 23.625 15.875 23.605469 C 15.839844 23.574219 15.800781 23.542969 15.761719 23.511719 C 15.738281 23.496094 15.703125 23.5 15.6875 23.523438 C 15.671875 23.546875 15.675781 23.582031 15.699219 23.597656 Z M 17.921875 23.597656 C 17.960938 23.628906 17.996094 23.660156 18.03125 23.691406 C 18.054688 23.707031 18.085938 23.707031 18.105469 23.683594 C 18.125 23.660156 18.121094 23.625 18.097656 23.605469 C 18.0625 23.574219 18.023438 23.542969 17.984375 23.511719 C 17.960938 23.496094 17.929688 23.5 17.910156 23.523438 C 17.894531 23.546875 17.898438 23.582031 17.921875 23.597656 Z M 14.453125 23.5 C 14.515625 23.507812 14.578125 23.519531 14.640625 23.527344 C 14.667969 23.53125 14.695312 23.511719 14.699219 23.480469 C 14.703125 23.453125 14.683594 23.425781 14.652344 23.421875 C 14.59375 23.414062 14.53125 23.402344 14.46875 23.394531 C 14.4375 23.390625 14.414062 23.410156 14.410156 23.441406 C 14.40625 23.46875 14.425781 23.496094 14.453125 23.5 Z M 19 23.046875 C 19.039062 23.074219 19.078125 23.105469 19.113281 23.136719 C 19.136719 23.15625 19.167969 23.152344 19.1875 23.128906 C 19.207031 23.105469 19.203125 23.074219 19.179688 23.054688 C 19.140625 23.023438 19.105469 22.992188 19.066406 22.960938 C 19.042969 22.941406 19.007812 22.945312 18.992188 22.972656 C 18.972656 22.996094 18.980469 23.027344 19 23.046875 Z M 16.777344 23.046875 C 16.816406 23.074219 16.851562 23.105469 16.890625 23.136719 C 16.910156 23.15625 16.945312 23.152344 16.964844 23.128906 C 16.980469 23.105469 16.980469 23.074219 16.957031 23.054688 C 16.917969 23.023438 16.882812 22.992188 16.84375 22.960938 C 16.820312 22.941406 16.785156 22.945312 16.769531 22.972656 C 16.75 22.996094 16.753906 23.027344 16.777344 23.046875 Z M 13.460938 23.015625 C 13.476562 23.042969 13.492188 23.074219 13.507812 23.101562 C 13.523438 23.128906 13.554688 23.136719 13.582031 23.125 C 13.605469 23.109375 13.613281 23.074219 13.601562 23.050781 C 13.585938 23.023438 13.570312 22.992188 13.554688 22.964844 C 13.542969 22.9375 13.507812 22.929688 13.484375 22.941406 C 13.457031 22.957031 13.449219 22.988281 13.460938 23.015625 Z M 15.164062 22.980469 C 15.226562 23.007812 15.289062 23.035156 15.347656 23.066406 C 15.375 23.078125 15.40625 23.066406 15.417969 23.039062 C 15.429688 23.011719 15.421875 22.980469 15.394531 22.96875 C 15.332031 22.9375 15.269531 22.910156 15.207031 22.882812 C 15.179688 22.871094 15.148438 22.882812 15.136719 22.910156 C 15.125 22.9375 15.136719 22.96875 15.164062 22.980469 Z M 15.164062 22.980469 " fill-opacity="1" fill-rule="evenodd"/></g><g clip-path="url(#e9e558058e)"><path fill="#f4a2b8" d="M 13.890625 24.824219 C 13.9375 24.863281 13.984375 24.898438 14.03125 24.933594 C 14.054688 24.949219 14.085938 24.945312 14.101562 24.917969 C 14.121094 24.894531 14.113281 24.863281 14.089844 24.84375 C 14.046875 24.8125 14 24.777344 13.957031 24.742188 C 13.933594 24.722656 13.898438 24.726562 13.882812 24.75 C 13.863281 24.773438 13.867188 24.808594 13.890625 24.824219 Z M 18.324219 24.824219 C 18.371094 24.863281 18.417969 24.898438 18.464844 24.933594 C 18.488281 24.949219 18.519531 24.945312 18.535156 24.917969 C 18.554688 24.894531 18.546875 24.863281 18.523438 24.84375 C 18.480469 24.8125 18.433594 24.777344 18.390625 24.742188 C 18.367188 24.722656 18.332031 24.726562 18.316406 24.75 C 18.296875 24.773438 18.300781 24.808594 18.324219 24.824219 Z M 16.9375 24.847656 C 16.984375 24.828125 17.027344 24.808594 17.070312 24.785156 C 17.097656 24.773438 17.109375 24.742188 17.097656 24.714844 C 17.085938 24.6875 17.054688 24.675781 17.027344 24.6875 C 16.984375 24.710938 16.941406 24.730469 16.894531 24.75 C 16.867188 24.761719 16.855469 24.792969 16.867188 24.820312 C 16.882812 24.847656 16.910156 24.859375 16.9375 24.847656 Z M 12.988281 24.425781 C 13.03125 24.40625 13.070312 24.386719 13.113281 24.367188 C 13.136719 24.355469 13.148438 24.324219 13.136719 24.296875 C 13.125 24.269531 13.09375 24.257812 13.070312 24.269531 C 13.027344 24.289062 12.988281 24.308594 12.945312 24.324219 C 12.921875 24.335938 12.90625 24.367188 12.917969 24.394531 C 12.929688 24.421875 12.960938 24.4375 12.988281 24.425781 Z M 17.421875 24.425781 C 17.464844 24.40625 17.503906 24.386719 17.546875 24.367188 C 17.574219 24.355469 17.582031 24.324219 17.570312 24.296875 C 17.558594 24.269531 17.527344 24.257812 17.503906 24.269531 C 17.460938 24.289062 17.421875 24.308594 17.382812 24.324219 C 17.355469 24.335938 17.339844 24.367188 17.351562 24.394531 C 17.363281 24.421875 17.394531 24.4375 17.421875 24.425781 Z M 18.90625 24.207031 C 18.949219 24.230469 18.988281 24.257812 19.03125 24.28125 C 19.058594 24.296875 19.089844 24.285156 19.105469 24.257812 C 19.117188 24.234375 19.109375 24.199219 19.082031 24.1875 C 19.039062 24.164062 19 24.136719 18.960938 24.113281 C 18.933594 24.101562 18.902344 24.109375 18.886719 24.136719 C 18.875 24.160156 18.882812 24.191406 18.90625 24.207031 Z M 15.964844 24.179688 C 16.027344 24.167969 16.09375 24.160156 16.15625 24.148438 C 16.183594 24.140625 16.203125 24.113281 16.195312 24.085938 C 16.191406 24.054688 16.164062 24.035156 16.136719 24.042969 C 16.070312 24.054688 16.007812 24.0625 15.945312 24.074219 C 15.917969 24.082031 15.898438 24.109375 15.902344 24.136719 C 15.90625 24.167969 15.933594 24.1875 15.964844 24.179688 Z M 14.738281 24.007812 C 14.789062 24 14.839844 23.992188 14.890625 23.976562 C 14.917969 23.964844 14.933594 23.9375 14.925781 23.90625 C 14.917969 23.878906 14.886719 23.863281 14.859375 23.871094 C 14.816406 23.886719 14.769531 23.894531 14.722656 23.902344 C 14.695312 23.90625 14.675781 23.933594 14.679688 23.964844 C 14.683594 23.992188 14.710938 24.015625 14.738281 24.007812 Z M 15.070312 23.429688 C 15.097656 23.457031 15.121094 23.488281 15.148438 23.519531 C 15.171875 23.539062 15.203125 23.539062 15.222656 23.519531 C 15.246094 23.496094 15.246094 23.464844 15.222656 23.441406 C 15.199219 23.414062 15.175781 23.386719 15.148438 23.355469 C 15.128906 23.335938 15.097656 23.332031 15.074219 23.351562 C 15.054688 23.375 15.050781 23.40625 15.070312 23.429688 Z M 16.664062 23.5 C 16.726562 23.507812 16.789062 23.519531 16.847656 23.527344 C 16.878906 23.53125 16.90625 23.511719 16.910156 23.480469 C 16.914062 23.453125 16.894531 23.425781 16.863281 23.421875 C 16.800781 23.414062 16.738281 23.402344 16.679688 23.394531 C 16.648438 23.390625 16.621094 23.410156 16.617188 23.441406 C 16.613281 23.46875 16.632812 23.496094 16.664062 23.5 Z M 18.5 23.066406 C 18.472656 23.109375 18.445312 23.148438 18.417969 23.1875 C 18.402344 23.214844 18.40625 23.246094 18.429688 23.265625 C 18.453125 23.28125 18.488281 23.273438 18.503906 23.25 C 18.53125 23.210938 18.558594 23.167969 18.585938 23.125 C 18.601562 23.101562 18.597656 23.066406 18.570312 23.050781 C 18.546875 23.035156 18.515625 23.042969 18.5 23.066406 Z M 12.957031 22.980469 C 13.015625 23.007812 13.078125 23.035156 13.140625 23.066406 C 13.164062 23.078125 13.195312 23.066406 13.207031 23.039062 C 13.222656 23.011719 13.210938 22.980469 13.183594 22.96875 C 13.121094 22.9375 13.058594 22.910156 12.996094 22.882812 C 12.96875 22.871094 12.9375 22.882812 12.925781 22.910156 C 12.914062 22.9375 12.929688 22.96875 12.957031 22.980469 Z M 17.390625 22.980469 C 17.449219 23.007812 17.511719 23.035156 17.574219 23.066406 C 17.597656 23.078125 17.628906 23.066406 17.644531 23.039062 C 17.65625 23.011719 17.644531 22.980469 17.617188 22.96875 C 17.554688 22.9375 17.492188 22.910156 17.429688 22.882812 C 17.402344 22.871094 17.371094 22.882812 17.359375 22.910156 C 17.347656 22.9375 17.363281 22.96875 17.390625 22.980469 Z M 17.390625 22.980469 " fill-opacity="1" fill-rule="evenodd"/></g><g clip-path="url(#205ac3bbfa)"><g clip-path="url(#2433f4a4d3)"><g clip-path="url(#29e2322808)"><path fill="#fdd5d4" d="M 60.695312 18.109375 C 60.683594 18.203125 60.65625 18.289062 60.640625 18.378906 C 60.632812 18.417969 60.664062 18.460938 60.707031 18.472656 C 60.75 18.484375 60.792969 18.460938 60.796875 18.421875 C 60.8125 18.328125 60.839844 18.238281 60.851562 18.148438 C 60.855469 18.105469 60.824219 18.066406 60.78125 18.054688 C 60.738281 18.046875 60.699219 18.070312 60.695312 18.109375 Z M 63.09375 19.6875 C 63.164062 19.703125 63.238281 19.71875 63.3125 19.730469 C 63.355469 19.742188 63.390625 19.714844 63.394531 19.675781 C 63.398438 19.632812 63.367188 19.59375 63.324219 19.585938 C 63.25 19.570312 63.179688 19.558594 63.105469 19.542969 C 63.0625 19.535156 63.023438 19.558594 63.019531 19.601562 C 63.015625 19.640625 63.046875 19.679688 63.09375 19.6875 Z M 68.914062 23.394531 C 68.988281 23.410156 69.058594 23.425781 69.132812 23.4375 C 69.175781 23.445312 69.214844 23.421875 69.21875 23.378906 C 69.222656 23.339844 69.191406 23.300781 69.148438 23.292969 C 69.074219 23.277344 69 23.261719 68.929688 23.25 C 68.882812 23.242188 68.847656 23.265625 68.84375 23.308594 C 68.839844 23.347656 68.871094 23.386719 68.914062 23.394531 Z M 64.316406 20.378906 C 64.375 20.347656 64.4375 20.324219 64.5 20.300781 C 64.539062 20.285156 64.550781 20.242188 64.53125 20.203125 C 64.511719 20.164062 64.464844 20.144531 64.425781 20.160156 C 64.359375 20.183594 64.292969 20.214844 64.230469 20.242188 C 64.191406 20.261719 64.183594 20.308594 64.207031 20.34375 C 64.230469 20.382812 64.277344 20.398438 64.316406 20.378906 Z M 67.234375 22.238281 C 67.296875 22.207031 67.355469 22.183594 67.417969 22.160156 C 67.457031 22.144531 67.472656 22.101562 67.453125 22.0625 C 67.433594 22.023438 67.382812 22.003906 67.347656 22.019531 C 67.277344 22.042969 67.214844 22.070312 67.148438 22.101562 C 67.113281 22.121094 67.101562 22.164062 67.125 22.203125 C 67.148438 22.238281 67.199219 22.253906 67.234375 22.238281 Z M 65.703125 20.828125 C 65.695312 20.753906 65.695312 20.679688 65.6875 20.601562 C 65.6875 20.5625 65.648438 20.527344 65.605469 20.523438 C 65.5625 20.519531 65.527344 20.550781 65.53125 20.59375 C 65.535156 20.667969 65.539062 20.746094 65.542969 20.820312 C 65.546875 20.863281 65.585938 20.898438 65.628906 20.898438 C 65.671875 20.902344 65.707031 20.871094 65.703125 20.828125 Z M 63.214844 18.757812 C 63.253906 18.820312 63.289062 18.882812 63.328125 18.945312 C 63.351562 18.980469 63.398438 18.996094 63.4375 18.980469 C 63.472656 18.960938 63.484375 18.917969 63.460938 18.878906 C 63.421875 18.820312 63.386719 18.757812 63.351562 18.695312 C 63.328125 18.65625 63.277344 18.640625 63.242188 18.65625 C 63.203125 18.675781 63.191406 18.71875 63.214844 18.757812 Z M 68.113281 21.832031 C 68.203125 21.871094 68.292969 21.914062 68.386719 21.953125 C 68.429688 21.972656 68.472656 21.957031 68.488281 21.917969 C 68.5 21.878906 68.476562 21.835938 68.433594 21.820312 C 68.34375 21.78125 68.253906 21.738281 68.164062 21.695312 C 68.121094 21.679688 68.078125 21.695312 68.0625 21.730469 C 68.046875 21.769531 68.070312 21.8125 68.113281 21.832031 Z M 66.609375 20.601562 C 66.683594 20.636719 66.757812 20.667969 66.832031 20.691406 C 66.875 20.707031 66.917969 20.683594 66.925781 20.644531 C 66.9375 20.605469 66.910156 20.5625 66.867188 20.550781 C 66.796875 20.527344 66.730469 20.5 66.664062 20.46875 C 66.621094 20.453125 66.578125 20.464844 66.5625 20.503906 C 66.546875 20.539062 66.566406 20.585938 66.609375 20.601562 Z M 64.347656 19.097656 C 64.421875 19.097656 64.5 19.097656 64.574219 19.101562 C 64.621094 19.101562 64.652344 19.070312 64.648438 19.027344 C 64.644531 18.988281 64.605469 18.953125 64.5625 18.949219 C 64.484375 18.949219 64.40625 18.945312 64.328125 18.945312 C 64.285156 18.945312 64.253906 18.980469 64.257812 19.019531 C 64.265625 19.0625 64.304688 19.097656 64.347656 19.097656 Z M 63.167969 17.785156 C 63.125 17.855469 63.082031 17.921875 63.035156 17.988281 C 63.011719 18.023438 63.023438 18.070312 63.0625 18.09375 C 63.097656 18.121094 63.148438 18.113281 63.167969 18.082031 C 63.21875 18.015625 63.261719 17.945312 63.304688 17.875 C 63.328125 17.839844 63.3125 17.792969 63.277344 17.769531 C 63.238281 17.746094 63.1875 17.753906 63.167969 17.785156 Z M 62.355469 17.25 C 62.382812 17.3125 62.410156 17.378906 62.4375 17.441406 C 62.453125 17.480469 62.496094 17.507812 62.539062 17.496094 C 62.578125 17.488281 62.597656 17.445312 62.582031 17.40625 C 62.558594 17.339844 62.53125 17.269531 62.5 17.203125 C 62.484375 17.164062 62.4375 17.144531 62.394531 17.15625 C 62.355469 17.167969 62.339844 17.207031 62.355469 17.25 Z M 61.652344 16.53125 C 61.667969 16.589844 61.675781 16.644531 61.695312 16.699219 C 61.707031 16.738281 61.75 16.769531 61.789062 16.761719 C 61.832031 16.753906 61.859375 16.71875 61.847656 16.675781 C 61.832031 16.625 61.820312 16.570312 61.808594 16.515625 C 61.796875 16.476562 61.753906 16.445312 61.714844 16.449219 C 61.671875 16.453125 61.644531 16.492188 61.652344 16.53125 Z M 67.476562 20.238281 C 67.488281 20.292969 67.5 20.351562 67.515625 20.40625 C 67.527344 20.445312 67.570312 20.472656 67.613281 20.46875 C 67.65625 20.460938 67.679688 20.425781 67.667969 20.382812 C 67.652344 20.332031 67.644531 20.277344 67.628906 20.222656 C 67.621094 20.183594 67.578125 20.152344 67.535156 20.15625 C 67.492188 20.160156 67.464844 20.199219 67.476562 20.238281 Z M 69.515625 21.652344 C 69.59375 21.710938 69.667969 21.773438 69.742188 21.835938 C 69.777344 21.867188 69.824219 21.867188 69.851562 21.835938 C 69.878906 21.804688 69.871094 21.757812 69.835938 21.730469 C 69.761719 21.667969 69.6875 21.605469 69.613281 21.542969 C 69.578125 21.515625 69.527344 21.515625 69.5 21.546875 C 69.476562 21.574219 69.480469 21.621094 69.515625 21.652344 Z M 66.398438 18.980469 C 66.332031 19.003906 66.269531 19.027344 66.203125 19.050781 C 66.164062 19.0625 66.148438 19.105469 66.167969 19.144531 C 66.1875 19.183594 66.234375 19.203125 66.273438 19.191406 C 66.339844 19.167969 66.40625 19.144531 66.472656 19.121094 C 66.511719 19.105469 66.523438 19.0625 66.503906 19.023438 C 66.484375 18.984375 66.4375 18.964844 66.398438 18.980469 Z M 63.496094 17.132812 C 63.429688 17.15625 63.367188 17.179688 63.300781 17.203125 C 63.261719 17.214844 63.246094 17.257812 63.265625 17.296875 C 63.285156 17.335938 63.332031 17.355469 63.371094 17.34375 C 63.4375 17.320312 63.503906 17.296875 63.570312 17.273438 C 63.609375 17.257812 63.621094 17.214844 63.601562 17.175781 C 63.582031 17.136719 63.535156 17.117188 63.496094 17.132812 Z M 64.171875 17.53125 C 64.199219 17.59375 64.226562 17.660156 64.25 17.722656 C 64.265625 17.765625 64.3125 17.789062 64.351562 17.777344 C 64.394531 17.769531 64.414062 17.726562 64.398438 17.6875 C 64.371094 17.621094 64.34375 17.554688 64.316406 17.484375 C 64.296875 17.445312 64.25 17.425781 64.210938 17.4375 C 64.171875 17.449219 64.152344 17.488281 64.171875 17.53125 Z M 65.644531 18.417969 C 65.640625 18.464844 65.640625 18.511719 65.640625 18.558594 C 65.640625 18.597656 65.679688 18.632812 65.722656 18.640625 C 65.765625 18.644531 65.800781 18.613281 65.800781 18.574219 C 65.800781 18.527344 65.800781 18.484375 65.800781 18.4375 C 65.800781 18.398438 65.765625 18.359375 65.722656 18.355469 C 65.679688 18.347656 65.644531 18.378906 65.644531 18.417969 Z M 68.5625 20.277344 C 68.5625 20.324219 68.5625 20.371094 68.5625 20.414062 C 68.5625 20.457031 68.597656 20.492188 68.640625 20.5 C 68.683594 20.503906 68.71875 20.472656 68.71875 20.433594 C 68.71875 20.386719 68.722656 20.34375 68.722656 20.296875 C 68.722656 20.257812 68.6875 20.21875 68.644531 20.214844 C 68.597656 20.207031 68.5625 20.234375 68.5625 20.277344 Z M 68.5625 20.277344 " fill-opacity="1" fill-rule="evenodd"/></g></g></g><g clip-path="url(#cd8c7a787a)"><g clip-path="url(#f45dbcbbf0)"><g clip-path="url(#ee697b6188)"><path fill="#f4a2b8" d="M 63.597656 19.957031 C 63.585938 20.050781 63.558594 20.136719 63.542969 20.226562 C 63.539062 20.265625 63.566406 20.308594 63.609375 20.320312 C 63.652344 20.332031 63.695312 20.308594 63.699219 20.269531 C 63.714844 20.175781 63.742188 20.085938 63.753906 19.996094 C 63.757812 19.953125 63.726562 19.914062 63.683594 19.902344 C 63.640625 19.894531 63.601562 19.917969 63.597656 19.957031 Z M 66.515625 21.816406 C 66.503906 21.910156 66.480469 21.996094 66.464844 22.085938 C 66.457031 22.125 66.488281 22.167969 66.53125 22.179688 C 66.574219 22.191406 66.613281 22.167969 66.621094 22.128906 C 66.636719 22.035156 66.660156 21.945312 66.675781 21.851562 C 66.679688 21.8125 66.648438 21.773438 66.605469 21.761719 C 66.5625 21.753906 66.523438 21.777344 66.515625 21.816406 Z M 64.910156 20.8125 C 64.941406 20.890625 64.980469 20.96875 65.015625 21.046875 C 65.035156 21.085938 65.082031 21.109375 65.121094 21.09375 C 65.160156 21.082031 65.175781 21.039062 65.160156 21 C 65.121094 20.925781 65.089844 20.847656 65.054688 20.773438 C 65.039062 20.730469 64.992188 20.707031 64.953125 20.71875 C 64.914062 20.730469 64.894531 20.773438 64.910156 20.8125 Z M 61.414062 18.53125 C 61.472656 18.5 61.53125 18.476562 61.597656 18.453125 C 61.632812 18.4375 61.648438 18.394531 61.628906 18.355469 C 61.609375 18.316406 61.5625 18.296875 61.523438 18.3125 C 61.457031 18.335938 61.390625 18.367188 61.328125 18.394531 C 61.289062 18.414062 61.28125 18.457031 61.304688 18.496094 C 61.328125 18.535156 61.375 18.550781 61.414062 18.53125 Z M 62.800781 18.980469 C 62.792969 18.90625 62.789062 18.832031 62.785156 18.753906 C 62.785156 18.714844 62.746094 18.679688 62.703125 18.675781 C 62.660156 18.671875 62.625 18.703125 62.628906 18.746094 C 62.632812 18.820312 62.636719 18.898438 62.640625 18.972656 C 62.644531 19.015625 62.683594 19.050781 62.726562 19.050781 C 62.769531 19.054688 62.800781 19.023438 62.800781 18.980469 Z M 68.621094 22.6875 C 68.617188 22.613281 68.613281 22.535156 68.609375 22.460938 C 68.605469 22.421875 68.570312 22.382812 68.527344 22.382812 C 68.480469 22.378906 68.449219 22.410156 68.449219 22.453125 C 68.457031 22.527344 68.460938 22.605469 68.464844 22.679688 C 68.46875 22.722656 68.503906 22.757812 68.550781 22.757812 C 68.59375 22.761719 68.625 22.730469 68.621094 22.6875 Z M 64.011719 19.605469 C 64.078125 19.621094 64.148438 19.632812 64.214844 19.648438 C 64.257812 19.65625 64.296875 19.628906 64.300781 19.589844 C 64.304688 19.546875 64.269531 19.507812 64.226562 19.5 C 64.160156 19.488281 64.09375 19.476562 64.027344 19.460938 C 63.984375 19.449219 63.945312 19.476562 63.941406 19.515625 C 63.9375 19.554688 63.96875 19.597656 64.011719 19.605469 Z M 66.117188 20.605469 C 66.15625 20.667969 66.191406 20.730469 66.230469 20.792969 C 66.253906 20.828125 66.300781 20.84375 66.339844 20.828125 C 66.375 20.808594 66.386719 20.765625 66.363281 20.726562 C 66.324219 20.667969 66.289062 20.605469 66.253906 20.542969 C 66.230469 20.503906 66.179688 20.488281 66.144531 20.503906 C 66.105469 20.523438 66.09375 20.566406 66.117188 20.605469 Z M 62.289062 18.125 C 62.382812 18.164062 62.472656 18.210938 62.5625 18.246094 C 62.605469 18.265625 62.652344 18.25 62.664062 18.210938 C 62.675781 18.171875 62.652344 18.128906 62.613281 18.113281 C 62.519531 18.074219 62.429688 18.03125 62.339844 17.988281 C 62.300781 17.972656 62.253906 17.988281 62.238281 18.023438 C 62.226562 18.0625 62.246094 18.105469 62.289062 18.125 Z M 69.527344 22.460938 C 69.601562 22.496094 69.675781 22.527344 69.753906 22.550781 C 69.796875 22.5625 69.835938 22.542969 69.847656 22.503906 C 69.855469 22.464844 69.828125 22.421875 69.785156 22.410156 C 69.71875 22.386719 69.648438 22.359375 69.582031 22.328125 C 69.542969 22.308594 69.496094 22.324219 69.480469 22.359375 C 69.46875 22.398438 69.488281 22.441406 69.527344 22.460938 Z M 61.445312 17.25 C 61.519531 17.246094 61.597656 17.25 61.671875 17.253906 C 61.714844 17.253906 61.75 17.222656 61.746094 17.179688 C 61.742188 17.140625 61.703125 17.105469 61.660156 17.101562 C 61.582031 17.101562 61.503906 17.097656 61.425781 17.097656 C 61.382812 17.097656 61.351562 17.132812 61.355469 17.171875 C 61.363281 17.214844 61.402344 17.25 61.445312 17.25 Z M 67.269531 20.953125 C 67.34375 20.953125 67.417969 20.957031 67.496094 20.960938 C 67.539062 20.960938 67.570312 20.929688 67.566406 20.886719 C 67.5625 20.84375 67.523438 20.8125 67.480469 20.808594 C 67.402344 20.808594 67.324219 20.804688 67.246094 20.804688 C 67.203125 20.804688 67.175781 20.839844 67.179688 20.878906 C 67.183594 20.921875 67.222656 20.953125 67.269531 20.953125 Z M 66.070312 19.632812 C 66.027344 19.703125 65.984375 19.769531 65.9375 19.835938 C 65.914062 19.871094 65.925781 19.917969 65.964844 19.941406 C 66 19.96875 66.050781 19.960938 66.070312 19.929688 C 66.121094 19.863281 66.164062 19.792969 66.210938 19.722656 C 66.230469 19.6875 66.214844 19.640625 66.179688 19.617188 C 66.140625 19.59375 66.089844 19.601562 66.070312 19.632812 Z M 68.992188 21.492188 C 68.949219 21.5625 68.902344 21.628906 68.855469 21.695312 C 68.835938 21.730469 68.847656 21.777344 68.882812 21.800781 C 68.921875 21.828125 68.96875 21.820312 68.992188 21.789062 C 69.039062 21.71875 69.085938 21.648438 69.128906 21.578125 C 69.152344 21.546875 69.136719 21.5 69.097656 21.476562 C 69.058594 21.453125 69.011719 21.457031 68.992188 21.492188 Z M 65.257812 19.097656 C 65.285156 19.160156 65.3125 19.226562 65.339844 19.289062 C 65.355469 19.332031 65.398438 19.355469 65.441406 19.34375 C 65.480469 19.335938 65.503906 19.292969 65.484375 19.253906 C 65.460938 19.1875 65.433594 19.117188 65.402344 19.050781 C 65.386719 19.011719 65.339844 18.992188 65.296875 19.003906 C 65.257812 19.015625 65.242188 19.054688 65.257812 19.097656 Z M 68.179688 20.953125 C 68.207031 21.019531 68.234375 21.082031 68.257812 21.148438 C 68.273438 21.1875 68.320312 21.214844 68.359375 21.203125 C 68.402344 21.191406 68.421875 21.152344 68.40625 21.113281 C 68.378906 21.046875 68.351562 20.976562 68.324219 20.910156 C 68.304688 20.871094 68.257812 20.847656 68.21875 20.863281 C 68.179688 20.875 68.160156 20.914062 68.179688 20.953125 Z M 63.695312 17.945312 C 63.769531 18.007812 63.84375 18.066406 63.917969 18.128906 C 63.953125 18.160156 64.003906 18.160156 64.03125 18.128906 C 64.054688 18.101562 64.050781 18.050781 64.015625 18.023438 C 63.941406 17.960938 63.863281 17.898438 63.789062 17.835938 C 63.753906 17.808594 63.703125 17.808594 63.679688 17.839844 C 63.652344 17.867188 63.660156 17.914062 63.695312 17.945312 Z M 69.992188 21.234375 C 70.023438 21.300781 70.046875 21.367188 70.074219 21.429688 C 70.089844 21.46875 70.136719 21.496094 70.175781 21.484375 C 70.21875 21.476562 70.238281 21.433594 70.222656 21.394531 C 70.195312 21.328125 70.167969 21.257812 70.136719 21.191406 C 70.121094 21.152344 70.074219 21.132812 70.035156 21.144531 C 69.992188 21.15625 69.976562 21.195312 69.992188 21.234375 Z M 67.074219 19.378906 C 67.101562 19.441406 67.128906 19.507812 67.152344 19.570312 C 67.167969 19.613281 67.214844 19.636719 67.257812 19.625 C 67.296875 19.617188 67.316406 19.574219 67.300781 19.535156 C 67.273438 19.46875 67.246094 19.402344 67.21875 19.335938 C 67.199219 19.292969 67.152344 19.273438 67.113281 19.285156 C 67.074219 19.296875 67.054688 19.335938 67.074219 19.378906 Z M 62.738281 16.570312 C 62.738281 16.617188 62.738281 16.664062 62.738281 16.707031 C 62.738281 16.75 62.773438 16.785156 62.820312 16.792969 C 62.863281 16.796875 62.898438 16.765625 62.898438 16.726562 C 62.898438 16.679688 62.898438 16.636719 62.898438 16.589844 C 62.898438 16.550781 62.863281 16.511719 62.820312 16.507812 C 62.777344 16.5 62.742188 16.53125 62.738281 16.570312 Z M 65 17.957031 C 65.0625 18.039062 65.125 18.121094 65.183594 18.203125 C 65.207031 18.238281 65.257812 18.253906 65.292969 18.234375 C 65.328125 18.214844 65.335938 18.167969 65.3125 18.132812 C 65.25 18.046875 65.1875 17.960938 65.125 17.878906 C 65.097656 17.84375 65.050781 17.832031 65.015625 17.855469 C 64.980469 17.875 64.972656 17.921875 65 17.957031 Z M 65 17.957031 " fill-opacity="1" fill-rule="evenodd"/></g></g></g><g clip-path="url(#b7268ead4f)"><g clip-path="url(#70bb713111)"><g clip-path="url(#3af4c705f9)"><path fill="#f4a2b8" d="M 62.007812 18.964844 C 62.039062 19.042969 62.074219 19.121094 62.113281 19.199219 C 62.132812 19.238281 62.179688 19.257812 62.21875 19.246094 C 62.257812 19.234375 62.273438 19.191406 62.257812 19.152344 C 62.21875 19.078125 62.183594 19 62.152344 18.925781 C 62.136719 18.882812 62.089844 18.859375 62.050781 18.871094 C 62.007812 18.882812 61.992188 18.925781 62.007812 18.964844 Z M 67.828125 22.671875 C 67.863281 22.75 67.898438 22.828125 67.9375 22.90625 C 67.957031 22.945312 68.003906 22.964844 68.042969 22.953125 C 68.082031 22.941406 68.097656 22.898438 68.078125 22.859375 C 68.042969 22.785156 68.007812 22.707031 67.976562 22.632812 C 67.960938 22.589844 67.914062 22.566406 67.871094 22.578125 C 67.832031 22.589844 67.8125 22.632812 67.828125 22.671875 Z M 65.996094 21.535156 C 66.066406 21.550781 66.140625 21.566406 66.214844 21.578125 C 66.257812 21.589844 66.296875 21.5625 66.296875 21.523438 C 66.300781 21.480469 66.269531 21.441406 66.226562 21.433594 C 66.152344 21.417969 66.082031 21.40625 66.007812 21.390625 C 65.964844 21.382812 65.925781 21.40625 65.921875 21.449219 C 65.917969 21.488281 65.949219 21.527344 65.996094 21.535156 Z M 61.109375 17.757812 C 61.175781 17.773438 61.242188 17.785156 61.3125 17.800781 C 61.355469 17.808594 61.394531 17.78125 61.398438 17.742188 C 61.398438 17.699219 61.367188 17.660156 61.324219 17.652344 C 61.257812 17.640625 61.191406 17.628906 61.125 17.613281 C 61.082031 17.601562 61.042969 17.628906 61.039062 17.667969 C 61.035156 17.707031 61.066406 17.75 61.109375 17.757812 Z M 66.933594 21.464844 C 67 21.480469 67.066406 21.492188 67.132812 21.507812 C 67.179688 21.515625 67.214844 21.488281 67.21875 21.449219 C 67.222656 21.40625 67.191406 21.367188 67.148438 21.359375 C 67.082031 21.347656 67.015625 21.332031 66.949219 21.320312 C 66.90625 21.308594 66.867188 21.335938 66.863281 21.375 C 66.855469 21.414062 66.886719 21.457031 66.933594 21.464844 Z M 69.039062 22.464844 C 69.074219 22.527344 69.109375 22.589844 69.148438 22.648438 C 69.171875 22.6875 69.222656 22.703125 69.257812 22.683594 C 69.296875 22.667969 69.304688 22.625 69.28125 22.585938 C 69.246094 22.523438 69.210938 22.464844 69.171875 22.402344 C 69.148438 22.363281 69.101562 22.347656 69.0625 22.363281 C 69.027344 22.382812 69.015625 22.425781 69.039062 22.464844 Z M 65.191406 19.972656 C 65.285156 20.011719 65.375 20.058594 65.46875 20.09375 C 65.507812 20.113281 65.554688 20.097656 65.566406 20.058594 C 65.578125 20.019531 65.558594 19.976562 65.515625 19.960938 C 65.421875 19.921875 65.335938 19.878906 65.242188 19.839844 C 65.203125 19.820312 65.15625 19.835938 65.144531 19.871094 C 65.128906 19.910156 65.152344 19.953125 65.191406 19.972656 Z M 63.707031 18.753906 C 63.78125 18.789062 63.851562 18.820312 63.929688 18.84375 C 63.972656 18.859375 64.015625 18.835938 64.023438 18.796875 C 64.035156 18.757812 64.007812 18.714844 63.964844 18.703125 C 63.894531 18.679688 63.828125 18.652344 63.761719 18.621094 C 63.71875 18.605469 63.675781 18.617188 63.660156 18.65625 C 63.644531 18.691406 63.664062 18.738281 63.707031 18.753906 Z M 64.554688 18.378906 C 64.570312 18.4375 64.582031 18.492188 64.597656 18.546875 C 64.609375 18.585938 64.652344 18.617188 64.695312 18.609375 C 64.734375 18.601562 64.761719 18.566406 64.75 18.523438 C 64.734375 18.472656 64.722656 18.417969 64.710938 18.363281 C 64.699219 18.324219 64.65625 18.292969 64.617188 18.296875 C 64.574219 18.300781 64.546875 18.339844 64.554688 18.378906 Z M 66.597656 19.792969 C 66.671875 19.855469 66.746094 19.914062 66.820312 19.976562 C 66.855469 20.007812 66.90625 20.007812 66.933594 19.976562 C 66.957031 19.949219 66.953125 19.898438 66.917969 19.871094 C 66.84375 19.808594 66.765625 19.746094 66.691406 19.683594 C 66.65625 19.65625 66.609375 19.65625 66.582031 19.6875 C 66.554688 19.714844 66.5625 19.761719 66.597656 19.792969 Z M 69.316406 20.839844 C 69.253906 20.863281 69.191406 20.886719 69.125 20.910156 C 69.085938 20.921875 69.070312 20.964844 69.085938 21.003906 C 69.105469 21.042969 69.152344 21.0625 69.191406 21.050781 C 69.261719 21.027344 69.328125 21.003906 69.390625 20.976562 C 69.429688 20.964844 69.445312 20.921875 69.425781 20.882812 C 69.402344 20.84375 69.355469 20.824219 69.316406 20.839844 Z M 62.097656 16.109375 C 62.160156 16.191406 62.222656 16.273438 62.28125 16.355469 C 62.304688 16.390625 62.355469 16.40625 62.390625 16.386719 C 62.425781 16.367188 62.433594 16.320312 62.40625 16.285156 C 62.347656 16.199219 62.285156 16.113281 62.222656 16.03125 C 62.195312 15.996094 62.144531 15.984375 62.113281 16.007812 C 62.078125 16.027344 62.070312 16.074219 62.097656 16.109375 Z M 67.921875 19.816406 C 67.984375 19.898438 68.042969 19.980469 68.101562 20.0625 C 68.128906 20.097656 68.179688 20.113281 68.214844 20.09375 C 68.25 20.070312 68.257812 20.027344 68.230469 19.992188 C 68.171875 19.90625 68.109375 19.820312 68.046875 19.738281 C 68.019531 19.703125 67.96875 19.691406 67.933594 19.710938 C 67.898438 19.734375 67.894531 19.78125 67.921875 19.816406 Z M 67.921875 19.816406 " fill-opacity="1" fill-rule="evenodd"/></g></g></g><g clip-path="url(#b5b21faa3b)"><g clip-path="url(#9347d8f25c)"><g clip-path="url(#ef7dd4d7b7)"><path fill="#fdd5d4" d="M 40.691406 17.550781 C 40.675781 17.613281 40.65625 17.679688 40.640625 17.746094 C 40.632812 17.773438 40.648438 17.800781 40.679688 17.808594 C 40.707031 17.8125 40.734375 17.796875 40.742188 17.765625 C 40.757812 17.699219 40.78125 17.636719 40.792969 17.566406 C 40.800781 17.539062 40.78125 17.511719 40.75 17.507812 C 40.722656 17.5 40.695312 17.519531 40.691406 17.550781 Z M 42.21875 18.578125 C 42.265625 18.582031 42.316406 18.589844 42.363281 18.597656 C 42.394531 18.601562 42.421875 18.582031 42.425781 18.550781 C 42.429688 18.523438 42.410156 18.496094 42.382812 18.492188 C 42.332031 18.484375 42.285156 18.476562 42.234375 18.472656 C 42.207031 18.46875 42.179688 18.488281 42.175781 18.515625 C 42.171875 18.546875 42.191406 18.574219 42.21875 18.578125 Z M 45.941406 20.980469 C 45.988281 20.988281 46.039062 20.996094 46.085938 21.003906 C 46.113281 21.007812 46.140625 20.988281 46.144531 20.957031 C 46.152344 20.929688 46.132812 20.902344 46.101562 20.898438 C 46.054688 20.890625 46.007812 20.882812 45.957031 20.875 C 45.929688 20.871094 45.902344 20.890625 45.898438 20.921875 C 45.890625 20.949219 45.910156 20.976562 45.941406 20.980469 Z M 43.007812 19.019531 C 43.046875 18.996094 43.089844 18.972656 43.132812 18.953125 C 43.160156 18.941406 43.171875 18.910156 43.160156 18.882812 C 43.148438 18.855469 43.117188 18.84375 43.09375 18.855469 C 43.046875 18.875 43 18.898438 42.957031 18.925781 C 42.929688 18.941406 42.921875 18.972656 42.933594 19 C 42.949219 19.023438 42.980469 19.03125 43.007812 19.019531 Z M 44.871094 20.222656 C 44.914062 20.199219 44.957031 20.179688 45 20.160156 C 45.027344 20.148438 45.039062 20.117188 45.027344 20.089844 C 45.015625 20.0625 44.984375 20.050781 44.957031 20.0625 C 44.910156 20.082031 44.867188 20.105469 44.820312 20.132812 C 44.796875 20.144531 44.785156 20.179688 44.800781 20.203125 C 44.816406 20.230469 44.847656 20.238281 44.871094 20.222656 Z M 43.914062 19.28125 C 43.917969 19.226562 43.917969 19.171875 43.917969 19.117188 C 43.917969 19.089844 43.894531 19.066406 43.867188 19.066406 C 43.835938 19.066406 43.8125 19.089844 43.8125 19.117188 C 43.8125 19.171875 43.808594 19.226562 43.808594 19.28125 C 43.808594 19.3125 43.832031 19.335938 43.863281 19.335938 C 43.890625 19.335938 43.914062 19.308594 43.914062 19.28125 Z M 42.351562 17.902344 C 42.375 17.945312 42.394531 17.988281 42.417969 18.03125 C 42.429688 18.054688 42.464844 18.066406 42.488281 18.050781 C 42.515625 18.035156 42.523438 18.003906 42.511719 17.980469 C 42.488281 17.9375 42.46875 17.894531 42.445312 17.851562 C 42.433594 17.824219 42.402344 17.816406 42.375 17.828125 C 42.347656 17.84375 42.339844 17.875 42.351562 17.902344 Z M 45.484375 19.894531 C 45.542969 19.917969 45.601562 19.945312 45.664062 19.96875 C 45.691406 19.980469 45.722656 19.964844 45.730469 19.9375 C 45.742188 19.910156 45.730469 19.878906 45.703125 19.871094 C 45.644531 19.847656 45.585938 19.820312 45.527344 19.792969 C 45.5 19.785156 45.46875 19.796875 45.457031 19.824219 C 45.445312 19.851562 45.457031 19.882812 45.484375 19.894531 Z M 44.539062 19.078125 C 44.585938 19.097656 44.632812 19.117188 44.683594 19.132812 C 44.710938 19.140625 44.742188 19.121094 44.75 19.09375 C 44.757812 19.066406 44.742188 19.035156 44.714844 19.027344 C 44.667969 19.015625 44.625 19 44.582031 18.980469 C 44.554688 18.96875 44.523438 18.980469 44.511719 19.007812 C 44.5 19.035156 44.511719 19.066406 44.539062 19.078125 Z M 43.097656 18.09375 C 43.148438 18.089844 43.199219 18.089844 43.25 18.089844 C 43.28125 18.085938 43.304688 18.0625 43.300781 18.03125 C 43.300781 18.003906 43.277344 17.980469 43.25 17.980469 C 43.195312 17.984375 43.144531 17.984375 43.089844 17.988281 C 43.0625 17.992188 43.039062 18.015625 43.042969 18.046875 C 43.042969 18.074219 43.066406 18.097656 43.097656 18.09375 Z M 42.375 17.207031 C 42.339844 17.257812 42.308594 17.308594 42.273438 17.359375 C 42.253906 17.382812 42.261719 17.414062 42.285156 17.433594 C 42.308594 17.449219 42.339844 17.441406 42.359375 17.417969 C 42.394531 17.367188 42.429688 17.316406 42.460938 17.261719 C 42.476562 17.238281 42.472656 17.203125 42.445312 17.1875 C 42.421875 17.171875 42.390625 17.179688 42.375 17.207031 Z M 41.855469 16.855469 C 41.871094 16.898438 41.886719 16.945312 41.898438 16.992188 C 41.90625 17.019531 41.9375 17.035156 41.964844 17.027344 C 41.992188 17.015625 42.007812 16.988281 42 16.957031 C 41.984375 16.910156 41.972656 16.863281 41.953125 16.816406 C 41.945312 16.789062 41.914062 16.777344 41.886719 16.785156 C 41.859375 16.796875 41.84375 16.828125 41.855469 16.855469 Z M 41.421875 16.371094 C 41.425781 16.410156 41.429688 16.449219 41.4375 16.488281 C 41.445312 16.519531 41.472656 16.535156 41.5 16.53125 C 41.53125 16.523438 41.546875 16.496094 41.542969 16.46875 C 41.535156 16.429688 41.53125 16.390625 41.527344 16.355469 C 41.519531 16.324219 41.496094 16.304688 41.464844 16.308594 C 41.4375 16.316406 41.417969 16.34375 41.421875 16.371094 Z M 45.144531 18.777344 C 45.148438 18.816406 45.152344 18.855469 45.160156 18.894531 C 45.167969 18.925781 45.195312 18.941406 45.222656 18.9375 C 45.25 18.929688 45.269531 18.902344 45.265625 18.871094 C 45.257812 18.835938 45.253906 18.796875 45.246094 18.757812 C 45.242188 18.730469 45.214844 18.710938 45.1875 18.714844 C 45.15625 18.722656 45.136719 18.75 45.144531 18.777344 Z M 46.441406 19.703125 C 46.488281 19.742188 46.535156 19.785156 46.582031 19.824219 C 46.605469 19.84375 46.636719 19.84375 46.65625 19.820312 C 46.675781 19.796875 46.675781 19.761719 46.652344 19.746094 C 46.605469 19.703125 46.558594 19.660156 46.511719 19.621094 C 46.488281 19.601562 46.457031 19.605469 46.4375 19.625 C 46.417969 19.648438 46.417969 19.683594 46.441406 19.703125 Z M 44.484375 17.921875 C 44.441406 17.941406 44.394531 17.960938 44.351562 17.980469 C 44.324219 17.992188 44.308594 18.023438 44.320312 18.050781 C 44.332031 18.078125 44.363281 18.089844 44.390625 18.078125 C 44.433594 18.058594 44.480469 18.039062 44.527344 18.015625 C 44.554688 18.003906 44.566406 17.972656 44.554688 17.945312 C 44.542969 17.917969 44.511719 17.90625 44.484375 17.921875 Z M 42.628906 16.722656 C 42.585938 16.742188 42.539062 16.761719 42.496094 16.78125 C 42.46875 16.792969 42.453125 16.824219 42.464844 16.851562 C 42.476562 16.878906 42.507812 16.890625 42.535156 16.878906 C 42.578125 16.859375 42.625 16.839844 42.671875 16.816406 C 42.699219 16.804688 42.710938 16.773438 42.699219 16.746094 C 42.6875 16.71875 42.65625 16.707031 42.628906 16.722656 Z M 43.0625 16.976562 C 43.078125 17.023438 43.09375 17.066406 43.105469 17.113281 C 43.113281 17.140625 43.144531 17.15625 43.171875 17.148438 C 43.199219 17.136719 43.214844 17.109375 43.207031 17.082031 C 43.191406 17.03125 43.179688 16.984375 43.164062 16.9375 C 43.152344 16.910156 43.121094 16.898438 43.09375 16.90625 C 43.066406 16.917969 43.050781 16.949219 43.0625 16.976562 Z M 44.007812 17.550781 C 44.003906 17.582031 44 17.617188 43.996094 17.648438 C 43.996094 17.679688 44.019531 17.703125 44.046875 17.707031 C 44.078125 17.707031 44.101562 17.683594 44.101562 17.65625 C 44.105469 17.621094 44.109375 17.589844 44.113281 17.558594 C 44.113281 17.527344 44.09375 17.503906 44.0625 17.5 C 44.035156 17.5 44.007812 17.519531 44.007812 17.550781 Z M 45.871094 18.757812 C 45.871094 18.789062 45.867188 18.824219 45.863281 18.855469 C 45.863281 18.886719 45.882812 18.910156 45.914062 18.910156 C 45.941406 18.914062 45.96875 18.890625 45.96875 18.859375 C 45.972656 18.828125 45.976562 18.796875 45.976562 18.765625 C 45.980469 18.734375 45.960938 18.710938 45.929688 18.707031 C 45.902344 18.703125 45.875 18.726562 45.871094 18.757812 Z M 45.871094 18.757812 " fill-opacity="1" fill-rule="evenodd"/></g></g></g><g clip-path="url(#c480e80b0d)"><g clip-path="url(#0ba69bfd5f)"><g clip-path="url(#9a8549c903)"><path fill="#f4a2b8" d="M 42.542969 18.75 C 42.53125 18.8125 42.511719 18.878906 42.496094 18.945312 C 42.488281 18.972656 42.503906 19 42.535156 19.007812 C 42.5625 19.011719 42.589844 18.996094 42.597656 18.964844 C 42.613281 18.898438 42.636719 18.835938 42.648438 18.765625 C 42.652344 18.738281 42.636719 18.710938 42.605469 18.707031 C 42.578125 18.699219 42.550781 18.71875 42.542969 18.75 Z M 44.410156 19.953125 C 44.398438 20.019531 44.375 20.085938 44.359375 20.148438 C 44.355469 20.179688 44.371094 20.207031 44.402344 20.214844 C 44.429688 20.21875 44.457031 20.203125 44.464844 20.171875 C 44.480469 20.105469 44.5 20.039062 44.515625 19.972656 C 44.519531 19.945312 44.503906 19.917969 44.472656 19.910156 C 44.445312 19.90625 44.417969 19.925781 44.410156 19.953125 Z M 43.382812 19.304688 C 43.402344 19.359375 43.421875 19.414062 43.441406 19.46875 C 43.453125 19.496094 43.484375 19.507812 43.511719 19.496094 C 43.539062 19.484375 43.550781 19.453125 43.539062 19.425781 C 43.519531 19.375 43.5 19.320312 43.484375 19.269531 C 43.472656 19.242188 43.445312 19.226562 43.417969 19.234375 C 43.390625 19.246094 43.375 19.277344 43.382812 19.304688 Z M 41.152344 17.820312 C 41.191406 17.796875 41.234375 17.773438 41.277344 17.753906 C 41.304688 17.742188 41.316406 17.710938 41.304688 17.683594 C 41.292969 17.65625 41.261719 17.644531 41.238281 17.65625 C 41.191406 17.675781 41.144531 17.699219 41.101562 17.726562 C 41.074219 17.742188 41.066406 17.773438 41.078125 17.800781 C 41.09375 17.824219 41.125 17.832031 41.152344 17.820312 Z M 42.0625 18.082031 C 42.0625 18.027344 42.0625 17.972656 42.0625 17.917969 C 42.0625 17.890625 42.039062 17.867188 42.011719 17.867188 C 41.984375 17.867188 41.957031 17.890625 41.957031 17.917969 C 41.957031 17.972656 41.957031 18.027344 41.953125 18.082031 C 41.953125 18.113281 41.976562 18.136719 42.007812 18.136719 C 42.035156 18.136719 42.058594 18.109375 42.0625 18.082031 Z M 45.78125 20.488281 C 45.78125 20.433594 45.785156 20.378906 45.785156 20.324219 C 45.785156 20.296875 45.761719 20.269531 45.734375 20.269531 C 45.703125 20.269531 45.679688 20.296875 45.679688 20.324219 C 45.679688 20.378906 45.675781 20.433594 45.675781 20.488281 C 45.675781 20.515625 45.699219 20.539062 45.730469 20.539062 C 45.757812 20.539062 45.78125 20.515625 45.78125 20.488281 Z M 42.84375 18.476562 C 42.886719 18.484375 42.933594 18.492188 42.976562 18.496094 C 43.007812 18.5 43.035156 18.480469 43.039062 18.453125 C 43.042969 18.421875 43.023438 18.394531 42.992188 18.390625 C 42.949219 18.386719 42.90625 18.378906 42.863281 18.371094 C 42.832031 18.367188 42.804688 18.386719 42.800781 18.414062 C 42.796875 18.445312 42.8125 18.472656 42.84375 18.476562 Z M 44.207031 19.101562 C 44.230469 19.144531 44.25 19.1875 44.273438 19.230469 C 44.285156 19.253906 44.320312 19.265625 44.34375 19.25 C 44.371094 19.234375 44.378906 19.203125 44.367188 19.175781 C 44.34375 19.136719 44.324219 19.09375 44.300781 19.050781 C 44.289062 19.023438 44.257812 19.015625 44.230469 19.027344 C 44.203125 19.042969 44.195312 19.074219 44.207031 19.101562 Z M 41.761719 17.488281 C 41.824219 17.511719 41.882812 17.539062 41.941406 17.566406 C 41.96875 17.574219 42 17.5625 42.011719 17.535156 C 42.023438 17.507812 42.007812 17.476562 41.980469 17.464844 C 41.921875 17.441406 41.863281 17.414062 41.804688 17.390625 C 41.777344 17.378906 41.746094 17.390625 41.734375 17.417969 C 41.722656 17.445312 41.734375 17.476562 41.761719 17.488281 Z M 46.40625 20.285156 C 46.453125 20.304688 46.5 20.324219 46.550781 20.335938 C 46.578125 20.34375 46.609375 20.328125 46.617188 20.300781 C 46.625 20.273438 46.609375 20.242188 46.582031 20.234375 C 46.535156 20.222656 46.492188 20.207031 46.449219 20.1875 C 46.421875 20.175781 46.390625 20.1875 46.378906 20.214844 C 46.367188 20.242188 46.378906 20.273438 46.40625 20.285156 Z M 41.242188 16.894531 C 41.292969 16.890625 41.34375 16.890625 41.394531 16.890625 C 41.425781 16.886719 41.449219 16.863281 41.449219 16.832031 C 41.445312 16.804688 41.421875 16.78125 41.394531 16.78125 C 41.339844 16.785156 41.289062 16.785156 41.238281 16.789062 C 41.207031 16.792969 41.183594 16.816406 41.1875 16.847656 C 41.1875 16.875 41.210938 16.898438 41.242188 16.894531 Z M 44.964844 19.300781 C 45.015625 19.296875 45.066406 19.296875 45.117188 19.292969 C 45.144531 19.292969 45.167969 19.269531 45.167969 19.238281 C 45.167969 19.210938 45.144531 19.1875 45.113281 19.1875 C 45.0625 19.1875 45.011719 19.191406 44.957031 19.195312 C 44.929688 19.195312 44.90625 19.222656 44.90625 19.25 C 44.910156 19.28125 44.933594 19.304688 44.964844 19.300781 Z M 44.226562 18.40625 C 44.195312 18.457031 44.160156 18.507812 44.128906 18.558594 C 44.109375 18.582031 44.117188 18.613281 44.140625 18.632812 C 44.164062 18.648438 44.195312 18.640625 44.214844 18.617188 C 44.25 18.566406 44.285156 18.515625 44.316406 18.460938 C 44.332031 18.4375 44.328125 18.402344 44.300781 18.386719 C 44.277344 18.371094 44.246094 18.378906 44.226562 18.40625 Z M 46.09375 19.609375 C 46.0625 19.664062 46.027344 19.714844 45.992188 19.765625 C 45.976562 19.789062 45.980469 19.820312 46.007812 19.839844 C 46.03125 19.855469 46.0625 19.847656 46.078125 19.824219 C 46.117188 19.773438 46.148438 19.71875 46.183594 19.667969 C 46.199219 19.644531 46.191406 19.609375 46.167969 19.59375 C 46.144531 19.578125 46.109375 19.585938 46.09375 19.609375 Z M 43.710938 18.054688 C 43.726562 18.097656 43.742188 18.144531 43.753906 18.191406 C 43.761719 18.21875 43.792969 18.234375 43.820312 18.226562 C 43.847656 18.214844 43.863281 18.1875 43.855469 18.15625 C 43.839844 18.109375 43.828125 18.0625 43.808594 18.015625 C 43.800781 17.988281 43.769531 17.976562 43.742188 17.984375 C 43.714844 17.996094 43.699219 18.027344 43.710938 18.054688 Z M 45.578125 19.261719 C 45.59375 19.304688 45.605469 19.351562 45.621094 19.398438 C 45.628906 19.425781 45.660156 19.441406 45.6875 19.429688 C 45.714844 19.421875 45.730469 19.390625 45.722656 19.363281 C 45.707031 19.316406 45.691406 19.269531 45.675781 19.222656 C 45.667969 19.195312 45.636719 19.179688 45.609375 19.191406 C 45.582031 19.203125 45.566406 19.234375 45.578125 19.261719 Z M 42.71875 17.296875 C 42.765625 17.335938 42.8125 17.378906 42.859375 17.417969 C 42.882812 17.4375 42.914062 17.4375 42.933594 17.414062 C 42.953125 17.390625 42.953125 17.359375 42.929688 17.339844 C 42.882812 17.296875 42.835938 17.257812 42.789062 17.214844 C 42.765625 17.195312 42.734375 17.199219 42.714844 17.222656 C 42.695312 17.242188 42.695312 17.277344 42.71875 17.296875 Z M 46.785156 19.382812 C 46.800781 19.425781 46.8125 19.472656 46.828125 19.519531 C 46.835938 19.546875 46.867188 19.5625 46.894531 19.554688 C 46.921875 19.542969 46.9375 19.515625 46.929688 19.484375 C 46.914062 19.4375 46.898438 19.390625 46.882812 19.34375 C 46.875 19.316406 46.84375 19.304688 46.816406 19.3125 C 46.789062 19.324219 46.773438 19.355469 46.785156 19.382812 Z M 44.917969 18.175781 C 44.933594 18.222656 44.949219 18.265625 44.960938 18.3125 C 44.96875 18.339844 45 18.355469 45.027344 18.347656 C 45.054688 18.335938 45.070312 18.308594 45.0625 18.28125 C 45.046875 18.230469 45.035156 18.183594 45.015625 18.136719 C 45.007812 18.109375 44.976562 18.097656 44.949219 18.105469 C 44.921875 18.117188 44.90625 18.148438 44.917969 18.175781 Z M 42.152344 16.351562 C 42.148438 16.382812 42.144531 16.417969 42.140625 16.449219 C 42.140625 16.480469 42.164062 16.503906 42.191406 16.507812 C 42.222656 16.507812 42.246094 16.484375 42.25 16.457031 C 42.25 16.421875 42.253906 16.390625 42.257812 16.359375 C 42.257812 16.328125 42.238281 16.304688 42.207031 16.300781 C 42.179688 16.300781 42.152344 16.320312 42.152344 16.351562 Z M 43.597656 17.246094 C 43.636719 17.300781 43.671875 17.359375 43.707031 17.417969 C 43.722656 17.441406 43.753906 17.449219 43.78125 17.433594 C 43.804688 17.417969 43.8125 17.382812 43.796875 17.359375 C 43.761719 17.300781 43.726562 17.242188 43.6875 17.1875 C 43.671875 17.160156 43.636719 17.15625 43.613281 17.171875 C 43.589844 17.1875 43.582031 17.222656 43.597656 17.246094 Z M 43.597656 17.246094 " fill-opacity="1" fill-rule="evenodd"/></g></g></g><g clip-path="url(#9be1ef84a5)"><g clip-path="url(#9438a94c3c)"><g clip-path="url(#f150b8443f)"><path fill="#f4a2b8" d="M 41.527344 18.105469 C 41.546875 18.160156 41.566406 18.214844 41.585938 18.269531 C 41.597656 18.296875 41.628906 18.308594 41.65625 18.296875 C 41.683594 18.285156 41.695312 18.253906 41.683594 18.226562 C 41.664062 18.175781 41.644531 18.121094 41.628906 18.070312 C 41.617188 18.042969 41.589844 18.027344 41.5625 18.035156 C 41.535156 18.046875 41.519531 18.078125 41.527344 18.105469 Z M 45.25 20.507812 C 45.265625 20.566406 45.289062 20.621094 45.308594 20.675781 C 45.320312 20.703125 45.347656 20.714844 45.375 20.703125 C 45.402344 20.691406 45.417969 20.660156 45.40625 20.632812 C 45.386719 20.582031 45.367188 20.527344 45.351562 20.472656 C 45.339844 20.445312 45.3125 20.433594 45.28125 20.441406 C 45.253906 20.453125 45.238281 20.480469 45.25 20.507812 Z M 44.074219 19.777344 C 44.121094 19.78125 44.171875 19.789062 44.21875 19.796875 C 44.25 19.800781 44.273438 19.78125 44.28125 19.75 C 44.285156 19.722656 44.265625 19.695312 44.234375 19.691406 C 44.1875 19.683594 44.140625 19.675781 44.089844 19.671875 C 44.0625 19.664062 44.035156 19.6875 44.03125 19.714844 C 44.027344 19.746094 44.046875 19.773438 44.074219 19.777344 Z M 40.988281 17.277344 C 41.03125 17.285156 41.078125 17.292969 41.121094 17.296875 C 41.152344 17.300781 41.179688 17.28125 41.183594 17.253906 C 41.1875 17.222656 41.167969 17.195312 41.136719 17.191406 C 41.09375 17.1875 41.050781 17.179688 41.007812 17.171875 C 40.980469 17.167969 40.949219 17.1875 40.945312 17.214844 C 40.941406 17.246094 40.960938 17.273438 40.988281 17.277344 Z M 44.710938 19.683594 C 44.753906 19.691406 44.800781 19.695312 44.84375 19.703125 C 44.871094 19.707031 44.898438 19.6875 44.90625 19.65625 C 44.910156 19.628906 44.890625 19.601562 44.859375 19.597656 C 44.816406 19.589844 44.773438 19.585938 44.730469 19.578125 C 44.699219 19.574219 44.671875 19.59375 44.667969 19.621094 C 44.660156 19.648438 44.679688 19.679688 44.710938 19.683594 Z M 46.074219 20.308594 C 46.097656 20.351562 46.117188 20.394531 46.140625 20.4375 C 46.152344 20.460938 46.183594 20.472656 46.210938 20.457031 C 46.238281 20.441406 46.246094 20.410156 46.234375 20.382812 C 46.210938 20.34375 46.191406 20.300781 46.167969 20.257812 C 46.15625 20.230469 46.125 20.222656 46.097656 20.234375 C 46.070312 20.25 46.0625 20.28125 46.074219 20.308594 Z M 43.617188 18.6875 C 43.679688 18.710938 43.738281 18.738281 43.796875 18.761719 C 43.824219 18.773438 43.855469 18.761719 43.867188 18.734375 C 43.875 18.707031 43.863281 18.675781 43.835938 18.664062 C 43.777344 18.640625 43.71875 18.613281 43.660156 18.589844 C 43.632812 18.578125 43.601562 18.589844 43.589844 18.617188 C 43.578125 18.644531 43.589844 18.675781 43.617188 18.6875 Z M 42.683594 17.878906 C 42.730469 17.898438 42.777344 17.917969 42.828125 17.933594 C 42.859375 17.941406 42.886719 17.921875 42.894531 17.894531 C 42.902344 17.867188 42.886719 17.835938 42.859375 17.828125 C 42.8125 17.816406 42.769531 17.800781 42.726562 17.78125 C 42.699219 17.769531 42.667969 17.78125 42.65625 17.808594 C 42.644531 17.835938 42.65625 17.867188 42.683594 17.878906 Z M 43.277344 17.570312 C 43.28125 17.609375 43.285156 17.648438 43.292969 17.6875 C 43.300781 17.71875 43.328125 17.734375 43.355469 17.730469 C 43.386719 17.722656 43.402344 17.695312 43.398438 17.667969 C 43.390625 17.628906 43.386719 17.589844 43.382812 17.554688 C 43.375 17.523438 43.347656 17.503906 43.320312 17.507812 C 43.292969 17.515625 43.273438 17.542969 43.277344 17.570312 Z M 44.574219 18.496094 C 44.621094 18.535156 44.667969 18.578125 44.714844 18.617188 C 44.738281 18.636719 44.769531 18.636719 44.789062 18.613281 C 44.808594 18.589844 44.808594 18.558594 44.785156 18.539062 C 44.738281 18.496094 44.691406 18.457031 44.644531 18.414062 C 44.621094 18.394531 44.589844 18.398438 44.570312 18.421875 C 44.550781 18.441406 44.550781 18.476562 44.574219 18.496094 Z M 46.351562 19.125 C 46.304688 19.148438 46.261719 19.167969 46.214844 19.183594 C 46.1875 19.195312 46.175781 19.226562 46.1875 19.253906 C 46.195312 19.28125 46.226562 19.296875 46.253906 19.285156 C 46.300781 19.265625 46.347656 19.246094 46.394531 19.222656 C 46.417969 19.210938 46.433594 19.179688 46.421875 19.152344 C 46.410156 19.125 46.378906 19.113281 46.351562 19.125 Z M 41.742188 16.046875 C 41.78125 16.105469 41.816406 16.160156 41.851562 16.21875 C 41.867188 16.242188 41.902344 16.25 41.925781 16.234375 C 41.949219 16.21875 41.957031 16.183594 41.941406 16.160156 C 41.90625 16.101562 41.871094 16.042969 41.832031 15.988281 C 41.816406 15.960938 41.78125 15.957031 41.757812 15.972656 C 41.734375 15.988281 41.726562 16.023438 41.742188 16.046875 Z M 45.464844 18.453125 C 45.503906 18.507812 45.539062 18.566406 45.574219 18.621094 C 45.589844 18.648438 45.621094 18.65625 45.648438 18.640625 C 45.671875 18.621094 45.679688 18.589844 45.664062 18.566406 C 45.628906 18.507812 45.589844 18.449219 45.554688 18.390625 C 45.535156 18.367188 45.503906 18.363281 45.480469 18.378906 C 45.457031 18.394531 45.449219 18.429688 45.464844 18.453125 Z M 45.464844 18.453125 " fill-opacity="1" fill-rule="evenodd"/></g></g></g></svg>