<svg xmlns="http://www.w3.org/2000/svg" xmlns:xlink="http://www.w3.org/1999/xlink" width="40" zoomAndPan="magnify" viewBox="0 0 30 30.000001" height="40" preserveAspectRatio="xMidYMid meet" version="1.0"><defs><g/><clipPath id="8ffa28948f"><path d="M 7 0 L 29 0 L 29 20 L 7 20 Z M 7 0 " clip-rule="nonzero"/></clipPath><clipPath id="7184f72112"><path d="M 12.851562 -4.347656 L 33.777344 11.707031 L 27.984375 19.253906 L 7.058594 3.199219 Z M 12.851562 -4.347656 " clip-rule="nonzero"/></clipPath><clipPath id="558b196bdb"><path d="M 12.851562 -4.347656 L 33.777344 11.707031 L 27.984375 19.253906 L 7.058594 3.199219 Z M 12.851562 -4.347656 " clip-rule="nonzero"/></clipPath><clipPath id="3ba98db00f"><path d="M 12.851562 -4.347656 L 33.777344 11.707031 L 27.984375 19.253906 L 7.058594 3.199219 Z M 12.851562 -4.347656 " clip-rule="nonzero"/></clipPath><clipPath id="2f3bde255c"><path d="M 1 9 L 23 9 L 23 29 L 1 29 Z M 1 9 " clip-rule="nonzero"/></clipPath><clipPath id="84faee7dd5"><path d="M 1.996094 9.796875 L 22.921875 25.851562 L 17.132812 33.398438 L -3.792969 17.34375 Z M 1.996094 9.796875 " clip-rule="nonzero"/></clipPath><clipPath id="2eafd29925"><path d="M -3.777344 17.324219 L 17.148438 33.378906 L 22.9375 25.832031 L 2.011719 9.777344 Z M -3.777344 17.324219 " clip-rule="nonzero"/></clipPath><clipPath id="3643131912"><path d="M -3.777344 17.324219 L 17.148438 33.378906 L 22.9375 25.832031 L 2.011719 9.777344 Z M -3.777344 17.324219 " clip-rule="nonzero"/></clipPath></defs><g clip-path="url(#8ffa28948f)"><g clip-path="url(#7184f72112)"><g clip-path="url(#558b196bdb)"><g clip-path="url(#3ba98db00f)"><path fill="#000000" d="M 23.3125 3.683594 C 26.359375 6.019531 28.167969 9.375 28.625 12.910156 C 28.902344 15.019531 28.695312 17.191406 27.984375 19.253906 L 27.824219 19.128906 C 28.507812 17.117188 28.703125 14.996094 28.4375 12.933594 C 27.980469 9.449219 26.199219 6.140625 23.195312 3.835938 C 20.1875 1.53125 16.53125 0.664062 13.046875 1.128906 C 10.988281 1.402344 8.988281 2.140625 7.222656 3.320312 L 7.0625 3.199219 C 8.867188 1.980469 10.914062 1.21875 13.023438 0.9375 C 16.554688 0.464844 20.265625 1.34375 23.3125 3.683594 Z M 23.3125 3.683594 " fill-opacity="1" fill-rule="evenodd"/></g></g></g></g><g clip-path="url(#2f3bde255c)"><g clip-path="url(#84faee7dd5)"><g clip-path="url(#2eafd29925)"><g clip-path="url(#3643131912)"><path fill="#000000" d="M 6.6875 25.347656 C 9.734375 27.6875 13.441406 28.5625 16.976562 28.09375 C 19.085938 27.8125 21.132812 27.050781 22.9375 25.832031 L 22.777344 25.710938 C 21.007812 26.890625 19.011719 27.628906 16.949219 27.902344 C 13.464844 28.367188 9.808594 27.5 6.804688 25.195312 C 3.800781 22.890625 2.015625 19.582031 1.5625 16.09375 C 1.292969 14.035156 1.492188 11.914062 2.171875 9.902344 L 2.011719 9.777344 C 1.304688 11.835938 1.097656 14.011719 1.371094 16.121094 C 1.832031 19.65625 3.640625 23.011719 6.6875 25.347656 Z M 6.6875 25.347656 " fill-opacity="1" fill-rule="evenodd"/></g></g></g></g><g fill="#000000" fill-opacity="1"><g transform="translate(5.027326, 11.061948)"><g><path d="M -1.125 -0.453125 C -1.125 -0.523438 -1.113281 -0.578125 -1.09375 -0.609375 C -1.070312 -0.648438 -1.046875 -0.679688 -1.015625 -0.703125 C -0.992188 -0.734375 -0.960938 -0.757812 -0.921875 -0.78125 C -0.890625 -0.800781 -0.859375 -0.816406 -0.828125 -0.828125 C -0.742188 -0.847656 -0.660156 -0.859375 -0.578125 -0.859375 L 0.078125 -0.859375 L -0.375 -1.640625 L -0.359375 -1.65625 L 0.53125 -1.328125 C 0.664062 -1.296875 0.785156 -1.285156 0.890625 -1.296875 C 0.992188 -1.304688 1.070312 -1.359375 1.125 -1.453125 C 1.125 -1.460938 1.125 -1.46875 1.125 -1.46875 L 1.140625 -1.453125 C 1.128906 -1.398438 1.109375 -1.34375 1.078125 -1.28125 C 1.023438 -1.1875 0.9375 -1.125 0.8125 -1.09375 C 0.695312 -1.0625 0.5625 -1.066406 0.40625 -1.109375 L -0.046875 -1.28125 L 0.265625 -0.75 C 0.296875 -0.6875 0.335938 -0.644531 0.390625 -0.625 L 0.390625 -0.609375 L -0.46875 -0.640625 L 0.0625 -0.25 C 0.0625 -0.226562 0.078125 -0.234375 0.109375 -0.265625 C 0.117188 -0.265625 0.128906 -0.265625 0.140625 -0.265625 L 0.140625 -0.28125 L 0.15625 -0.28125 L 0 0 L -0.015625 0 L 0 -0.03125 C 0.0078125 -0.0390625 0.015625 -0.0625 0.015625 -0.09375 C 0.015625 -0.132812 0 -0.160156 -0.03125 -0.171875 L -0.625 -0.640625 C -0.726562 -0.640625 -0.816406 -0.628906 -0.890625 -0.609375 C -0.984375 -0.578125 -1.050781 -0.53125 -1.09375 -0.46875 C -1.09375 -0.457031 -1.09375 -0.453125 -1.09375 -0.453125 Z M -1.125 -0.453125 "/></g></g></g><g fill="#000000" fill-opacity="1"><g transform="translate(6.483313, 8.797276)"><g><path d="M 1.234375 -0.921875 C 1.203125 -0.796875 1.132812 -0.703125 1.03125 -0.640625 C 0.914062 -0.578125 0.78125 -0.554688 0.625 -0.578125 C 0.539062 -0.597656 0.445312 -0.625 0.34375 -0.65625 L 0.21875 -0.71875 L -0.03125 -0.4375 L 0.078125 -0.234375 C 0.0859375 -0.222656 0.09375 -0.210938 0.09375 -0.203125 C 0.101562 -0.203125 0.109375 -0.195312 0.109375 -0.1875 C 0.117188 -0.1875 0.128906 -0.1875 0.140625 -0.1875 C 0.160156 -0.195312 0.171875 -0.207031 0.171875 -0.21875 L 0.1875 -0.234375 L 0.203125 -0.21875 L -0.03125 0.03125 L -0.046875 0.015625 L -0.03125 0 C -0.0195312 -0.0078125 -0.0078125 -0.03125 0 -0.0625 C 0 -0.09375 0 -0.113281 0 -0.125 L -0.359375 -0.9375 C -0.453125 -0.96875 -0.523438 -0.984375 -0.578125 -0.984375 C -0.628906 -0.972656 -0.664062 -0.953125 -0.6875 -0.921875 C -0.71875 -0.898438 -0.738281 -0.875 -0.75 -0.84375 L -0.765625 -0.859375 C -0.742188 -0.929688 -0.710938 -0.992188 -0.671875 -1.046875 C -0.609375 -1.109375 -0.523438 -1.144531 -0.421875 -1.15625 C -0.328125 -1.15625 -0.21875 -1.132812 -0.09375 -1.09375 L 0.46875 -0.890625 C 0.695312 -0.796875 0.875 -0.753906 1 -0.765625 C 1.039062 -0.765625 1.078125 -0.773438 1.109375 -0.796875 C 1.140625 -0.828125 1.160156 -0.851562 1.171875 -0.875 C 1.191406 -0.894531 1.207031 -0.910156 1.21875 -0.921875 Z M -0.0625 -0.484375 L 0.171875 -0.734375 L -0.125 -0.859375 C -0.144531 -0.867188 -0.164062 -0.875 -0.1875 -0.875 C -0.207031 -0.882812 -0.222656 -0.894531 -0.234375 -0.90625 Z M -0.0625 -0.484375 "/></g></g></g><g fill="#000000" fill-opacity="1"><g transform="translate(8.121919, 7.205324)"><g><path d="M 0.0625 -0.0625 C 0.0820312 -0.0820312 0.09375 -0.101562 0.09375 -0.125 C 0.101562 -0.15625 0.101562 -0.179688 0.09375 -0.203125 L -0.40625 -0.921875 C -0.425781 -0.953125 -0.457031 -0.96875 -0.5 -0.96875 C -0.519531 -0.96875 -0.535156 -0.960938 -0.546875 -0.953125 L -0.578125 -0.9375 L -0.171875 -1.21875 L -0.1875 -1.203125 C -0.21875 -1.191406 -0.234375 -1.164062 -0.234375 -1.125 C -0.242188 -1.09375 -0.238281 -1.066406 -0.21875 -1.046875 L 0.28125 -0.328125 C 0.289062 -0.304688 0.304688 -0.296875 0.328125 -0.296875 C 0.359375 -0.296875 0.390625 -0.300781 0.421875 -0.3125 L 0.4375 -0.328125 L 0.453125 -0.3125 L 0.046875 -0.03125 L 0.03125 -0.046875 Z M 1.515625 -0.71875 C 1.472656 -0.644531 1.425781 -0.585938 1.375 -0.546875 C 1.320312 -0.515625 1.269531 -0.492188 1.21875 -0.484375 C 1.09375 -0.441406 0.925781 -0.453125 0.71875 -0.515625 L 0.09375 -0.6875 L 0.109375 -1.3125 C 0.109375 -1.320312 0.101562 -1.332031 0.09375 -1.34375 C 0.09375 -1.351562 0.09375 -1.359375 0.09375 -1.359375 C 0.0703125 -1.378906 0.0546875 -1.382812 0.046875 -1.375 L 0.03125 -1.359375 L 0.328125 -1.5625 C 0.265625 -1.519531 0.234375 -1.460938 0.234375 -1.390625 L 0.171875 -0.921875 L 0.84375 -0.71875 C 1 -0.675781 1.125 -0.65625 1.21875 -0.65625 C 1.320312 -0.65625 1.414062 -0.679688 1.5 -0.734375 Z M 1.515625 -0.71875 "/></g></g></g><g fill="#000000" fill-opacity="1"><g transform="translate(10.147083, 5.967731)"><g><path d="M 0.09375 -0.046875 C 0.101562 -0.0546875 0.113281 -0.078125 0.125 -0.109375 C 0.132812 -0.140625 0.132812 -0.160156 0.125 -0.171875 L -0.203125 -1 C -0.210938 -1.03125 -0.238281 -1.046875 -0.28125 -1.046875 C -0.3125 -1.054688 -0.328125 -1.054688 -0.328125 -1.046875 L -0.359375 -1.046875 L -0.359375 -1.0625 L 0.0625 -1.21875 C 0.09375 -1.238281 0.125 -1.257812 0.15625 -1.28125 C 0.195312 -1.300781 0.21875 -1.316406 0.21875 -1.328125 L 0.328125 -1.0625 L 0.3125 -1.0625 L 0.3125 -1.078125 C 0.289062 -1.117188 0.257812 -1.144531 0.21875 -1.15625 C 0.175781 -1.164062 0.132812 -1.164062 0.09375 -1.15625 L 0 -1.109375 L 0.171875 -0.6875 L 0.40625 -0.78125 C 0.445312 -0.800781 0.472656 -0.828125 0.484375 -0.859375 C 0.492188 -0.898438 0.492188 -0.941406 0.484375 -0.984375 L 0.46875 -1 L 0.484375 -1 L 0.625 -0.640625 L 0.609375 -0.640625 L 0.609375 -0.65625 C 0.585938 -0.695312 0.5625 -0.722656 0.53125 -0.734375 C 0.507812 -0.753906 0.476562 -0.753906 0.4375 -0.734375 L 0.203125 -0.640625 L 0.359375 -0.21875 L 0.65625 -0.34375 C 0.71875 -0.363281 0.765625 -0.40625 0.796875 -0.46875 C 0.828125 -0.53125 0.84375 -0.601562 0.84375 -0.6875 L 0.859375 -0.703125 L 0.90625 -0.375 L 0.0625 -0.03125 L 0.0625 -0.046875 Z M 0.09375 -0.046875 "/></g></g></g><g fill="#000000" fill-opacity="1"><g transform="translate(12.246684, 5.227512)"><g><path d="M 0.421875 -0.765625 C 0.390625 -0.804688 0.367188 -0.84375 0.359375 -0.875 C 0.359375 -0.914062 0.359375 -0.953125 0.359375 -0.984375 C 0.367188 -1.015625 0.378906 -1.046875 0.390625 -1.078125 C 0.410156 -1.117188 0.4375 -1.15625 0.46875 -1.1875 C 0.519531 -1.207031 0.582031 -1.226562 0.65625 -1.25 C 0.757812 -1.257812 0.859375 -1.25 0.953125 -1.21875 C 1.078125 -1.164062 1.171875 -1.082031 1.234375 -0.96875 C 1.273438 -0.90625 1.300781 -0.84375 1.3125 -0.78125 C 1.34375 -0.601562 1.300781 -0.453125 1.1875 -0.328125 C 1.082031 -0.210938 0.929688 -0.132812 0.734375 -0.09375 C 0.535156 -0.0625 0.363281 -0.0859375 0.21875 -0.171875 C 0.0703125 -0.253906 -0.015625 -0.382812 -0.046875 -0.5625 C -0.0664062 -0.675781 -0.0507812 -0.789062 0 -0.90625 C 0.0625 -1.019531 0.15625 -1.101562 0.28125 -1.15625 L 0.296875 -1.140625 C 0.253906 -1.085938 0.222656 -1.015625 0.203125 -0.921875 C 0.191406 -0.828125 0.195312 -0.738281 0.21875 -0.65625 C 0.25 -0.476562 0.3125 -0.347656 0.40625 -0.265625 C 0.5 -0.179688 0.601562 -0.144531 0.71875 -0.15625 C 0.84375 -0.175781 0.9375 -0.238281 1 -0.34375 C 1.0625 -0.457031 1.078125 -0.59375 1.046875 -0.75 C 1.035156 -0.832031 1.007812 -0.910156 0.96875 -0.984375 C 0.925781 -1.054688 0.875 -1.109375 0.8125 -1.140625 C 0.75 -1.171875 0.6875 -1.179688 0.625 -1.171875 C 0.550781 -1.160156 0.492188 -1.128906 0.453125 -1.078125 C 0.410156 -1.015625 0.394531 -0.9375 0.40625 -0.84375 C 0.40625 -0.820312 0.414062 -0.800781 0.4375 -0.78125 Z M 0.421875 -0.765625 "/></g></g></g><g fill="#000000" fill-opacity="1"><g transform="translate(14.866881, 4.963082)"><g><path d="M 1.5625 -1.390625 C 1.59375 -1.390625 1.617188 -1.390625 1.640625 -1.390625 L 1.640625 -1.375 C 1.566406 -1.363281 1.507812 -1.351562 1.46875 -1.34375 C 1.40625 -1.300781 1.359375 -1.265625 1.328125 -1.234375 C 1.304688 -1.210938 1.289062 -1.195312 1.28125 -1.1875 C 1.269531 -1.175781 1.257812 -1.15625 1.25 -1.125 C 1.21875 -1.09375 1.191406 -1.054688 1.171875 -1.015625 L 0.6875 -0.125 C 0.625 -0.0195312 0.59375 0.046875 0.59375 0.078125 L 0.578125 0.078125 L 0.1875 -0.984375 C 0.164062 -1.023438 0.140625 -1.050781 0.109375 -1.0625 C 0.0859375 -1.082031 0.0664062 -1.09375 0.046875 -1.09375 L 0.03125 -1.09375 L 0.03125 -1.109375 L 0.53125 -1.078125 L 0.53125 -1.0625 L 0.515625 -1.0625 C 0.492188 -1.0625 0.476562 -1.050781 0.46875 -1.03125 C 0.457031 -1.019531 0.453125 -1.007812 0.453125 -1 C 0.453125 -0.988281 0.457031 -0.972656 0.46875 -0.953125 L 0.6875 -0.296875 L 1.0625 -1.015625 C 1.113281 -1.140625 1.175781 -1.226562 1.25 -1.28125 C 1.351562 -1.363281 1.457031 -1.398438 1.5625 -1.390625 Z M 1.5625 -1.390625 "/></g></g></g><g fill="#000000" fill-opacity="1"><g transform="translate(17.15604, 5.260937)"><g><path d="M 0.09375 0.015625 C 0.113281 0.015625 0.132812 0.0078125 0.15625 0 C 0.1875 -0.0195312 0.207031 -0.0390625 0.21875 -0.0625 L 0.46875 -0.90625 C 0.476562 -0.9375 0.472656 -0.960938 0.453125 -0.984375 C 0.429688 -1.003906 0.414062 -1.015625 0.40625 -1.015625 L 0.375 -1.03125 L 0.375 -1.046875 L 0.8125 -0.921875 C 0.84375 -0.910156 0.875 -0.898438 0.90625 -0.890625 C 0.945312 -0.890625 0.976562 -0.890625 1 -0.890625 L 0.921875 -0.625 L 0.90625 -0.640625 L 0.90625 -0.65625 C 0.914062 -0.695312 0.910156 -0.734375 0.890625 -0.765625 C 0.867188 -0.796875 0.84375 -0.816406 0.8125 -0.828125 L 0.703125 -0.859375 L 0.5625 -0.421875 L 0.796875 -0.359375 C 0.835938 -0.347656 0.875 -0.347656 0.90625 -0.359375 C 0.945312 -0.378906 0.972656 -0.410156 0.984375 -0.453125 L 0.984375 -0.46875 L 1 -0.46875 L 0.90625 -0.109375 L 0.890625 -0.109375 L 0.890625 -0.125 C 0.898438 -0.164062 0.894531 -0.203125 0.875 -0.234375 C 0.851562 -0.273438 0.820312 -0.300781 0.78125 -0.3125 L 0.546875 -0.375 L 0.421875 0.0625 L 0.71875 0.140625 C 0.789062 0.160156 0.859375 0.15625 0.921875 0.125 C 0.984375 0.101562 1.039062 0.0546875 1.09375 -0.015625 L 1.109375 -0.015625 L 0.9375 0.28125 L 0.0625 0.015625 L 0.0625 0 Z M 0.09375 0.015625 "/></g></g></g><g fill="#000000" fill-opacity="1"><g transform="translate(19.258341, 6.007942)"><g><path d="M 1.375 1.0625 C 1.28125 1.050781 1.195312 1.023438 1.125 0.984375 C 1.050781 0.941406 0.984375 0.898438 0.921875 0.859375 C 0.828125 0.734375 0.769531 0.578125 0.75 0.390625 C 0.75 0.347656 0.742188 0.257812 0.734375 0.125 C 0.722656 -0.0078125 0.710938 -0.09375 0.703125 -0.125 C 0.703125 -0.1875 0.695312 -0.226562 0.6875 -0.25 L 0.6875 -0.265625 C 0.695312 -0.265625 0.703125 -0.265625 0.703125 -0.265625 C 0.703125 -0.265625 0.703125 -0.257812 0.703125 -0.25 C 0.710938 -0.25 0.71875 -0.25 0.71875 -0.25 C 0.757812 -0.226562 0.804688 -0.210938 0.859375 -0.203125 C 0.941406 -0.203125 1.007812 -0.242188 1.0625 -0.328125 C 1.09375 -0.390625 1.097656 -0.445312 1.078125 -0.5 C 1.066406 -0.5625 1.035156 -0.609375 0.984375 -0.640625 L 0.875 -0.703125 L 0.421875 0.109375 C 0.410156 0.128906 0.40625 0.148438 0.40625 0.171875 C 0.414062 0.203125 0.4375 0.222656 0.46875 0.234375 L 0.484375 0.25 L 0.484375 0.265625 L 0.0625 0.03125 L 0.0625 0.015625 L 0.078125 0.03125 C 0.0976562 0.0390625 0.125 0.0390625 0.15625 0.03125 C 0.1875 0.03125 0.207031 0.0195312 0.21875 0 L 0.640625 -0.765625 C 0.660156 -0.796875 0.664062 -0.820312 0.65625 -0.84375 C 0.644531 -0.875 0.628906 -0.894531 0.609375 -0.90625 L 0.59375 -0.921875 L 0.59375 -0.9375 L 1.0625 -0.671875 C 1.1875 -0.609375 1.265625 -0.535156 1.296875 -0.453125 C 1.328125 -0.378906 1.320312 -0.300781 1.28125 -0.21875 C 1.238281 -0.144531 1.175781 -0.0976562 1.09375 -0.078125 C 1.019531 -0.0546875 0.953125 -0.0625 0.890625 -0.09375 C 0.878906 -0.101562 0.875 -0.109375 0.875 -0.109375 C 0.894531 -0.0546875 0.910156 -0.015625 0.921875 0.015625 C 0.929688 0.046875 0.941406 0.078125 0.953125 0.109375 C 0.960938 0.140625 0.96875 0.171875 0.96875 0.203125 C 0.96875 0.234375 0.972656 0.265625 0.984375 0.296875 C 0.992188 0.335938 1.003906 0.378906 1.015625 0.421875 C 1.023438 0.460938 1.035156 0.507812 1.046875 0.5625 C 1.054688 0.613281 1.066406 0.664062 1.078125 0.71875 C 1.097656 0.769531 1.125 0.816406 1.15625 0.859375 C 1.207031 0.929688 1.28125 0.992188 1.375 1.046875 Z M 1.375 1.0625 "/></g></g></g><g fill="#000000" fill-opacity="1"><g transform="translate(21.23522, 7.258045)"><g/></g></g><g fill="#000000" fill-opacity="1"><g transform="translate(22.408662, 8.318677)"><g><path d="M 1.203125 0.15625 C 1.171875 0.175781 1.128906 0.191406 1.078125 0.203125 C 1.035156 0.210938 1.003906 0.203125 0.984375 0.171875 C 1.046875 0.273438 1.066406 0.375 1.046875 0.46875 C 1.015625 0.519531 0.972656 0.566406 0.921875 0.609375 C 0.867188 0.660156 0.804688 0.679688 0.734375 0.671875 C 0.660156 0.671875 0.585938 0.644531 0.515625 0.59375 C 0.441406 0.550781 0.378906 0.5 0.328125 0.4375 C 0.179688 0.269531 0.128906 0.113281 0.171875 -0.03125 C 0.179688 -0.132812 0.234375 -0.226562 0.328125 -0.3125 C 0.347656 -0.320312 0.367188 -0.328125 0.390625 -0.328125 L 0.40625 -0.3125 C 0.257812 -0.195312 0.195312 -0.0664062 0.21875 0.078125 L 0.875 -0.484375 C 0.90625 -0.503906 0.921875 -0.535156 0.921875 -0.578125 C 0.910156 -0.597656 0.90625 -0.613281 0.90625 -0.625 L 0.875 -0.640625 L 0.890625 -0.65625 L 1.15625 -0.34375 C 1.226562 -0.257812 1.269531 -0.171875 1.28125 -0.078125 C 1.300781 0.015625 1.273438 0.09375 1.203125 0.15625 Z M 0.34375 0.34375 C 0.40625 0.414062 0.472656 0.457031 0.546875 0.46875 C 0.628906 0.476562 0.703125 0.453125 0.765625 0.390625 C 0.804688 0.359375 0.832031 0.320312 0.84375 0.28125 C 0.851562 0.25 0.859375 0.210938 0.859375 0.171875 C 0.847656 0.109375 0.820312 0.046875 0.78125 -0.015625 L 0.796875 -0.015625 C 0.816406 0.015625 0.84375 0.0234375 0.875 0.015625 C 0.925781 0.015625 0.976562 -0.00390625 1.03125 -0.046875 C 1.082031 -0.0859375 1.113281 -0.128906 1.125 -0.171875 C 1.132812 -0.222656 1.113281 -0.28125 1.0625 -0.34375 L 0.3125 0.296875 C 0.320312 0.316406 0.332031 0.332031 0.34375 0.34375 Z M 0.34375 0.34375 "/></g></g></g><g fill="#000000" fill-opacity="1"><g transform="translate(23.77257, 10.127457)"><g><path d="M 1.015625 -0.65625 C 1.023438 -0.632812 1.035156 -0.609375 1.046875 -0.578125 C 1.066406 -0.546875 1.082031 -0.503906 1.09375 -0.453125 C 1.101562 -0.398438 1.101562 -0.34375 1.09375 -0.28125 C 1.09375 -0.21875 1.085938 -0.15625 1.078125 -0.09375 C 1.035156 0.0078125 0.96875 0.113281 0.875 0.21875 C 1.0625 0.195312 1.222656 0.203125 1.359375 0.234375 C 1.460938 0.273438 1.535156 0.335938 1.578125 0.421875 C 1.578125 0.421875 1.582031 0.425781 1.59375 0.4375 L 1.578125 0.4375 C 1.535156 0.382812 1.476562 0.34375 1.40625 0.3125 C 1.332031 0.289062 1.253906 0.28125 1.171875 0.28125 C 1.085938 0.28125 1 0.285156 0.90625 0.296875 C 0.820312 0.316406 0.753906 0.34375 0.703125 0.375 L 0.40625 0.53125 C 0.382812 0.539062 0.367188 0.554688 0.359375 0.578125 C 0.347656 0.609375 0.351562 0.632812 0.375 0.65625 L 0.375 0.671875 L 0.359375 0.671875 L 0.140625 0.265625 L 0.15625 0.265625 L 0.15625 0.28125 C 0.175781 0.300781 0.195312 0.3125 0.21875 0.3125 C 0.238281 0.320312 0.257812 0.320312 0.28125 0.3125 L 0.59375 0.140625 C 0.675781 0.0859375 0.765625 0.00390625 0.859375 -0.109375 C 0.953125 -0.242188 1.003906 -0.367188 1.015625 -0.484375 C 1.015625 -0.546875 1.007812 -0.601562 1 -0.65625 Z M 1.015625 -0.65625 "/></g></g></g><g fill="#000000" fill-opacity="1"><g transform="translate(5.933466, 20.162232)"><g><path d="M 0.5 -0.53125 C 0.5 -0.601562 0.523438 -0.660156 0.578125 -0.703125 C 0.609375 -0.734375 0.644531 -0.75 0.6875 -0.75 C 0.757812 -0.75 0.832031 -0.710938 0.90625 -0.640625 L 1.40625 -0.09375 C 1.4375 -0.0625 1.46875 -0.0351562 1.5 -0.015625 C 1.53125 0.00390625 1.550781 0.0195312 1.5625 0.03125 L 1.359375 0.21875 L 1.34375 0.203125 L 1.359375 0.1875 C 1.390625 0.15625 1.40625 0.113281 1.40625 0.0625 C 1.40625 0.0195312 1.390625 -0.015625 1.359375 -0.046875 L 1.21875 -0.203125 L 0.546875 0.421875 C 0.523438 0.441406 0.515625 0.472656 0.515625 0.515625 C 0.523438 0.535156 0.535156 0.550781 0.546875 0.5625 L 0.5625 0.578125 L 0.546875 0.59375 L 0.21875 0.234375 L 0.234375 0.21875 L 0.265625 0.25 C 0.273438 0.257812 0.296875 0.265625 0.328125 0.265625 C 0.359375 0.273438 0.378906 0.269531 0.390625 0.25 L 1.0625 -0.375 L 0.859375 -0.59375 C 0.816406 -0.625 0.78125 -0.648438 0.75 -0.671875 C 0.6875 -0.691406 0.628906 -0.675781 0.578125 -0.625 C 0.546875 -0.601562 0.523438 -0.566406 0.515625 -0.515625 Z M 0.5 -0.53125 "/></g></g></g><g fill="#000000" fill-opacity="1"><g transform="translate(7.624592, 21.788557)"><g><path d="M 0.59375 -1.03125 C 0.613281 -1.019531 0.640625 -1.003906 0.671875 -0.984375 C 0.703125 -0.960938 0.734375 -0.925781 0.765625 -0.875 C 0.804688 -0.832031 0.835938 -0.785156 0.859375 -0.734375 C 0.890625 -0.679688 0.90625 -0.617188 0.90625 -0.546875 C 0.914062 -0.429688 0.90625 -0.316406 0.875 -0.203125 C 1.03125 -0.316406 1.175781 -0.378906 1.3125 -0.390625 C 1.414062 -0.410156 1.503906 -0.390625 1.578125 -0.328125 C 1.578125 -0.328125 1.582031 -0.328125 1.59375 -0.328125 L 1.578125 -0.3125 C 1.535156 -0.34375 1.472656 -0.347656 1.390625 -0.328125 C 1.316406 -0.316406 1.238281 -0.296875 1.15625 -0.265625 C 1.082031 -0.234375 1.007812 -0.191406 0.9375 -0.140625 C 0.875 -0.0859375 0.816406 -0.0351562 0.765625 0.015625 L 0.578125 0.28125 C 0.566406 0.300781 0.566406 0.320312 0.578125 0.34375 C 0.585938 0.375 0.601562 0.398438 0.625 0.421875 L 0.640625 0.421875 L 0.625 0.4375 L 0.234375 0.15625 L 0.25 0.140625 L 0.265625 0.171875 C 0.285156 0.179688 0.304688 0.179688 0.328125 0.171875 C 0.359375 0.171875 0.378906 0.160156 0.390625 0.140625 L 0.578125 -0.125 C 0.640625 -0.226562 0.679688 -0.347656 0.703125 -0.484375 C 0.734375 -0.640625 0.722656 -0.769531 0.671875 -0.875 C 0.648438 -0.9375 0.617188 -0.984375 0.578125 -1.015625 Z M 0.59375 -1.03125 "/></g></g></g><g fill="#000000" fill-opacity="1"><g transform="translate(9.569142, 23.012723)"><g><path d="M 1.140625 -0.40625 C 1.117188 -0.351562 1.085938 -0.316406 1.046875 -0.296875 C 1.015625 -0.273438 0.976562 -0.265625 0.9375 -0.265625 C 1.050781 -0.210938 1.113281 -0.128906 1.125 -0.015625 C 1.125 0.0234375 1.109375 0.078125 1.078125 0.140625 C 1.054688 0.203125 1.007812 0.242188 0.9375 0.265625 C 0.875 0.296875 0.800781 0.304688 0.71875 0.296875 C 0.632812 0.296875 0.554688 0.28125 0.484375 0.25 C 0.285156 0.164062 0.171875 0.046875 0.140625 -0.109375 C 0.109375 -0.203125 0.113281 -0.300781 0.15625 -0.40625 C 0.164062 -0.414062 0.179688 -0.429688 0.203125 -0.453125 L 0.21875 -0.46875 C 0.144531 -0.300781 0.148438 -0.15625 0.234375 -0.03125 L 0.578125 -0.828125 C 0.597656 -0.859375 0.59375 -0.882812 0.5625 -0.90625 C 0.550781 -0.925781 0.539062 -0.9375 0.53125 -0.9375 L 0.515625 -0.953125 L 0.515625 -0.96875 L 0.875 -0.8125 C 0.976562 -0.757812 1.054688 -0.695312 1.109375 -0.625 C 1.160156 -0.550781 1.171875 -0.476562 1.140625 -0.40625 Z M 0.453125 0.140625 C 0.546875 0.179688 0.628906 0.1875 0.703125 0.15625 C 0.773438 0.132812 0.828125 0.0859375 0.859375 0.015625 C 0.878906 -0.0351562 0.882812 -0.078125 0.875 -0.109375 C 0.875 -0.148438 0.863281 -0.1875 0.84375 -0.21875 C 0.800781 -0.28125 0.742188 -0.328125 0.671875 -0.359375 L 0.6875 -0.375 C 0.726562 -0.351562 0.757812 -0.347656 0.78125 -0.359375 C 0.84375 -0.378906 0.890625 -0.421875 0.921875 -0.484375 C 0.953125 -0.554688 0.953125 -0.613281 0.921875 -0.65625 C 0.898438 -0.695312 0.863281 -0.734375 0.8125 -0.765625 L 0.421875 0.125 C 0.429688 0.132812 0.441406 0.140625 0.453125 0.140625 Z M 0.453125 0.140625 "/></g></g></g><g fill="#000000" fill-opacity="1"><g transform="translate(11.757788, 23.830749)"><g><path d="M 1.421875 0.59375 C 1.296875 0.625 1.175781 0.609375 1.0625 0.546875 C 0.96875 0.484375 0.882812 0.378906 0.8125 0.234375 C 0.78125 0.148438 0.753906 0.0625 0.734375 -0.03125 L 0.71875 -0.171875 L 0.359375 -0.25 L 0.234375 -0.0625 C 0.222656 -0.0507812 0.21875 -0.0390625 0.21875 -0.03125 C 0.21875 -0.0195312 0.21875 -0.0078125 0.21875 0 C 0.226562 0 0.234375 0.00390625 0.234375 0.015625 C 0.242188 0.0234375 0.257812 0.0351562 0.28125 0.046875 L 0.296875 0.046875 L 0.296875 0.0625 L -0.046875 -0.015625 L -0.046875 -0.03125 L -0.03125 -0.015625 C -0.0078125 -0.015625 0.015625 -0.0195312 0.046875 -0.03125 C 0.078125 -0.0390625 0.0976562 -0.0546875 0.109375 -0.078125 L 0.625 -0.78125 C 0.601562 -0.882812 0.570312 -0.957031 0.53125 -1 C 0.507812 -1.03125 0.476562 -1.046875 0.4375 -1.046875 C 0.40625 -1.054688 0.375 -1.0625 0.34375 -1.0625 L 0.34375 -1.078125 C 0.425781 -1.097656 0.503906 -1.101562 0.578125 -1.09375 C 0.648438 -1.070312 0.707031 -1.03125 0.75 -0.96875 C 0.8125 -0.875 0.851562 -0.757812 0.875 -0.625 L 0.984375 -0.0625 C 1.023438 0.175781 1.082031 0.34375 1.15625 0.4375 C 1.1875 0.488281 1.21875 0.519531 1.25 0.53125 C 1.28125 0.550781 1.304688 0.5625 1.328125 0.5625 C 1.359375 0.570312 1.390625 0.578125 1.421875 0.578125 Z M 0.40625 -0.296875 L 0.703125 -0.234375 L 0.65625 -0.546875 C 0.65625 -0.554688 0.648438 -0.570312 0.640625 -0.59375 C 0.640625 -0.625 0.640625 -0.644531 0.640625 -0.65625 Z M 0.40625 -0.296875 "/></g></g></g><g fill="#000000" fill-opacity="1"><g transform="translate(14.074665, 24.172279)"><g/></g></g><g fill="#000000" fill-opacity="1"><g transform="translate(15.713102, 24.146446)"><g><path d="M 0.09375 -0.03125 C 0.113281 -0.03125 0.128906 -0.0390625 0.140625 -0.0625 C 0.160156 -0.09375 0.171875 -0.117188 0.171875 -0.140625 L 0.046875 -1 C 0.0351562 -1.03125 0.015625 -1.050781 -0.015625 -1.0625 C -0.0351562 -1.070312 -0.0507812 -1.078125 -0.0625 -1.078125 L -0.09375 -1.078125 L -0.09375 -1.09375 L 0.390625 -1.15625 L 0.390625 -1.140625 L 0.359375 -1.140625 C 0.335938 -1.140625 0.316406 -1.125 0.296875 -1.09375 C 0.273438 -1.070312 0.269531 -1.050781 0.28125 -1.03125 L 0.40625 -0.171875 C 0.40625 -0.148438 0.414062 -0.128906 0.4375 -0.109375 C 0.46875 -0.0976562 0.492188 -0.09375 0.515625 -0.09375 L 0.546875 -0.09375 L 0.546875 -0.078125 L 0.0625 -0.015625 L 0.0625 -0.03125 Z M 1.671875 0.015625 C 1.597656 0.078125 1.53125 0.109375 1.46875 0.109375 C 1.40625 0.117188 1.347656 0.117188 1.296875 0.109375 C 1.160156 0.0859375 1.015625 0.00390625 0.859375 -0.140625 L 0.390625 -0.578125 L 0.6875 -1.109375 C 0.6875 -1.117188 0.6875 -1.128906 0.6875 -1.140625 C 0.6875 -1.148438 0.679688 -1.160156 0.671875 -1.171875 C 0.671875 -1.179688 0.660156 -1.1875 0.640625 -1.1875 L 0.625 -1.1875 L 0.625 -1.203125 L 0.96875 -1.25 L 0.96875 -1.234375 C 0.894531 -1.222656 0.84375 -1.1875 0.8125 -1.125 L 0.578125 -0.734375 L 1.0625 -0.265625 C 1.175781 -0.160156 1.273438 -0.0820312 1.359375 -0.03125 C 1.453125 0.0078125 1.550781 0.0195312 1.65625 0 Z M 1.671875 0.015625 "/></g></g></g><g fill="#000000" fill-opacity="1"><g transform="translate(18.109406, 23.648247)"><g><path d="M 1.515625 -0.265625 C 1.421875 -0.171875 1.3125 -0.117188 1.1875 -0.109375 C 1.070312 -0.109375 0.945312 -0.148438 0.8125 -0.234375 C 0.738281 -0.285156 0.671875 -0.34375 0.609375 -0.40625 L 0.515625 -0.53125 L 0.171875 -0.40625 L 0.171875 -0.1875 C 0.160156 -0.175781 0.15625 -0.164062 0.15625 -0.15625 C 0.164062 -0.144531 0.171875 -0.132812 0.171875 -0.125 C 0.179688 -0.125 0.191406 -0.117188 0.203125 -0.109375 C 0.222656 -0.109375 0.242188 -0.109375 0.265625 -0.109375 L 0.28125 -0.125 L 0.28125 -0.109375 L -0.046875 0.015625 L -0.046875 0 L -0.03125 0 C -0.0078125 -0.0078125 0.0078125 -0.0234375 0.03125 -0.046875 C 0.0507812 -0.078125 0.0625 -0.101562 0.0625 -0.125 L 0.109375 -0.984375 C 0.0351562 -1.066406 -0.0234375 -1.113281 -0.078125 -1.125 C -0.117188 -1.132812 -0.15625 -1.132812 -0.1875 -1.125 C -0.226562 -1.113281 -0.257812 -1.09375 -0.28125 -1.0625 L -0.28125 -1.078125 C -0.238281 -1.148438 -0.179688 -1.195312 -0.109375 -1.21875 C -0.0351562 -1.25 0.0390625 -1.25 0.125 -1.21875 C 0.21875 -1.175781 0.3125 -1.109375 0.40625 -1.015625 L 0.796875 -0.578125 C 0.960938 -0.390625 1.097656 -0.285156 1.203125 -0.265625 C 1.265625 -0.234375 1.3125 -0.21875 1.34375 -0.21875 C 1.375 -0.21875 1.398438 -0.222656 1.421875 -0.234375 C 1.453125 -0.242188 1.476562 -0.257812 1.5 -0.28125 Z M 0.1875 -0.453125 L 0.46875 -0.5625 L 0.265625 -0.8125 C 0.253906 -0.820312 0.238281 -0.835938 0.21875 -0.859375 C 0.207031 -0.878906 0.195312 -0.894531 0.1875 -0.90625 Z M 0.1875 -0.453125 "/></g></g></g><g fill="#000000" fill-opacity="1"><g transform="translate(20.275057, 22.697764)"><g><path d="M 0.671875 -0.453125 C 0.691406 -0.472656 0.703125 -0.492188 0.703125 -0.515625 C 0.710938 -0.546875 0.710938 -0.570312 0.703125 -0.59375 L 0.484375 -0.9375 L 0.078125 -0.671875 L 0.296875 -0.328125 C 0.367188 -0.222656 0.398438 -0.117188 0.390625 -0.015625 C 0.367188 0.0546875 0.320312 0.117188 0.25 0.171875 C 0.226562 0.179688 0.195312 0.191406 0.15625 0.203125 L 0.15625 0.1875 C 0.195312 0.132812 0.207031 0.078125 0.1875 0.015625 C 0.175781 -0.046875 0.144531 -0.117188 0.09375 -0.203125 L -0.375 -0.9375 C -0.394531 -0.945312 -0.414062 -0.957031 -0.4375 -0.96875 C -0.457031 -0.976562 -0.484375 -0.972656 -0.515625 -0.953125 L -0.53125 -0.953125 L -0.53125 -0.96875 L -0.140625 -1.21875 L -0.140625 -1.203125 L -0.15625 -1.203125 C -0.1875 -1.171875 -0.203125 -1.132812 -0.203125 -1.09375 C -0.203125 -1.082031 -0.191406 -1.070312 -0.171875 -1.0625 L 0.046875 -0.71875 L 0.453125 -0.984375 L 0.25 -1.296875 C 0.175781 -1.398438 0.148438 -1.503906 0.171875 -1.609375 C 0.191406 -1.679688 0.242188 -1.742188 0.328125 -1.796875 C 0.335938 -1.804688 0.351562 -1.820312 0.375 -1.84375 L 0.390625 -1.828125 C 0.347656 -1.765625 0.335938 -1.703125 0.359375 -1.640625 C 0.367188 -1.578125 0.398438 -1.507812 0.453125 -1.4375 L 0.90625 -0.734375 C 0.925781 -0.703125 0.953125 -0.6875 0.984375 -0.6875 C 0.992188 -0.6875 1.007812 -0.691406 1.03125 -0.703125 L 1.046875 -0.703125 L 1.0625 -0.6875 L 0.671875 -0.4375 L 0.65625 -0.453125 Z M 0.671875 -0.453125 "/></g></g></g><g fill="#000000" fill-opacity="1"><g transform="translate(22.377821, 21.147349)"><g><path d="M 1.125 -0.9375 C 1.144531 -0.945312 1.160156 -0.957031 1.171875 -0.96875 C 1.191406 -0.976562 1.210938 -0.988281 1.234375 -1 C 1.253906 -1.007812 1.269531 -1.019531 1.28125 -1.03125 C 1.300781 -1.050781 1.316406 -1.078125 1.328125 -1.109375 L 1.359375 -1.09375 C 1.328125 -1.03125 1.289062 -0.976562 1.25 -0.9375 C 1.15625 -0.832031 1.003906 -0.789062 0.796875 -0.8125 L -0.28125 -0.796875 L 0.1875 -0.359375 C 0.195312 -0.335938 0.21875 -0.328125 0.25 -0.328125 C 0.28125 -0.335938 0.300781 -0.347656 0.3125 -0.359375 L 0.34375 -0.390625 L 0.359375 -0.375 L 0.03125 -0.03125 L 0.015625 -0.046875 L 0.03125 -0.078125 C 0.0507812 -0.0859375 0.0625 -0.101562 0.0625 -0.125 C 0.0625 -0.15625 0.0546875 -0.179688 0.046875 -0.203125 L -0.59375 -0.796875 C -0.675781 -0.804688 -0.734375 -0.804688 -0.765625 -0.796875 C -0.796875 -0.796875 -0.820312 -0.789062 -0.84375 -0.78125 C -0.875 -0.78125 -0.898438 -0.773438 -0.921875 -0.765625 C -0.972656 -0.753906 -1.007812 -0.742188 -1.03125 -0.734375 C -1.0625 -0.722656 -1.082031 -0.707031 -1.09375 -0.6875 C -1.101562 -0.675781 -1.113281 -0.65625 -1.125 -0.625 L -1.140625 -0.640625 C -1.128906 -0.691406 -1.101562 -0.742188 -1.0625 -0.796875 C -0.96875 -0.890625 -0.8125 -0.9375 -0.59375 -0.9375 L 0.421875 -0.90625 L -0.0625 -1.359375 C -0.0820312 -1.390625 -0.101562 -1.40625 -0.125 -1.40625 C -0.144531 -1.40625 -0.164062 -1.394531 -0.1875 -1.375 L -0.203125 -1.34375 L -0.21875 -1.34375 L 0.109375 -1.703125 L 0.125 -1.703125 L 0.109375 -1.671875 C 0.078125 -1.648438 0.0625 -1.628906 0.0625 -1.609375 C 0.0625 -1.585938 0.0703125 -1.5625 0.09375 -1.53125 L 0.75 -0.921875 L 0.765625 -0.921875 C 0.785156 -0.921875 0.800781 -0.921875 0.8125 -0.921875 C 0.832031 -0.921875 0.851562 -0.914062 0.875 -0.90625 C 0.894531 -0.90625 0.914062 -0.90625 0.9375 -0.90625 C 0.957031 -0.914062 0.976562 -0.921875 1 -0.921875 C 1.019531 -0.921875 1.039062 -0.921875 1.0625 -0.921875 C 1.082031 -0.929688 1.101562 -0.9375 1.125 -0.9375 Z M 1.125 -0.9375 "/></g></g></g><g fill="#000000" fill-opacity="1"><g transform="translate(7.404261, 16.464462)"><g><path d="M -0.40625 -3.46875 C -0.550781 -3.644531 -0.625 -3.816406 -0.625 -3.984375 C -0.625 -4.148438 -0.582031 -4.296875 -0.5 -4.421875 C -0.425781 -4.546875 -0.300781 -4.648438 -0.125 -4.734375 C 0.0507812 -4.816406 0.25 -4.859375 0.46875 -4.859375 L 3.3125 -4.859375 C 3.457031 -4.859375 3.613281 -4.875 3.78125 -4.90625 C 3.957031 -4.9375 4.082031 -4.960938 4.15625 -4.984375 L 4.15625 -4.109375 L 4.09375 -4.125 L 4.09375 -4.234375 C 4.09375 -4.347656 4.050781 -4.441406 3.96875 -4.515625 C 3.882812 -4.597656 3.789062 -4.644531 3.6875 -4.65625 L 2.375 -4.65625 L 2.375 -0.5 C 2.375 -0.332031 2.445312 -0.207031 2.59375 -0.125 C 2.664062 -0.0820312 2.738281 -0.0625 2.8125 -0.0625 L 2.90625 -0.0625 L 2.90625 0 L 1.390625 0 L 1.390625 -0.0625 L 1.484375 -0.0625 C 1.597656 -0.0625 1.695312 -0.101562 1.78125 -0.1875 C 1.875 -0.269531 1.921875 -0.375 1.921875 -0.5 L 1.921875 -4.65625 L 0.46875 -4.65625 C 0.101562 -4.65625 -0.160156 -4.535156 -0.328125 -4.296875 C -0.421875 -4.179688 -0.46875 -4.054688 -0.46875 -3.921875 C -0.46875 -3.785156 -0.429688 -3.648438 -0.359375 -3.515625 Z M -0.40625 -3.46875 "/></g></g></g><g fill="#000000" fill-opacity="1"><g transform="translate(17.211819, 16.774468)"><g><path d="M 1.84375 -0.0625 L 1.9375 -0.0625 L 1.9375 0 L 0.421875 0 L 0.421875 -0.0625 L 0.5 -0.0625 C 0.625 -0.0625 0.726562 -0.101562 0.8125 -0.1875 C 0.894531 -0.28125 0.941406 -0.382812 0.953125 -0.5 L 0.953125 -4.359375 C 0.941406 -4.472656 0.894531 -4.570312 0.8125 -4.65625 C 0.726562 -4.738281 0.625 -4.78125 0.5 -4.78125 L 0.421875 -4.78125 L 0.421875 -4.859375 L 1.9375 -4.859375 L 1.9375 -4.78125 L 1.84375 -4.78125 C 1.726562 -4.78125 1.625 -4.738281 1.53125 -4.65625 C 1.445312 -4.570312 1.40625 -4.472656 1.40625 -4.359375 L 1.40625 -0.5 C 1.40625 -0.382812 1.445312 -0.28125 1.53125 -0.1875 C 1.625 -0.101562 1.726562 -0.0625 1.84375 -0.0625 Z M 6.65625 1.046875 L 6.65625 1.109375 C 6.476562 1.148438 6.300781 1.171875 6.125 1.171875 C 5.363281 1.171875 4.628906 0.789062 3.921875 0.03125 L 1.625 -2.421875 L 3.265625 -4.46875 C 3.296875 -4.507812 3.3125 -4.546875 3.3125 -4.578125 C 3.3125 -4.617188 3.304688 -4.65625 3.296875 -4.6875 C 3.253906 -4.757812 3.1875 -4.796875 3.09375 -4.796875 L 3.03125 -4.796875 L 3.03125 -4.859375 L 4.484375 -4.859375 L 4.484375 -4.796875 L 4.453125 -4.796875 C 4.148438 -4.796875 3.90625 -4.6875 3.71875 -4.46875 L 2.09375 -2.609375 L 4.453125 -0.078125 C 4.753906 0.242188 5.097656 0.507812 5.484375 0.71875 C 5.867188 0.9375 6.257812 1.046875 6.65625 1.046875 Z M 6.65625 1.046875 "/></g></g></g><path stroke-linecap="butt" transform="matrix(0.000000000000000379, -0.323219, 0.347837, 0.000000000000000407, 14.719562, 18.299354)" fill="none" stroke-linejoin="miter" d="M -0.00441473 -0.00233429 L 23.743523 -0.00233429 " stroke="#000000" stroke-width="1" stroke-opacity="1" stroke-miterlimit="4"/></svg>