<svg xmlns="http://www.w3.org/2000/svg" xmlns:xlink="http://www.w3.org/1999/xlink" width="90" zoomAndPan="magnify" viewBox="0 0 67.5 37.5" height="50" preserveAspectRatio="xMidYMid meet" version="1.0"><defs><clipPath id="293c070e23"><path d="M 0.199219 0 L 66.808594 0 L 66.808594 37.007812 L 0.199219 37.007812 Z M 0.199219 0 " clip-rule="nonzero"/></clipPath><clipPath id="d0f6ffa15e"><path d="M 4 7.96875 L 10.980469 7.96875 L 10.980469 15 L 4 15 Z M 4 7.96875 " clip-rule="nonzero"/></clipPath><clipPath id="050d0773d4"><path d="M 0.199219 13 L 6 13 L 6 20.644531 L 0.199219 20.644531 Z M 0.199219 13 " clip-rule="nonzero"/></clipPath><clipPath id="695973adfa"><path d="M 42.84375 18.65625 L 59.246094 18.65625 L 59.246094 35.0625 L 42.84375 35.0625 Z M 42.84375 18.65625 " clip-rule="nonzero"/></clipPath><clipPath id="cde17b8f16"><path d="M 33.75 8.601562 L 41.207031 8.601562 L 41.207031 16.058594 L 33.75 16.058594 Z M 33.75 8.601562 " clip-rule="nonzero"/></clipPath><clipPath id="052c8f98d1"><path d="M 53 2 L 61 2 L 61 10 L 53 10 Z M 53 2 " clip-rule="nonzero"/></clipPath><clipPath id="05e19be67d"><path d="M 54.925781 15.980469 L 52.84375 3.480469 L 65.347656 1.394531 L 67.429688 13.898438 Z M 54.925781 15.980469 " clip-rule="nonzero"/></clipPath><clipPath id="aa012fa123"><path d="M 52.835938 3.433594 L 54.917969 15.9375 L 67.421875 13.851562 L 65.339844 1.347656 Z M 52.835938 3.433594 " clip-rule="nonzero"/></clipPath><clipPath id="0f3dd7fa63"><path d="M 60 7 L 66.808594 7 L 66.808594 15 L 60 15 Z M 60 7 " clip-rule="nonzero"/></clipPath><clipPath id="4f1acdb664"><path d="M 54.925781 15.980469 L 52.84375 3.480469 L 65.347656 1.394531 L 67.429688 13.898438 Z M 54.925781 15.980469 " clip-rule="nonzero"/></clipPath><clipPath id="692f2d7d59"><path d="M 52.835938 3.433594 L 54.917969 15.9375 L 67.421875 13.851562 L 65.339844 1.347656 Z M 52.835938 3.433594 " clip-rule="nonzero"/></clipPath><clipPath id="370868e4ff"><path d="M 13 24 L 21 24 L 21 32 L 13 32 Z M 13 24 " clip-rule="nonzero"/></clipPath><clipPath id="675183b871"><path d="M 7.019531 28.128906 L 18.824219 23.511719 L 23.441406 35.316406 L 11.636719 39.933594 Z M 7.019531 28.128906 " clip-rule="nonzero"/></clipPath><clipPath id="59e22a9351"><path d="M 18.726562 23.550781 L 6.921875 28.167969 L 11.539062 39.972656 L 23.34375 35.355469 Z M 18.726562 23.550781 " clip-rule="nonzero"/></clipPath><clipPath id="3b0851f5a6"><path d="M 10 32 L 17 32 L 17 37.007812 L 10 37.007812 Z M 10 32 " clip-rule="nonzero"/></clipPath><clipPath id="3e9e1660d0"><path d="M 7.019531 28.128906 L 18.824219 23.511719 L 23.441406 35.316406 L 11.636719 39.933594 Z M 7.019531 28.128906 " clip-rule="nonzero"/></clipPath><clipPath id="b31632ccd6"><path d="M 18.726562 23.550781 L 6.921875 28.167969 L 11.539062 39.972656 L 23.34375 35.355469 Z M 18.726562 23.550781 " clip-rule="nonzero"/></clipPath><clipPath id="62c8743f39"><path d="M 22 19 L 30 19 L 30 27 L 22 27 Z M 22 19 " clip-rule="nonzero"/></clipPath><clipPath id="f1c74e7191"><path d="M 30.773438 14.605469 L 28.371094 27.050781 L 15.925781 24.648438 L 18.328125 12.203125 Z M 30.773438 14.605469 " clip-rule="nonzero"/></clipPath><clipPath id="95e41f6be7"><path d="M 28.390625 26.945312 L 30.792969 14.5 L 18.347656 12.101562 L 15.945312 24.546875 Z M 28.390625 26.945312 " clip-rule="nonzero"/></clipPath><clipPath id="45a7c559f1"><path d="M 17 12 L 25 12 L 25 20 L 17 20 Z M 17 12 " clip-rule="nonzero"/></clipPath><clipPath id="dd6fe88843"><path d="M 30.773438 14.605469 L 28.371094 27.050781 L 15.925781 24.648438 L 18.328125 12.203125 Z M 30.773438 14.605469 " clip-rule="nonzero"/></clipPath><clipPath id="0386787988"><path d="M 28.390625 26.945312 L 30.792969 14.5 L 18.347656 12.101562 L 15.945312 24.546875 Z M 28.390625 26.945312 " clip-rule="nonzero"/></clipPath></defs><g clip-path="url(#293c070e23)"><path fill="#ffffff" d="M 0.199219 0 L 67.300781 0 L 67.300781 43.992188 L 0.199219 43.992188 Z M 0.199219 0 " fill-opacity="1" fill-rule="nonzero"/><path fill="#ffffff" d="M 0.199219 0 L 67.300781 0 L 67.300781 37.28125 L 0.199219 37.28125 Z M 0.199219 0 " fill-opacity="1" fill-rule="nonzero"/><path fill="#ffffff" d="M 0.199219 0 L 67.300781 0 L 67.300781 37.28125 L 0.199219 37.28125 Z M 0.199219 0 " fill-opacity="1" fill-rule="nonzero"/></g><g clip-path="url(#d0f6ffa15e)"><path fill="#f6f6f6" d="M 7.546875 7.96875 C 8.003906 7.96875 8.4375 8.054688 8.855469 8.226562 C 9.277344 8.398438 9.644531 8.644531 9.964844 8.960938 C 10.289062 9.28125 10.535156 9.644531 10.707031 10.0625 C 10.882812 10.476562 10.96875 10.910156 10.96875 11.359375 C 10.96875 11.808594 10.882812 12.238281 10.707031 12.652344 C 10.535156 13.070312 10.289062 13.4375 9.964844 13.753906 C 9.644531 14.070312 9.277344 14.316406 8.855469 14.488281 C 8.4375 14.660156 8.003906 14.746094 7.546875 14.746094 C 7.09375 14.746094 6.660156 14.660156 6.238281 14.488281 C 5.820312 14.316406 5.453125 14.070312 5.128906 13.753906 C 4.808594 13.4375 4.5625 13.070312 4.390625 12.652344 C 4.214844 12.238281 4.128906 11.808594 4.128906 11.359375 C 4.128906 10.910156 4.214844 10.476562 4.390625 10.0625 C 4.5625 9.644531 4.808594 9.28125 5.128906 8.960938 C 5.453125 8.644531 5.820312 8.398438 6.238281 8.226562 C 6.660156 8.054688 7.09375 7.96875 7.546875 7.96875 Z M 7.546875 9.800781 C 7.339844 9.800781 7.140625 9.839844 6.945312 9.917969 C 6.753906 9.996094 6.582031 10.109375 6.4375 10.253906 C 6.289062 10.402344 6.175781 10.570312 6.09375 10.761719 C 6.015625 10.953125 5.976562 11.152344 5.976562 11.359375 C 5.976562 11.5625 6.015625 11.761719 6.09375 11.953125 C 6.175781 12.144531 6.289062 12.3125 6.4375 12.460938 C 6.582031 12.605469 6.753906 12.71875 6.945312 12.796875 C 7.140625 12.875 7.339844 12.917969 7.546875 12.917969 C 7.757812 12.917969 7.957031 12.875 8.152344 12.796875 C 8.34375 12.71875 8.511719 12.605469 8.660156 12.460938 C 8.808594 12.3125 8.921875 12.144531 9.003906 11.953125 C 9.082031 11.761719 9.121094 11.5625 9.121094 11.359375 C 9.121094 11.152344 9.082031 10.953125 9.003906 10.761719 C 8.921875 10.570312 8.808594 10.402344 8.660156 10.253906 C 8.511719 10.109375 8.34375 9.996094 8.152344 9.917969 C 7.957031 9.839844 7.757812 9.800781 7.546875 9.800781 Z M 7.546875 9.800781 " fill-opacity="1" fill-rule="nonzero"/></g><g clip-path="url(#050d0773d4)"><path fill="#f4a2b8" d="M 1.734375 13.863281 C 2.1875 13.863281 2.625 13.949219 3.042969 14.121094 C 3.464844 14.292969 3.832031 14.539062 4.152344 14.855469 C 4.472656 15.175781 4.722656 15.542969 4.894531 15.957031 C 5.066406 16.371094 5.15625 16.804688 5.15625 17.253906 C 5.15625 17.703125 5.066406 18.132812 4.894531 18.550781 C 4.722656 18.964844 4.472656 19.332031 4.152344 19.648438 C 3.832031 19.964844 3.464844 20.210938 3.042969 20.382812 C 2.625 20.554688 2.1875 20.640625 1.734375 20.640625 C 1.28125 20.640625 0.847656 20.554688 0.425781 20.382812 C 0.0078125 20.210938 -0.363281 19.964844 -0.683594 19.648438 C -1.003906 19.332031 -1.25 18.964844 -1.425781 18.550781 C -1.597656 18.132812 -1.683594 17.703125 -1.683594 17.253906 C -1.683594 16.804688 -1.597656 16.371094 -1.425781 15.957031 C -1.25 15.542969 -1.003906 15.175781 -0.683594 14.855469 C -0.363281 14.539062 0.0078125 14.292969 0.425781 14.121094 C 0.847656 13.949219 1.28125 13.863281 1.734375 13.863281 Z M 1.734375 15.695312 C 1.527344 15.695312 1.328125 15.734375 1.132812 15.8125 C 0.941406 15.890625 0.769531 16.003906 0.625 16.152344 C 0.476562 16.296875 0.363281 16.464844 0.28125 16.65625 C 0.203125 16.847656 0.164062 17.046875 0.164062 17.253906 C 0.164062 17.460938 0.203125 17.660156 0.28125 17.847656 C 0.363281 18.039062 0.476562 18.207031 0.625 18.355469 C 0.769531 18.5 0.941406 18.613281 1.132812 18.691406 C 1.328125 18.773438 1.527344 18.8125 1.734375 18.8125 C 1.945312 18.8125 2.144531 18.773438 2.335938 18.691406 C 2.53125 18.613281 2.699219 18.5 2.847656 18.355469 C 2.996094 18.207031 3.109375 18.039062 3.1875 17.847656 C 3.269531 17.660156 3.308594 17.460938 3.308594 17.253906 C 3.308594 17.046875 3.269531 16.847656 3.1875 16.65625 C 3.109375 16.464844 2.996094 16.296875 2.847656 16.152344 C 2.699219 16.003906 2.53125 15.890625 2.335938 15.8125 C 2.144531 15.734375 1.945312 15.695312 1.734375 15.695312 Z M 1.734375 15.695312 " fill-opacity="1" fill-rule="nonzero"/></g><g clip-path="url(#695973adfa)"><path fill="#f6f6f6" d="M 51.046875 18.65625 C 46.515625 18.65625 42.84375 22.328125 42.84375 26.859375 C 42.84375 31.390625 46.515625 35.0625 51.046875 35.0625 C 55.574219 35.0625 59.246094 31.390625 59.246094 26.859375 C 59.246094 22.328125 55.574219 18.65625 51.046875 18.65625 " fill-opacity="1" fill-rule="nonzero"/></g><g clip-path="url(#cde17b8f16)"><path fill="#f6f6f6" d="M 37.476562 8.601562 C 35.417969 8.601562 33.75 10.273438 33.75 12.332031 C 33.75 14.390625 35.417969 16.058594 37.476562 16.058594 C 39.535156 16.058594 41.207031 14.390625 41.207031 12.332031 C 41.207031 10.273438 39.535156 8.601562 37.476562 8.601562 " fill-opacity="1" fill-rule="nonzero"/></g><g clip-path="url(#052c8f98d1)"><g clip-path="url(#05e19be67d)"><g clip-path="url(#aa012fa123)"><path fill="#f6f6f6" d="M 53.398438 6.816406 C 53.324219 6.371094 53.339844 5.925781 53.4375 5.484375 C 53.539062 5.042969 53.71875 4.636719 53.980469 4.269531 C 54.242188 3.898438 54.5625 3.597656 54.945312 3.355469 C 55.324219 3.117188 55.738281 2.960938 56.179688 2.886719 C 56.621094 2.8125 57.0625 2.828125 57.5 2.929688 C 57.9375 3.035156 58.339844 3.21875 58.707031 3.480469 C 59.074219 3.746094 59.375 4.070312 59.613281 4.453125 C 59.851562 4.839844 60.007812 5.253906 60.082031 5.703125 C 60.160156 6.148438 60.144531 6.59375 60.042969 7.035156 C 59.945312 7.476562 59.761719 7.882812 59.503906 8.25 C 59.242188 8.621094 58.921875 8.921875 58.539062 9.164062 C 58.160156 9.402344 57.746094 9.558594 57.304688 9.632812 C 56.859375 9.707031 56.421875 9.691406 55.980469 9.589844 C 55.542969 9.484375 55.140625 9.300781 54.777344 9.039062 C 54.410156 8.773438 54.109375 8.449219 53.867188 8.066406 C 53.628906 7.679688 53.472656 7.265625 53.398438 6.816406 Z M 55.203125 6.515625 C 55.238281 6.722656 55.3125 6.914062 55.421875 7.089844 C 55.53125 7.265625 55.667969 7.417969 55.835938 7.539062 C 56.003906 7.660156 56.191406 7.742188 56.390625 7.789062 C 56.59375 7.839844 56.796875 7.84375 57 7.8125 C 57.203125 7.777344 57.394531 7.703125 57.570312 7.59375 C 57.742188 7.484375 57.890625 7.34375 58.011719 7.175781 C 58.132812 7.007812 58.214844 6.820312 58.261719 6.617188 C 58.308594 6.414062 58.3125 6.210938 58.277344 6.003906 C 58.246094 5.796875 58.171875 5.605469 58.0625 5.429688 C 57.953125 5.253906 57.8125 5.101562 57.644531 4.980469 C 57.476562 4.859375 57.292969 4.777344 57.089844 4.726562 C 56.890625 4.679688 56.6875 4.675781 56.484375 4.707031 C 56.28125 4.742188 56.089844 4.8125 55.914062 4.925781 C 55.738281 5.035156 55.589844 5.175781 55.472656 5.34375 C 55.351562 5.511719 55.269531 5.699219 55.222656 5.902344 C 55.175781 6.105469 55.171875 6.308594 55.203125 6.515625 Z M 55.203125 6.515625 " fill-opacity="1" fill-rule="nonzero"/></g></g></g><g clip-path="url(#0f3dd7fa63)"><g clip-path="url(#4f1acdb664)"><g clip-path="url(#692f2d7d59)"><path fill="#f4a2b8" d="M 60.171875 11.582031 C 60.097656 11.132812 60.109375 10.691406 60.210938 10.246094 C 60.308594 9.804688 60.492188 9.402344 60.75 9.03125 C 61.011719 8.664062 61.332031 8.359375 61.714844 8.121094 C 62.09375 7.882812 62.507812 7.726562 62.949219 7.652344 C 63.394531 7.578125 63.835938 7.59375 64.273438 7.695312 C 64.710938 7.796875 65.113281 7.980469 65.476562 8.246094 C 65.84375 8.507812 66.148438 8.835938 66.386719 9.21875 C 66.625 9.605469 66.78125 10.019531 66.855469 10.46875 C 66.929688 10.914062 66.914062 11.359375 66.816406 11.800781 C 66.714844 12.242188 66.535156 12.648438 66.273438 13.015625 C 66.011719 13.382812 65.691406 13.6875 65.3125 13.925781 C 64.929688 14.167969 64.519531 14.324219 64.074219 14.398438 C 63.632812 14.472656 63.191406 14.457031 62.753906 14.351562 C 62.316406 14.25 61.914062 14.066406 61.546875 13.804688 C 61.179688 13.539062 60.878906 13.214844 60.640625 12.828125 C 60.402344 12.445312 60.246094 12.027344 60.171875 11.582031 Z M 61.976562 11.28125 C 62.007812 11.484375 62.082031 11.675781 62.191406 11.855469 C 62.300781 12.03125 62.441406 12.179688 62.609375 12.300781 C 62.777344 12.425781 62.960938 12.507812 63.164062 12.554688 C 63.363281 12.601562 63.566406 12.609375 63.769531 12.574219 C 63.976562 12.542969 64.164062 12.46875 64.339844 12.359375 C 64.515625 12.25 64.664062 12.109375 64.78125 11.941406 C 64.902344 11.769531 64.984375 11.585938 65.03125 11.382812 C 65.078125 11.179688 65.085938 10.972656 65.050781 10.769531 C 65.015625 10.5625 64.945312 10.371094 64.832031 10.195312 C 64.722656 10.015625 64.585938 9.867188 64.417969 9.746094 C 64.25 9.625 64.0625 9.539062 63.863281 9.492188 C 63.660156 9.445312 63.457031 9.4375 63.253906 9.472656 C 63.050781 9.507812 62.859375 9.578125 62.683594 9.6875 C 62.511719 9.800781 62.363281 9.9375 62.242188 10.109375 C 62.121094 10.277344 62.039062 10.464844 61.992188 10.667969 C 61.945312 10.871094 61.941406 11.074219 61.976562 11.28125 Z M 61.976562 11.28125 " fill-opacity="1" fill-rule="nonzero"/></g></g></g><g clip-path="url(#370868e4ff)"><g clip-path="url(#675183b871)"><g clip-path="url(#59e22a9351)"><path fill="#f6f6f6" d="M 15.535156 24.800781 C 15.957031 24.632812 16.394531 24.554688 16.847656 24.5625 C 17.300781 24.570312 17.734375 24.664062 18.148438 24.84375 C 18.5625 25.023438 18.925781 25.273438 19.238281 25.597656 C 19.550781 25.917969 19.789062 26.289062 19.953125 26.710938 C 20.117188 27.128906 20.191406 27.5625 20.183594 28.011719 C 20.171875 28.460938 20.074219 28.890625 19.890625 29.304688 C 19.710938 29.71875 19.453125 30.082031 19.125 30.394531 C 18.800781 30.707031 18.425781 30.945312 18.003906 31.109375 C 17.578125 31.273438 17.140625 31.355469 16.6875 31.347656 C 16.238281 31.339844 15.804688 31.246094 15.386719 31.066406 C 14.972656 30.886719 14.609375 30.636719 14.296875 30.3125 C 13.984375 29.988281 13.746094 29.617188 13.582031 29.199219 C 13.417969 28.78125 13.34375 28.347656 13.351562 27.898438 C 13.363281 27.449219 13.460938 27.015625 13.644531 26.605469 C 13.828125 26.191406 14.082031 25.828125 14.410156 25.515625 C 14.738281 25.203125 15.113281 24.964844 15.535156 24.800781 Z M 16.199219 26.503906 C 16.007812 26.578125 15.832031 26.6875 15.683594 26.832031 C 15.53125 26.976562 15.414062 27.144531 15.332031 27.332031 C 15.246094 27.523438 15.203125 27.722656 15.195312 27.929688 C 15.191406 28.136719 15.226562 28.335938 15.304688 28.527344 C 15.378906 28.71875 15.488281 28.890625 15.632812 29.039062 C 15.777344 29.1875 15.941406 29.304688 16.132812 29.386719 C 16.324219 29.46875 16.523438 29.511719 16.730469 29.515625 C 16.941406 29.519531 17.140625 29.480469 17.335938 29.40625 C 17.53125 29.332031 17.703125 29.21875 17.851562 29.078125 C 18.003906 28.933594 18.121094 28.765625 18.207031 28.574219 C 18.289062 28.386719 18.332031 28.1875 18.339844 27.980469 C 18.34375 27.773438 18.308594 27.574219 18.234375 27.382812 C 18.15625 27.1875 18.046875 27.019531 17.902344 26.871094 C 17.761719 26.722656 17.59375 26.605469 17.402344 26.523438 C 17.210938 26.441406 17.011719 26.398438 16.804688 26.394531 C 16.597656 26.390625 16.394531 26.425781 16.199219 26.503906 Z M 16.199219 26.503906 " fill-opacity="1" fill-rule="nonzero"/></g></g></g><g clip-path="url(#3b0851f5a6)"><g clip-path="url(#3e9e1660d0)"><g clip-path="url(#b31632ccd6)"><path fill="#f4a2b8" d="M 12.265625 32.40625 C 12.691406 32.242188 13.128906 32.164062 13.578125 32.171875 C 14.03125 32.179688 14.464844 32.273438 14.878906 32.449219 C 15.296875 32.628906 15.660156 32.882812 15.972656 33.203125 C 16.285156 33.527344 16.523438 33.898438 16.6875 34.316406 C 16.851562 34.734375 16.925781 35.167969 16.914062 35.621094 C 16.90625 36.070312 16.808594 36.5 16.625 36.914062 C 16.441406 37.324219 16.1875 37.6875 15.859375 38 C 15.53125 38.3125 15.15625 38.554688 14.734375 38.71875 C 14.3125 38.882812 13.875 38.960938 13.421875 38.953125 C 12.96875 38.945312 12.535156 38.855469 12.121094 38.675781 C 11.707031 38.496094 11.34375 38.246094 11.03125 37.921875 C 10.71875 37.597656 10.480469 37.226562 10.316406 36.808594 C 10.152344 36.390625 10.078125 35.957031 10.085938 35.507812 C 10.097656 35.054688 10.195312 34.625 10.375 34.210938 C 10.558594 33.800781 10.816406 33.4375 11.140625 33.125 C 11.46875 32.8125 11.84375 32.574219 12.265625 32.40625 Z M 12.933594 34.109375 C 12.738281 34.1875 12.566406 34.296875 12.417969 34.441406 C 12.265625 34.585938 12.148438 34.75 12.0625 34.941406 C 11.980469 35.132812 11.933594 35.328125 11.929688 35.535156 C 11.925781 35.742188 11.960938 35.941406 12.035156 36.136719 C 12.113281 36.328125 12.222656 36.5 12.363281 36.648438 C 12.507812 36.796875 12.675781 36.910156 12.867188 36.996094 C 13.058594 37.078125 13.257812 37.121094 13.464844 37.121094 C 13.671875 37.125 13.875 37.089844 14.070312 37.015625 C 14.261719 36.9375 14.4375 36.828125 14.585938 36.683594 C 14.738281 36.539062 14.855469 36.375 14.9375 36.183594 C 15.023438 35.992188 15.066406 35.796875 15.070312 35.589844 C 15.078125 35.382812 15.042969 35.183594 14.964844 34.988281 C 14.890625 34.796875 14.78125 34.625 14.636719 34.476562 C 14.492188 34.328125 14.328125 34.214844 14.136719 34.132812 C 13.945312 34.046875 13.746094 34.007812 13.539062 34.003906 C 13.328125 34 13.128906 34.035156 12.933594 34.109375 Z M 12.933594 34.109375 " fill-opacity="1" fill-rule="nonzero"/></g></g></g><g clip-path="url(#62c8743f39)"><g clip-path="url(#f1c74e7191)"><g clip-path="url(#95e41f6be7)"><path fill="#f6f6f6" d="M 29.042969 23.578125 C 28.957031 24.023438 28.789062 24.4375 28.542969 24.816406 C 28.292969 25.195312 27.984375 25.511719 27.609375 25.765625 C 27.238281 26.019531 26.832031 26.191406 26.390625 26.285156 C 25.949219 26.375 25.507812 26.378906 25.066406 26.292969 C 24.625 26.210938 24.21875 26.042969 23.84375 25.792969 C 23.46875 25.542969 23.15625 25.230469 22.90625 24.855469 C 22.652344 24.480469 22.484375 24.074219 22.394531 23.628906 C 22.304688 23.183594 22.304688 22.742188 22.390625 22.296875 C 22.476562 21.851562 22.640625 21.4375 22.890625 21.058594 C 23.136719 20.679688 23.449219 20.363281 23.820312 20.109375 C 24.195312 19.855469 24.601562 19.679688 25.042969 19.589844 C 25.480469 19.496094 25.921875 19.496094 26.363281 19.578125 C 26.804688 19.664062 27.210938 19.832031 27.585938 20.082031 C 27.960938 20.328125 28.273438 20.640625 28.527344 21.015625 C 28.777344 21.390625 28.949219 21.800781 29.039062 22.246094 C 29.125 22.6875 29.128906 23.132812 29.042969 23.578125 Z M 27.246094 23.230469 C 27.285156 23.027344 27.285156 22.824219 27.242188 22.617188 C 27.203125 22.414062 27.125 22.226562 27.007812 22.054688 C 26.894531 21.882812 26.75 21.738281 26.578125 21.625 C 26.402344 21.507812 26.214844 21.433594 26.011719 21.390625 C 25.8125 21.351562 25.609375 21.355469 25.40625 21.398438 C 25.203125 21.4375 25.015625 21.519531 24.84375 21.636719 C 24.671875 21.753906 24.53125 21.898438 24.414062 22.074219 C 24.300781 22.246094 24.226562 22.4375 24.183594 22.640625 C 24.144531 22.847656 24.148438 23.050781 24.1875 23.253906 C 24.230469 23.460938 24.308594 23.648438 24.421875 23.820312 C 24.539062 23.992188 24.683594 24.136719 24.855469 24.25 C 25.027344 24.367188 25.214844 24.441406 25.417969 24.480469 C 25.621094 24.519531 25.824219 24.519531 26.027344 24.476562 C 26.226562 24.433594 26.414062 24.355469 26.585938 24.238281 C 26.757812 24.121094 26.902344 23.976562 27.015625 23.800781 C 27.128906 23.625 27.207031 23.4375 27.246094 23.230469 Z M 27.246094 23.230469 " fill-opacity="1" fill-rule="nonzero"/></g></g></g><g clip-path="url(#45a7c559f1)"><g clip-path="url(#dd6fe88843)"><g clip-path="url(#0386787988)"><path fill="#f4a2b8" d="M 24.355469 16.753906 C 24.269531 17.199219 24.101562 17.609375 23.855469 17.988281 C 23.605469 18.367188 23.296875 18.683594 22.921875 18.941406 C 22.550781 19.195312 22.144531 19.367188 21.703125 19.460938 C 21.261719 19.550781 20.820312 19.554688 20.378906 19.46875 C 19.9375 19.382812 19.53125 19.21875 19.15625 18.96875 C 18.78125 18.71875 18.46875 18.40625 18.21875 18.03125 C 17.964844 17.65625 17.796875 17.246094 17.707031 16.804688 C 17.617188 16.359375 17.617188 15.914062 17.703125 15.46875 C 17.789062 15.023438 17.953125 14.613281 18.203125 14.234375 C 18.449219 13.855469 18.761719 13.539062 19.132812 13.285156 C 19.507812 13.027344 19.914062 12.855469 20.355469 12.765625 C 20.792969 12.671875 21.234375 12.667969 21.675781 12.753906 C 22.117188 12.839844 22.523438 13.007812 22.898438 13.253906 C 23.273438 13.503906 23.585938 13.816406 23.839844 14.191406 C 24.089844 14.566406 24.261719 14.976562 24.351562 15.421875 C 24.4375 15.863281 24.441406 16.308594 24.355469 16.753906 Z M 22.558594 16.40625 C 22.597656 16.203125 22.597656 15.996094 22.554688 15.792969 C 22.515625 15.589844 22.4375 15.402344 22.320312 15.230469 C 22.207031 15.054688 22.0625 14.914062 21.890625 14.796875 C 21.71875 14.683594 21.527344 14.605469 21.328125 14.566406 C 21.125 14.527344 20.921875 14.53125 20.71875 14.570312 C 20.515625 14.613281 20.328125 14.695312 20.15625 14.8125 C 19.984375 14.929688 19.84375 15.074219 19.726562 15.25 C 19.613281 15.421875 19.539062 15.613281 19.496094 15.816406 C 19.457031 16.023438 19.460938 16.226562 19.5 16.429688 C 19.542969 16.632812 19.621094 16.824219 19.734375 16.996094 C 19.851562 17.167969 19.996094 17.3125 20.167969 17.425781 C 20.339844 17.539062 20.527344 17.617188 20.730469 17.65625 C 20.933594 17.695312 21.136719 17.695312 21.339844 17.652344 C 21.542969 17.609375 21.726562 17.53125 21.898438 17.414062 C 22.070312 17.296875 22.214844 17.148438 22.328125 16.976562 C 22.441406 16.800781 22.519531 16.613281 22.558594 16.40625 Z M 22.558594 16.40625 " fill-opacity="1" fill-rule="nonzero"/></g></g></g></svg>